<?xml version="1.0" encoding="UTF-8"?>
<svg version="1.1" xmlns="http://www.w3.org/2000/svg" width="512" height="512">
<path d="M0 0 C8.48818975 5.07864799 13.33886483 11.64159448 16.4375 20.9375 C17.27520813 31.49811566 16.11155464 39.31835761 10.3125 48.1875 C6.04476193 52.26968424 0.55204755 56.9375 -5.5625 56.9375 C-5.5625 69.8075 -5.5625 82.6775 -5.5625 95.9375 C-3.5825 95.4425 -3.5825 95.4425 -1.5625 94.9375 C0.18636981 94.87125493 1.93752748 94.85197405 3.6875 94.875 C5.02554688 94.88853516 5.02554688 94.88853516 6.390625 94.90234375 C7.06609375 94.91394531 7.7415625 94.92554687 8.4375 94.9375 C8.39109375 94.38964844 8.3446875 93.84179688 8.296875 93.27734375 C7.55105209 76.89587619 14.87959044 61.49411147 25.30078125 49.20703125 C31.1883078 42.95355241 37.72098751 38.53452058 45.3125 34.625 C45.93576172 34.29935059 46.55902344 33.97370117 47.20117188 33.63818359 C57.43159654 28.62464979 67.92552148 27.47294641 79.1875 27.25 C80.96640625 27.19875977 80.96640625 27.19875977 82.78125 27.14648438 C85.66657185 27.06504384 88.5516295 26.99556387 91.4375 26.9375 C91.70522217 26.25260498 91.97294434 25.56770996 92.2487793 24.86206055 C92.60367432 23.96269775 92.95856934 23.06333496 93.32421875 22.13671875 C93.849552 20.80000122 93.849552 20.80000122 94.38549805 19.4362793 C98.31530189 10.10196917 105.14636152 4.14367925 114.10546875 -0.1171875 C117.78151459 -1.60730993 120.98816886 -2.18795074 124.95132446 -2.20967102 C126.30098801 -2.22040398 126.30098801 -2.22040398 127.67791748 -2.23135376 C129.14759979 -2.23538712 129.14759979 -2.23538712 130.64697266 -2.23950195 C132.20383286 -2.24935875 132.20383286 -2.24935875 133.79214478 -2.25941467 C137.22861811 -2.27913173 140.66504773 -2.29080779 144.1015625 -2.30078125 C145.8646129 -2.30689454 145.8646129 -2.30689454 147.66328049 -2.31313133 C153.88635838 -2.3339869 160.10941426 -2.34828995 166.33251953 -2.35766602 C172.74819677 -2.36871949 179.16352614 -2.4031091 185.57908058 -2.44283772 C190.52233508 -2.46903258 195.46550712 -2.47736051 200.40882492 -2.48094749 C202.7730074 -2.48580725 205.13718636 -2.49740369 207.50130081 -2.51598549 C210.81836432 -2.54043347 214.13453341 -2.53940097 217.45166016 -2.5324707 C218.41930298 -2.54528076 219.3869458 -2.55809082 220.38391113 -2.57128906 C231.51240556 -2.48699247 240.19413246 1.9253683 248.125 9.5625 C252.955351 14.77927908 256.4375 20.73616454 256.4375 27.9375 C257.17685791 27.91655273 257.91621582 27.89560547 258.67797852 27.87402344 C282.08247086 27.29869714 301.54566539 28.87145957 319.32739258 45.75048828 C329.06265497 55.34679226 335.40581442 65.9241581 338.8125 79.1875 C338.98031982 79.83662354 339.14813965 80.48574707 339.32104492 81.15454102 C340.42866025 85.86414769 340.57613799 90.13849253 340.4375 94.9375 C341.11296875 94.92589844 341.7884375 94.91429688 342.484375 94.90234375 C343.37640625 94.89332031 344.2684375 94.88429688 345.1875 94.875 C346.06921875 94.86339844 346.9509375 94.85179688 347.859375 94.83984375 C350.4375 94.9375 350.4375 94.9375 354.4375 95.9375 C354.1075 83.3975 353.7775 70.8575 353.4375 57.9375 C350.1375 56.2875 346.8375 54.6375 343.4375 52.9375 C335.82745836 45.57294357 332.08378064 38.8330498 331.8125 28.125 C331.86865401 19.54346473 334.46542289 12.60941927 340.078125 6.0078125 C341.77763012 4.41154834 343.46330324 3.17444486 345.4375 1.9375 C346.05882812 1.52757812 346.68015625 1.11765625 347.3203125 0.6953125 C354.91271211 -3.49061124 364.89415724 -3.39321722 373.1875 -1.40234375 C381.88338293 2.08506763 387.58889524 8.15029125 391.52734375 16.5078125 C394.75730971 25.13029674 393.96776918 33.57142814 390.4375 41.9375 C386.00167302 49.73128946 379.67679583 54.64178167 371.4375 57.9375 C371.1075 72.1275 370.7775 86.3175 370.4375 100.9375 C372.0875 101.5975 373.7375 102.2575 375.4375 102.9375 C388.02565467 110.90999796 395.98692474 121.64695359 399.74609375 136.0859375 C402.36490152 150.67432428 400.48517501 165.28830784 392.4375 177.9375 C389.63917841 181.48800202 386.62697008 184.73691678 383.4375 187.9375 C382.88320313 188.515 382.32890625 189.0925 381.7578125 189.6875 C371.13870186 199.83112807 356.7621222 202.25839544 342.67578125 202.0078125 C341.93714844 201.98460937 341.19851563 201.96140625 340.4375 201.9375 C340.46972656 203.10023438 340.50195312 204.26296875 340.53515625 205.4609375 C340.5095564 222.10083899 332.57294954 237.81740187 321.04296875 249.390625 C320.18316406 250.23109375 319.32335937 251.0715625 318.4375 251.9375 C317.59638672 252.82695312 317.59638672 252.82695312 316.73828125 253.734375 C312.95008592 257.4330854 308.35675704 259.72593606 303.6875 262.125 C302.72227417 262.62531738 302.72227417 262.62531738 301.73754883 263.13574219 C291.13058004 268.3518967 281.07727155 269.36829189 269.36328125 269.23046875 C267.94411167 269.22485889 266.52493619 269.22059538 265.10575867 269.21760559 C261.40841027 269.20626595 257.71142729 269.1768958 254.01422119 269.14349365 C250.22632792 269.11255499 246.43837439 269.09904993 242.65039062 269.08398438 C235.24590952 269.05201283 227.84180295 268.9993373 220.4375 268.9375 C220.7675 274.8775 221.0975 280.8175 221.4375 286.9375 C223.7475 286.2775 226.0575 285.6175 228.4375 284.9375 C252.91632052 283.41973529 279.52572329 299.47411708 297.16040039 314.9934082 C315.80528781 331.8617404 328.77608907 351.4783103 335.8125 375.625 C336.05129883 376.44307129 336.29009766 377.26114258 336.53613281 378.10400391 C340.44632386 392.41779298 340.77474892 406.5723933 340.80859375 421.296875 C340.81758179 423.33799293 340.82670395 425.37911028 340.83595276 427.42022705 C340.8523357 431.67290843 340.86012451 435.92551202 340.86303711 440.17822266 C340.86844261 445.60728795 340.90625824 451.03561701 340.95178127 456.46447372 C340.98160431 460.66998952 340.98876164 464.87532792 340.98976326 469.08094025 C340.99394679 471.08229229 341.0063053 473.08364578 341.02728081 475.08489227 C341.22799845 495.86803441 341.22799845 495.86803441 335.4375 502.9375 C329.47755982 508.42490722 324.90030983 510.09280703 316.8125 510.140625 C316.06919434 510.14632507 315.32588867 510.15202515 314.56005859 510.15789795 C312.98992329 510.16733425 311.4197683 510.17387649 309.84960938 510.17773438 C307.44626577 510.18746451 305.04376886 510.21850917 302.640625 510.25 C301.11458841 510.25652803 299.58854571 510.26177929 298.0625 510.265625 C297.34368652 510.2779718 296.62487305 510.2903186 295.88427734 510.30303955 C292.99465103 510.29011154 290.92864041 510.25319845 288.4609375 508.66699219 C287.4375 506.9375 287.4375 506.9375 287.4375 502.9375 C280.8375 502.9375 274.2375 502.9375 267.4375 502.9375 C267.1075 504.5875 266.7775 506.2375 266.4375 507.9375 C263.73185886 510.64314114 261.61087039 510.18592426 257.93508661 510.214311 C257.01254166 510.2112138 256.08999671 510.2081166 255.13949585 510.20492554 C254.16337896 510.20945665 253.18726207 510.21398776 252.18156588 510.21865618 C248.88971411 510.23138121 245.59802608 510.22967459 242.30615234 510.22802734 C239.95433335 510.2340077 237.60251632 510.24081209 235.2507019 510.24838257 C228.84551835 510.26610388 222.44038817 510.27074063 216.03518248 510.27201414 C211.36509986 510.27316637 206.69502632 510.27946569 202.02494801 510.2856871 C189.46648488 510.30230937 176.90805013 510.30977038 164.3495764 510.30834763 C163.63593005 510.30826772 162.92228371 510.3081878 162.18701172 510.30810547 C161.47249366 510.30802371 160.7579756 510.30794195 160.02180548 510.30785771 C148.45219876 510.3070455 136.88272245 510.32616383 125.31315343 510.3543822 C113.43435183 510.383126 101.55561378 510.39692153 89.67677653 510.39519465 C83.00754605 510.39453105 76.33843277 510.40039892 69.66923141 510.42155075 C63.39343528 510.44090955 57.1179274 510.44107342 50.84212112 510.42651749 C48.53951853 510.42442511 46.23689802 510.42915571 43.93432617 510.4412384 C40.78834713 510.45667616 37.64336364 510.44739149 34.49740601 510.43197632 C33.58824539 510.44226344 32.67908477 510.45255057 31.74237382 510.46314943 C24.90462526 510.38922198 19.63891278 508.7001091 14.4140625 504.19140625 C13.96804687 503.63324219 13.52203125 503.07507813 13.0625 502.5 C12.60101563 501.94441406 12.13953125 501.38882812 11.6640625 500.81640625 C8.23912966 495.56993269 8.14055044 490.85976234 8.14697266 484.78295898 C8.14025543 483.86825836 8.13353821 482.95355774 8.12661743 482.01113892 C8.10761875 478.98523512 8.10371028 475.95955352 8.1015625 472.93359375 C8.09512878 470.81388765 8.08839999 468.69418242 8.08139038 466.57447815 C8.06940788 462.12165272 8.06570985 457.66890486 8.06689453 453.21606445 C8.06709615 447.56475068 8.03996257 441.91394875 8.00535011 436.26275539 C7.98287114 431.87581702 7.97906358 427.48899692 7.98011398 423.10200691 C7.97778296 421.02241337 7.96910394 418.94281527 7.95344925 416.86327934 C7.69887658 379.5043725 19.83817624 346.74754413 46.0625 319.8125 C63.37883622 302.59015215 89.47878823 286.84738403 114.4375 284.9375 C118.96689418 285.06784228 123.13257991 285.50252664 127.4375 286.9375 C127.7675 280.9975 128.0975 275.0575 128.4375 268.9375 C126.5615918 268.95321045 124.68568359 268.9689209 122.75292969 268.98510742 C116.51050235 269.03375228 110.26812031 269.06807564 104.02555466 269.09293652 C100.24576854 269.10850124 96.46619009 269.12956809 92.68652344 269.16381836 C89.02955372 269.19674421 85.37278202 269.21442187 81.71567535 269.22213173 C80.3300185 269.22761635 78.94437079 269.23832379 77.55879974 269.25469017 C57.73793323 269.47920954 41.10054767 263.33913452 26.89208984 249.47167969 C16.06127905 238.04824648 8.29480881 222.07222152 8.25 206.1875 C8.29679673 204.7702277 8.35294451 203.35302148 8.4375 201.9375 C7.73367187 201.97230469 7.02984375 202.00710937 6.3046875 202.04296875 C-9.07987516 202.46473874 -22.98242018 198.7770771 -34.875 188.75 C-39.79675219 184.06563135 -43.24650392 178.83260413 -46.5625 172.9375 C-47.201875 171.885625 -47.84125 170.83375 -48.5 169.75 C-49.99740796 165.78627305 -50.04098444 163.17550505 -49.5625 158.9375 C-48.923125 158.40511719 -48.28375 157.87273437 -47.625 157.32421875 C-44.42120791 153.61680025 -44.5209465 149.63651047 -44.125 144.875 C-44.02251953 143.96427734 -43.92003906 143.05355469 -43.81445312 142.11523438 C-43.4443906 138.52572775 -43.4443906 138.52572775 -43.5625 134.9375 C-44.52771384 133.9038839 -45.52833178 132.90212225 -46.5625 131.9375 C-47.77510849 125.14689247 -45.5193156 121.19669504 -41.69140625 115.62109375 C-36.69780944 109.326413 -30.77023322 104.46781831 -23.5625 100.9375 C-22.9025 100.9375 -22.2425 100.9375 -21.5625 100.9375 C-21.8925 86.7475 -22.2225 72.5575 -22.5625 57.9375 C-25.8625 56.2875 -29.1625 54.6375 -32.5625 52.9375 C-39.44479763 47.05424558 -43.97943521 40.45635557 -44.80078125 31.2734375 C-45.06358598 20.78891189 -42.60992784 13.2970932 -35.35546875 5.625 C-26.24507049 -2.94949248 -11.46683228 -5.35471123 0 0 Z " fill="#010101" transform="translate(80.5625,2.0625)"/>
<path d="M0 0 C1.79763039 -0.01279495 1.79763039 -0.01279495 3.63157654 -0.02584839 C4.94844452 -0.02494202 6.2653125 -0.02403564 7.62208557 -0.02310181 C9.02176269 -0.02908589 10.4214365 -0.03589116 11.82110596 -0.04345703 C15.62741536 -0.06114833 19.43363487 -0.06581405 23.23998141 -0.0670886 C25.62158628 -0.06851035 28.00316833 -0.07278066 30.38476753 -0.07808304 C38.70444817 -0.096602 47.02406469 -0.10475236 55.34376526 -0.10317993 C63.07866922 -0.10198184 70.81329262 -0.12301367 78.54812568 -0.15466726 C85.20056124 -0.18091326 91.85290575 -0.19154357 98.50539261 -0.19026911 C102.47299901 -0.1897614 106.4403568 -0.19533636 110.4079113 -0.21662521 C114.14841854 -0.23614537 117.88844387 -0.23603936 121.62896919 -0.22159195 C123.63768503 -0.21853902 125.64640162 -0.23508836 127.65504456 -0.25247192 C142.09547177 -0.15348472 154.22901445 4.62589867 164.94068909 14.39242554 C175.45498288 25.64145312 179.71207665 37.6631429 179.67311096 52.70932007 C179.68158051 53.92524338 179.69005005 55.14116669 179.69877625 56.39393616 C179.71807228 59.7064708 179.7239298 63.01844008 179.72202873 66.33099222 C179.72190829 69.11113423 179.73050303 71.89122474 179.73880625 74.67135227 C179.75799288 81.2418237 179.76094278 87.81216815 179.75416565 94.38265991 C179.74754046 101.12253125 179.7703381 107.86185315 179.80747938 114.60161316 C179.83835661 120.41942235 179.84951672 126.23705653 179.84564257 132.05494583 C179.84359216 135.51569247 179.84878383 138.97601205 179.87353516 142.43667984 C179.99635045 163.71041092 178.96295295 179.75803406 163.94068909 196.01742554 C151.34448711 207.96694751 136.75721763 210.38666802 120.1486969 210.50790405 C118.83885834 210.52090042 117.52901978 210.53389679 116.17948914 210.54728699 C104.13727766 210.66283972 92.09427095 210.71978453 80.05160904 210.7640543 C71.1648323 210.79728577 62.27907516 210.85687837 53.39273572 210.95156533 C47.12582196 211.01606468 40.85918493 211.04961566 34.59195209 211.06080383 C30.85706983 211.06833332 27.1234242 211.08924741 23.38890839 211.14383125 C19.21705843 211.20409635 15.04753592 211.2002885 10.8752594 211.1914978 C9.65410431 211.21868896 8.43294922 211.24588013 7.17478943 211.27389526 C-1.94354802 211.17518152 -6.99340546 208.25431982 -13.74681091 202.26742554 C-14.74196716 201.41535522 -15.73712341 200.56328491 -16.76243591 199.68539429 C-22.35423909 194.10336699 -27.06245601 188.29453953 -30.74681091 181.26742554 C-30.74681091 180.60742554 -30.74681091 179.94742554 -30.74681091 179.26742554 C-30.18341979 179.27019092 -29.62002867 179.2729563 -29.03956509 179.27580547 C-15.26475402 179.34236053 -1.48997152 179.39165644 12.28496647 179.42286205 C18.94672567 179.43846426 25.60833693 179.45960237 32.27003479 179.4937439 C38.7085833 179.52653224 45.14702007 179.54431944 51.58564568 179.55205727 C54.03221328 179.55756597 56.47877533 179.56832233 58.92529488 179.58461571 C85.97410456 179.75746004 108.21143885 176.00448701 128.25318909 156.26742554 C143.28260002 141.26831583 148.49904087 122.51214396 148.57667542 101.84237671 C148.47979085 93.57283283 148.02919849 83.2500936 142.83522034 76.39633179 C140.07659624 74.42783212 137.49991355 74.9195622 134.25318909 75.26742554 C132.08652242 76.10075887 132.08652242 76.10075887 131.25318909 78.26742554 C131.45580059 82.31965568 132.00824609 85.53074792 133.28834534 89.38070679 C134.66319804 94.11202224 134.54491062 98.81307612 134.50318909 103.70492554 C134.51092346 104.60791382 134.51865784 105.5109021 134.52662659 106.44125366 C134.47896307 122.89708403 127.14815515 137.09087506 116.06568909 148.95492554 C103.56546673 160.94666428 87.96815023 165.39646024 71.06373596 165.44442749 C70.05146942 165.45099869 69.03920288 165.45756989 67.9962616 165.46434021 C64.6548199 165.48400672 61.31342308 165.49572299 57.97193909 165.50570679 C56.25222649 165.51182008 56.25222649 165.51182008 54.49777222 165.51805687 C48.42568647 165.53889246 42.35362312 165.55320328 36.2815094 165.56259155 C30.03891347 165.57363161 23.79667636 165.60801144 17.55420685 165.64776325 C12.72917562 165.67402828 7.90422849 165.68229231 3.07913208 165.68587303 C0.77965887 165.69071589 -1.51981117 165.70226338 -3.81921387 165.72091103 C-25.43235425 165.88525131 -43.47553903 162.85414553 -59.74681091 147.26742554 C-73.74215887 131.68684399 -76.72610953 115.52106102 -75.96897888 95.15707397 C-74.83272473 80.37827821 -65.19585738 67.00571597 -54.30638123 57.53109741 C-37.98896262 44.30959479 -19.1776665 43.65756582 0.88990784 43.77133179 C3.14518277 43.77117641 5.40045796 43.76968104 7.6557312 43.766922 C12.35476153 43.76554633 17.05348355 43.77795878 21.75245667 43.8008728 C27.74375447 43.8293038 33.73454292 43.82649526 39.72587872 43.81378269 C44.37331414 43.80679522 49.02063393 43.81464895 53.66805458 43.82703972 C55.87621936 43.83152094 58.08439669 43.83192051 60.29256248 43.82797432 C81.75799516 43.80755579 97.20397653 47.23461717 115.25318909 59.26742554 C117.71028284 59.85093058 117.71028284 59.85093058 120.25318909 59.26742554 C123.13114673 56.6924108 124.17386801 55.19944815 124.50318909 51.32992554 C121.20117094 43.23998107 110.69193474 39.43053317 103.13502502 36.04281616 C92.45614111 31.64269482 81.82859461 30.11341099 70.38258362 30.15390015 C69.29906113 30.15375412 68.21553864 30.15360809 67.09918213 30.15345764 C63.52810138 30.1541527 59.95707319 30.16192607 56.38600159 30.16976929 C53.90592986 30.17163491 51.42585775 30.17305813 48.94578552 30.17405701 C42.42578612 30.1778708 35.90580907 30.18769139 29.38581848 30.19876099 C22.72963381 30.20954149 16.07344262 30.21355987 9.41725159 30.21859741 C-3.63744544 30.22931467 -16.69212699 30.24618458 -29.74681091 30.26742554 C-26.11544011 18.85272169 -13.10072724 0.04207692 0 0 Z " fill="#EEF1F9" transform="translate(225.74681091308594,45.732574462890625)"/>
<path d="M0 0 C3.68321137 2.50771838 7.48662983 4.08091771 11.6875 5.5 C12.85667969 5.89574219 14.02585937 6.29148437 15.23046875 6.69921875 C26.39471377 9.85624203 37.73786015 10.18164264 49.25 10.125 C50.37368988 10.12276428 50.37368988 10.12276428 51.52008057 10.1204834 C62.43266135 10.08142558 72.91153837 9.70026226 83.5 6.8125 C84.60601562 6.51085937 85.71203125 6.20921875 86.8515625 5.8984375 C91.69436352 4.42036175 95.96137357 2.6512374 100.3125 0.0625 C105.94996443 -3.20501069 110.33770793 -2.57126178 116.5 -1.0625 C147.89789914 8.14181564 172.92582895 27.32672272 188.75 56.0625 C196.1721341 70.08907546 200.82060044 85.81999324 200.7746582 101.71264648 C200.7823246 103.11212273 200.7823246 103.11212273 200.79014587 104.53987122 C200.80391632 107.587846 200.80309614 110.6355918 200.80078125 113.68359375 C200.80467206 115.81445906 200.80900752 117.94532359 200.81376648 120.07618713 C200.82119935 124.523392 200.82095652 128.97051741 200.81567383 133.41772461 C200.80985038 139.12317151 200.82689344 144.8282968 200.8500185 150.53369045 C200.86471913 154.92507331 200.86563312 159.31637774 200.86250877 163.70778084 C200.86302276 165.81257838 200.86827499 167.91738022 200.87832069 170.02215385 C200.89061101 172.9543579 200.88394066 175.88592201 200.87231445 178.81811523 C200.87995819 179.68928986 200.88760193 180.56046448 200.89547729 181.45803833 C200.84321737 187.39927487 200.84321737 187.39927487 199.10161114 189.49612522 C195.87683915 192.14658663 193.38823687 191.96041548 189.28515625 192.0234375 C188.04185547 192.05179688 186.79855469 192.08015625 185.51757812 192.109375 C182.88490701 192.16137838 180.25207212 192.20567334 177.61914062 192.2421875 C176.37455078 192.273125 175.12996094 192.3040625 173.84765625 192.3359375 C172.70304932 192.35575684 171.55844238 192.37557617 170.37915039 192.39599609 C167.52871074 192.58843148 167.52871074 192.58843148 165.66577148 194.09228516 C164.19848759 196.04536561 164.19848759 196.04536561 163.5 199.8125 C156.9 199.8125 150.3 199.8125 143.5 199.8125 C142.51 197.8325 141.52 195.8525 140.5 193.8125 C137.39008604 192.25754302 134.06655951 192.57173044 130.6484375 192.49609375 C129.87440582 192.47531265 129.10037415 192.45453156 128.30288696 192.43312073 C125.82701608 192.36766552 123.35103798 192.30875913 120.875 192.25 C119.19790552 192.20681093 117.52082193 192.16319652 115.84375 192.11914062 C111.72927692 192.01198829 107.61469586 191.91070955 103.5 191.8125 C103.5 186.8625 103.5 181.9125 103.5 176.8125 C104.68078125 176.78671875 105.8615625 176.7609375 107.078125 176.734375 C108.63545323 176.67808603 110.19274347 176.62073886 111.75 176.5625 C112.52730469 176.54832031 113.30460938 176.53414062 114.10546875 176.51953125 C117.87843614 176.35829333 119.91304061 176.24542812 123.015625 173.95703125 C125.04186484 171.0296479 125.09263238 169.29421522 124.5 165.8125 C122.05857547 163.11408341 119.88406008 162.59125102 116.390625 162.30078125 C114.8444711 162.22552435 113.29732255 162.17025962 111.75 162.125 C107.66625 161.9703125 107.66625 161.9703125 103.5 161.8125 C103.5 154.2225 103.5 146.6325 103.5 138.8125 C114.9375 138.8125 114.9375 138.8125 118.5 141.8125 C119.77301151 143.14375386 121.04359707 144.47732941 122.3125 145.8125 C127.24413199 150.85516311 131.69835088 152.737743 138.6875 153 C142.5 153.8125 142.5 153.8125 143.9375 155.5078125 C144.77331939 156.92348159 145.57818814 158.35786803 146.3515625 159.80859375 C148.61874551 163.76459675 152.37106486 166.09818947 156.5 167.8125 C165.06946795 168.74317565 171.13715162 167.78716935 178.25 162.9375 C183.45941362 158.01749824 184.64113133 153.00660053 184.875 146.0625 C184.80750449 139.13577332 182.77809218 135.16782472 178.0078125 130.28515625 C172.77528512 125.60841546 168.07485948 124.26065951 161.19140625 124.4453125 C156.34178155 125.1069449 152.3904629 126.85412717 148.5 129.8125 C146.77420809 132.11612403 145.33061579 134.49056528 143.8515625 136.95703125 C142.5 138.8125 142.5 138.8125 139.625 139.8125 C134.92009925 138.30693176 132.0031896 135.19891661 128.5 131.8125 C122.73515609 126.75068584 117.7217405 124.52985898 110.14453125 124.65209961 C100.68309481 124.80385938 100.68309481 124.80385938 97.37890625 122.03515625 C96 119.75 96 119.75 94.8359375 117.25390625 C93.21370757 114.28930477 91.3753165 113.11272155 88.625 111.1875 C85.4804214 108.54477266 84.5930716 107.21071045 83.64453125 103.15234375 C83.30695064 99.22766901 83.55282691 95.65480591 84.5 91.8125 C86.34429182 89.79256134 87.89609832 89.00158406 90.390625 87.91796875 C94.87844137 85.56602054 96.95774138 80.43927587 98.5 75.8125 C99.54957961 68.48043669 97.56165777 62.91031692 93.5 56.8125 C89.50490315 52.22831381 84.98602658 50.26959353 79.02734375 49.48828125 C71.45539904 49.00904424 66.35038349 51.01692543 60.5 55.8125 C55.46883404 61.36275451 55.0797585 67.24003579 55.16796875 74.44921875 C55.66307499 79.46435369 57.13164233 83.0519363 60.5 86.8125 C62.84794978 88.38696131 65.14825983 89.73533659 67.70703125 90.9375 C69.5 92.8125 69.5 92.8125 69.5 101.8125 C56.96 101.8125 44.42 101.8125 31.5 101.8125 C31.314375 96.65625 31.12875 91.5 30.9375 86.1875 C30.81459595 83.76349854 30.81459595 83.76349854 30.68920898 81.29052734 C30.50816976 70.9459849 30.50816976 70.9459849 33.45556641 67.57763672 C35.87890625 66.015625 35.87890625 66.015625 38.30688477 64.90332031 C41.96733219 63.08267252 42.87419661 60.47055762 44.5 56.8125 C46.31190388 50.77282041 46.52581339 44.29659193 43.875 38.5 C40.77122963 33.0711437 36.45903818 29.76195678 30.5 27.8125 C23.16512879 26.97998774 16.21067563 26.65636342 10.1171875 31.24609375 C5.29376115 35.91805986 2.37834654 40.68693784 2.25 47.5 C2.33381765 54.6873637 4.34339504 60.65589504 9.5 65.8125 C10.69367698 66.55879777 11.90893054 67.27139644 13.140625 67.953125 C14.24921875 68.56671875 15.3578125 69.1803125 16.5 69.8125 C16.72348446 74.95340673 16.88623366 80.09145598 16.99438477 85.23608398 C17.03948437 86.98332997 17.10078711 88.73023925 17.17895508 90.47631836 C17.8169591 105.10037142 17.8169591 105.10037142 14.53344727 109.36914062 C12.1015625 111.16015625 12.1015625 111.16015625 9.61450195 112.58081055 C6.74605574 114.2516697 6.25312269 116.08392261 5.3125 119.1875 C3.96875 121.77734375 3.96875 121.77734375 1.5 123.8125 C-4.95164328 125.16194197 -11.68372135 124.82165139 -18.23510742 124.53881836 C-20.55626868 124.63344273 -20.55626868 124.63344273 -22.2824707 126.10375977 C-24.30673011 128.94470454 -23.85997722 131.45271257 -23.5 134.8125 C-21.95671009 136.8800955 -21.0448851 137.6942847 -18.50708008 138.24487305 C-17.39949341 138.28414917 -17.39949341 138.28414917 -16.26953125 138.32421875 C-15.18442261 138.37388794 -15.18442261 138.37388794 -14.07739258 138.42456055 C-13.16497803 138.44945557 -12.25256348 138.47435059 -11.3125 138.5 C-6.9503125 138.6546875 -6.9503125 138.6546875 -2.5 138.8125 C-2.5 146.4025 -2.5 153.9925 -2.5 161.8125 C-13.5 161.8125 -13.5 161.8125 -17.875 158.5625 C-19.09935608 157.32818981 -20.30947904 156.07947644 -21.5 154.8125 C-26.38052417 150.62919357 -30.46178916 147.78623137 -37 147.6875 C-40.07412846 147.45616926 -41.11357771 147.25788344 -43.1640625 144.89453125 C-44.14174601 143.29207138 -45.09489818 141.67439678 -46.0234375 140.04296875 C-48.28847203 136.62144833 -50.81758811 135.51207472 -54.5 133.8125 C-55.16 133.4825 -55.82 133.1525 -56.5 132.8125 C-63.75161864 132.09350098 -69.93126201 131.90157151 -75.921875 136.39453125 C-81.24248672 141.1751799 -84.54102468 146.89613865 -85 154.125 C-84.76133291 159.71935667 -82.80703827 164.32709177 -79.5 168.8125 C-73.81247293 173.73305757 -68.49652011 176.15847399 -60.984375 176.109375 C-57.44724271 175.68669881 -54.60947195 174.36723598 -51.4453125 172.78515625 C-49.5 171.8125 -49.5 171.8125 -46.5 170.8125 C-45.43283296 169.01317421 -45.43283296 169.01317421 -44.5 166.8125 C-43.25 164.0625 -43.25 164.0625 -41.5 161.8125 C-37.7368432 161.26589622 -36.06432957 161.40989903 -32.9375 163.640625 C-32.133125 164.43984375 -31.32875 165.2390625 -30.5 166.0625 C-23.6501967 172.61359007 -18.98934796 175.75355105 -9.3125 176.375 C-7.064375 176.519375 -4.81625 176.66375 -2.5 176.8125 C-2.5 181.7625 -2.5 186.7125 -2.5 191.8125 C-14.53923693 191.92833311 -26.57834136 192.01718486 -38.61802197 192.07156086 C-44.20852015 192.09765829 -49.7986372 192.13305972 -55.38891602 192.18969727 C-60.78354451 192.24401076 -66.17780634 192.27391943 -71.57268715 192.28688622 C-73.63122646 192.29612721 -75.68974562 192.31417281 -77.74812889 192.34115028 C-80.6309488 192.37743144 -83.51225232 192.38244569 -86.39526367 192.38012695 C-87.67272713 192.40709152 -87.67272713 192.40709152 -88.97599792 192.43460083 C-93.07447444 192.39891485 -95.03537231 192.12008165 -98.53059387 189.80625916 C-101.06185847 185.95840042 -101.19031859 182.80300134 -101.11523438 178.34472656 C-101.12078339 177.50323563 -101.1263324 176.66174469 -101.13204956 175.79475403 C-101.14385269 173.01363016 -101.1195403 170.23413512 -101.09375 167.453125 C-101.09203709 165.50559564 -101.09210641 163.55806398 -101.09387207 161.61053467 C-101.09221774 157.52154559 -101.07351774 153.43310393 -101.04199219 149.34423828 C-101.00263048 144.15000658 -100.99790971 138.95650205 -101.00545502 133.76214981 C-101.00855618 129.73300741 -100.99628864 125.70402271 -100.97932434 121.67491913 C-100.97237561 119.76313013 -100.96915973 117.85132323 -100.97001648 115.93952179 C-100.94746207 82.77454595 -91.3273232 52.55642968 -67.75 28.5625 C-55.20102432 16.23141212 -18.06187615 -12.35199272 0 0 Z " fill="#EDF0F9" transform="translate(204.5,305.1875)"/>
<path d="M0 0 C0.86931937 -0.00170885 1.73863874 -0.0034177 2.63430113 -0.00517833 C5.52235442 -0.00845014 8.41017093 0.00249213 11.29820251 0.01345825 C13.37832127 0.01402287 15.45844043 0.01370483 17.53855896 0.01257324 C23.16804692 0.01200069 28.79744922 0.0237393 34.42691731 0.03772116 C40.31657935 0.05024471 46.20624346 0.0514003 52.09591675 0.05377197 C63.24104082 0.05998196 74.38612554 0.07638629 85.5312323 0.09647095 C98.22285063 0.11884491 110.91447086 0.12982715 123.60610402 0.13986182 C149.7065356 0.16075292 175.80693228 0.19591957 201.90733337 0.24050903 C201.90733337 0.57050903 201.90733337 0.90050903 201.90733337 1.24050903 C201.18987505 1.23736663 200.47241673 1.23422422 199.73321724 1.2309866 C182.24634203 1.15749936 164.7601054 1.13392008 147.27310371 1.16535091 C138.81630915 1.17935737 130.36014258 1.17669869 121.90342712 1.13430786 C114.52932874 1.09738667 107.15599629 1.09224344 99.781865 1.12467963 C95.87981206 1.14074893 91.97919494 1.14129915 88.07725906 1.1037426 C84.39766332 1.06882951 80.72053989 1.07669113 77.04101372 1.11613846 C75.06046579 1.12659038 73.07983576 1.09278999 71.09957886 1.05726624 C62.85332281 1.2000891 58.72629782 2.99946354 52.95998955 8.93859196 C51.94392474 10.07804091 51.94392474 10.07804091 50.90733337 11.24050903 C50.24300356 11.92614394 49.57867374 12.61177885 48.89421272 13.31819057 C43.81501606 18.58072809 40.4036879 24.86417859 36.90733337 31.24050903 C37.83458221 30.99848503 37.83458221 30.99848503 38.78056335 30.75157166 C43.17132522 30.03391278 47.49329196 30.07612743 51.93565369 30.06350708 C53.44660614 30.05365028 53.44660614 30.05365028 54.98808289 30.04359436 C58.32054223 30.02389478 61.65295639 30.01220125 64.98545837 30.00222778 C66.12910606 29.99815226 67.27275375 29.99407673 68.45105743 29.9898777 C74.51362933 29.96902332 80.57617869 29.95472327 86.63877869 29.94534302 C92.86205211 29.93432748 99.08496316 29.89998185 105.30810928 29.86017132 C110.12468569 29.83385018 114.94117815 29.82563712 119.75782013 29.82206154 C122.04923172 29.81722934 124.34064043 29.8057132 126.6319809 29.78702354 C148.69653298 29.61835111 169.8391257 32.21387413 187.90733337 46.24050903 C191.90733337 50.61213065 191.90733337 50.61213065 191.90733337 54.30300903 C190.74089388 57.72942505 189.94307815 59.24330852 186.90733337 61.24050903 C181.12450461 61.46728663 177.68104075 58.98930073 173.15733337 55.79519653 C162.29062173 48.28660064 149.9945091 46.10156149 137.02500916 46.06350708 C136.04521591 46.05693588 135.06542267 46.05036469 134.05593872 46.04359436 C130.82150686 46.0239286 127.58712143 46.01221024 124.35264587 46.00222778 C123.24176479 45.99815226 122.13088371 45.99407673 120.98633957 45.9898777 C115.09998005 45.96903998 109.21364364 45.95473145 103.32725525 45.94534302 C97.28438904 45.93431718 91.24189496 45.89995463 85.19915962 45.86017132 C80.52159501 45.83386225 75.8441169 45.82563829 71.16648483 45.82206154 C68.94123208 45.81722806 66.71598233 45.80570814 64.49080276 45.78702354 C43.39598102 45.62098053 25.25559845 47.64227488 9.25889587 62.82644653 C-3.79151126 76.22370834 -8.52155492 89.62544199 -8.45619202 108.11062622 C-8.19799585 123.22600356 -2.99275029 137.34042536 7.90733337 148.24050903 C21.15245287 159.38798517 35.26998769 165.74214275 52.69615173 165.62869263 C53.71236099 165.63394958 54.72857025 165.63920654 55.77557373 165.6446228 C59.09960283 165.65771262 62.42314405 165.64912314 65.74717712 165.63894653 C68.07925507 165.64097058 70.4113324 165.64388478 72.7434082 165.64764404 C77.61769164 165.65205264 82.4918095 165.6456841 87.36607361 165.63162231 C93.58739646 165.6145411 99.80833066 165.62437455 106.02963924 165.64233971 C110.84173464 165.65322525 115.65373922 165.64970919 120.46583748 165.64195633 C122.75856638 165.63996701 125.05130375 165.6423686 127.34402275 165.64939499 C143.88306693 165.85068117 143.88306693 165.85068117 159.90733337 162.24050903 C161.05588806 161.86410278 162.20444275 161.48769653 163.38780212 161.09988403 C170.11344691 158.34363134 175.47921213 155.06901224 180.90733337 150.24050903 C181.51061462 149.74164185 182.11389587 149.24277466 182.73545837 148.72879028 C191.80565081 140.61873083 198.33804229 127.19441327 199.90733337 115.24050903 C200.09650596 111.82300971 200.13786132 108.41272183 200.15733337 104.99050903 C200.17795837 104.09976685 200.19858337 103.20902466 200.21983337 102.29129028 C200.25285675 96.60301426 199.47060062 91.90127698 197.55479431 86.5383606 C196.83099684 83.96958917 196.69245293 81.89731285 196.90733337 79.24050903 C198.46983337 76.92800903 198.46983337 76.92800903 200.90733337 75.24050903 C204.40733337 74.74050903 204.40733337 74.74050903 207.90733337 75.24050903 C213.7364296 79.82051321 214.92389635 87.23102603 215.90733337 94.24050903 C217.51759261 115.34338006 214.40990867 134.6349694 201.12998962 151.65066528 C187.14126401 167.95035787 169.6218138 179.06430032 147.90733337 181.24050903 C144.43024419 181.38016472 140.95693774 181.37726662 137.47740173 181.36990356 C135.93950737 181.37253204 135.93950737 181.37253204 134.37054443 181.37521362 C130.99607123 181.37959946 127.62165082 181.37670587 124.24717712 181.37332153 C121.89500926 181.37399546 119.54284146 181.37496623 117.19067383 181.3762207 C112.26736283 181.3776932 107.34407 181.37555729 102.42076111 181.37088013 C96.11365534 181.36517998 89.80659209 181.36846651 83.49948788 181.37445259 C78.64476196 181.37806759 73.79004612 181.37691534 68.9353199 181.3743248 C66.60972145 181.37365829 64.28412208 181.37447429 61.9585247 181.37680435 C58.70828201 181.37934658 55.45810806 181.37546819 52.20787048 181.36990356 C51.24926117 181.3719278 50.29065186 181.37395203 49.30299377 181.3760376 C44.72238465 181.36152519 40.41415424 181.18140862 35.90733337 180.24050903 C42.93335783 192.01843409 50.3616447 201.8968618 62.29014587 209.18191528 C62.82381775 209.53125122 63.35748962 209.88058716 63.90733337 210.24050903 C63.90733337 210.57050903 63.90733337 210.90050903 63.90733337 211.24050903 C54.44894688 211.31031477 44.99065038 211.36347447 35.53206158 211.39594555 C31.13907395 211.41153758 26.74626381 211.43265629 22.3533783 211.46682739 C18.10638521 211.49965328 13.85956181 211.51741053 9.61245155 211.52514076 C7.99989466 211.5306429 6.38734605 211.54138611 4.77486229 211.5576992 C-12.39575791 211.72434987 -26.088125 208.62256898 -38.83876038 196.49050903 C-39.58254944 195.74800903 -40.3263385 195.00550903 -41.09266663 194.24050903 C-41.68176819 193.66300903 -42.27086975 193.08550903 -42.87782288 192.49050903 C-52.71444585 182.02494597 -55.55543977 167.03687227 -55.49671936 153.18240356 C-55.50358261 152.03125061 -55.51044586 150.88009766 -55.51751709 149.69406128 C-55.53569303 145.9203529 -55.53196038 142.14706394 -55.52626038 138.37332153 C-55.53082671 135.72975531 -55.53613362 133.08619028 -55.54214478 130.44262695 C-55.55214038 124.91346282 -55.54890997 119.3844159 -55.53871155 113.85525513 C-55.52723994 107.49594818 -55.54130221 101.13706346 -55.56810802 94.77781212 C-55.59037943 89.28525837 -55.59687674 83.79283603 -55.59103161 78.3002404 C-55.58768744 75.03413976 -55.59165499 71.76836612 -55.60728264 68.50229263 C-55.71471359 42.37028515 -55.71471359 42.37028515 -51.09266663 32.24050903 C-50.71456345 31.40577057 -50.33646027 30.5710321 -49.94689941 29.71099854 C-43.6208476 16.60633911 -31.57883788 7.08079936 -18.09266663 2.24050903 C-12.00779879 0.56666821 -6.29313828 -0.04612859 0 0 Z " fill="#67A0DD" transform="translate(159.09266662597656,44.759490966796875)"/>
<path d="M0 0 C1.79763039 -0.01279495 1.79763039 -0.01279495 3.63157654 -0.02584839 C4.94844452 -0.02494202 6.2653125 -0.02403564 7.62208557 -0.02310181 C9.02176269 -0.02908589 10.4214365 -0.03589116 11.82110596 -0.04345703 C15.62741536 -0.06114833 19.43363487 -0.06581405 23.23998141 -0.0670886 C25.62158628 -0.06851035 28.00316833 -0.07278066 30.38476753 -0.07808304 C38.70444817 -0.096602 47.02406469 -0.10475236 55.34376526 -0.10317993 C63.07866922 -0.10198184 70.81329262 -0.12301367 78.54812568 -0.15466726 C85.20056124 -0.18091326 91.85290575 -0.19154357 98.50539261 -0.19026911 C102.47299901 -0.1897614 106.4403568 -0.19533636 110.4079113 -0.21662521 C114.14841854 -0.23614537 117.88844387 -0.23603936 121.62896919 -0.22159195 C123.63768503 -0.21853902 125.64640162 -0.23508836 127.65504456 -0.25247192 C142.09547177 -0.15348472 154.22901445 4.62589867 164.94068909 14.39242554 C175.45498288 25.64145312 179.71207665 37.6631429 179.67311096 52.70932007 C179.68158051 53.92524338 179.69005005 55.14116669 179.69877625 56.39393616 C179.71807228 59.7064708 179.7239298 63.01844008 179.72202873 66.33099222 C179.72190829 69.11113423 179.73050303 71.89122474 179.73880625 74.67135227 C179.75799288 81.2418237 179.76094278 87.81216815 179.75416565 94.38265991 C179.74754046 101.12253125 179.7703381 107.86185315 179.80747938 114.60161316 C179.83835661 120.41942235 179.84951672 126.23705653 179.84564257 132.05494583 C179.84359216 135.51569247 179.84878383 138.97601205 179.87353516 142.43667984 C179.99635045 163.71041092 178.96295295 179.75803406 163.94068909 196.01742554 C151.34448711 207.96694751 136.75721763 210.38666802 120.1486969 210.50790405 C118.83885834 210.52090042 117.52901978 210.53389679 116.17948914 210.54728699 C104.13727766 210.66283972 92.09427095 210.71978453 80.05160904 210.7640543 C71.1648323 210.79728577 62.27907516 210.85687837 53.39273572 210.95156533 C47.12582196 211.01606468 40.85918493 211.04961566 34.59195209 211.06080383 C30.85706983 211.06833332 27.1234242 211.08924741 23.38890839 211.14383125 C19.21705843 211.20409635 15.04753592 211.2002885 10.8752594 211.1914978 C9.65410431 211.21868896 8.43294922 211.24588013 7.17478943 211.27389526 C-1.94354802 211.17518152 -6.99340546 208.25431982 -13.74681091 202.26742554 C-14.74196716 201.41535522 -15.73712341 200.56328491 -16.76243591 199.68539429 C-22.35423909 194.10336699 -27.06245601 188.29453953 -30.74681091 181.26742554 C-30.74681091 180.60742554 -30.74681091 179.94742554 -30.74681091 179.26742554 C-30.18341979 179.27019092 -29.62002867 179.2729563 -29.03956509 179.27580547 C-15.26475402 179.34236053 -1.48997152 179.39165644 12.28496647 179.42286205 C18.94672567 179.43846426 25.60833693 179.45960237 32.27003479 179.4937439 C38.7085833 179.52653224 45.14702007 179.54431944 51.58564568 179.55205727 C54.03221328 179.55756597 56.47877533 179.56832233 58.92529488 179.58461571 C85.97410456 179.75746004 108.21143885 176.00448701 128.25318909 156.26742554 C143.28260002 141.26831583 148.49904087 122.51214396 148.57667542 101.84237671 C148.47954352 93.55172208 148.02016249 83.2455784 142.81959534 76.37289429 C141.13016905 74.9550988 141.13016905 74.9550988 138.00318909 75.26742554 C133.43434803 74.04906792 133.04658254 72.99265381 130.62818909 69.07992554 C130.0571344 68.08992554 129.48607971 67.09992554 128.89772034 66.07992554 C126.97091918 62.78468365 124.78596728 60.10720715 122.25318909 57.26742554 C122.91318909 56.27742554 123.57318909 55.28742554 124.25318909 54.26742554 C124.55936638 51.33457681 124.55936638 51.33457681 123.25318909 48.26742554 C113.42794569 37.6257579 95.14212732 32.10890913 81.25318909 30.26742554 C77.62933524 30.12744236 74.00872914 30.14107301 70.38258362 30.15390015 C69.29906113 30.15375412 68.21553864 30.15360809 67.09918213 30.15345764 C63.52810138 30.1541527 59.95707319 30.16192607 56.38600159 30.16976929 C53.90592986 30.17163491 51.42585775 30.17305813 48.94578552 30.17405701 C42.42578612 30.1778708 35.90580907 30.18769139 29.38581848 30.19876099 C22.72963381 30.20954149 16.07344262 30.21355987 9.41725159 30.21859741 C-3.63744544 30.22931467 -16.69212699 30.24618458 -29.74681091 30.26742554 C-26.11544011 18.85272169 -13.10072724 0.04207692 0 0 Z " fill="#92BBE7" transform="translate(225.74681091308594,45.732574462890625)"/>
<path d="M0 0 C1.00803177 -0.00671722 2.01606354 -0.01343445 3.05464172 -0.02035522 C6.35996548 -0.03922302 9.66508485 -0.0432542 12.97045898 -0.04541016 C15.29198791 -0.05184742 17.61351605 -0.05857645 19.93504333 -0.06558228 C24.79427976 -0.07752821 29.65344525 -0.08126602 34.51269531 -0.08007812 C40.69661718 -0.07987546 46.88007683 -0.10713638 53.0638895 -0.14162254 C57.85902435 -0.16401819 62.65405034 -0.16791175 67.4492321 -0.16685867 C69.72667973 -0.1691972 72.00413118 -0.17792034 74.28152657 -0.19352341 C96.27952648 -0.33009385 117.39643801 2.31093171 135.40405273 16.29052734 C139.40405273 20.66214897 139.40405273 20.66214897 139.40405273 24.35302734 C138.23761324 27.77944336 137.43979751 29.29332683 134.40405273 31.29052734 C128.62122397 31.51730494 125.17776011 29.03931904 120.65405273 25.84521484 C109.78734109 18.33661895 97.49122846 16.1515798 84.52172852 16.11352539 C83.54193527 16.10695419 82.56214203 16.100383 81.55265808 16.09361267 C78.31822622 16.07394692 75.08384079 16.06222855 71.84936523 16.05224609 C70.73848415 16.04817057 69.62760307 16.04409504 68.48305893 16.03989601 C62.59669941 16.01905829 56.710363 16.00474976 50.82397461 15.99536133 C44.7811084 15.98433549 38.73861432 15.94997294 32.69587898 15.91018963 C28.01831437 15.88388056 23.34083626 15.8756566 18.66320419 15.87207985 C16.43795144 15.86724637 14.21270169 15.85572645 11.98752213 15.83704185 C-9.10729962 15.67099884 -27.24768219 17.69229319 -43.24438477 32.87646484 C-56.2947919 46.27372665 -61.02483556 59.6754603 -60.95947266 78.16064453 C-60.70127649 93.27602187 -55.49603093 107.39044368 -44.59594727 118.29052734 C-31.35082777 129.43800348 -17.23329295 135.79216106 0.19287109 135.67871094 C1.20908035 135.6839679 2.22528961 135.68922485 3.27229309 135.69464111 C6.59632219 135.70773093 9.91986341 135.69914145 13.24389648 135.68896484 C15.57597443 135.6909889 17.90805176 135.69390309 20.24012756 135.69766235 C25.11441101 135.70207095 29.98852887 135.69570241 34.86279297 135.68164062 C41.08411582 135.66455941 47.30505002 135.67439286 53.5263586 135.69235802 C58.338454 135.70324356 63.15045858 135.6997275 67.96255684 135.69197464 C70.25528574 135.68998532 72.54802311 135.69238692 74.84074211 135.6994133 C91.37978629 135.90069948 91.37978629 135.90069948 107.40405273 132.29052734 C108.55260742 131.91412109 109.70116211 131.53771484 110.88452148 131.14990234 C117.61016627 128.39364965 122.97593149 125.11903055 128.40405273 120.29052734 C129.00733398 119.79166016 129.61061523 119.29279297 130.23217773 118.77880859 C139.30237018 110.66874914 145.83476165 97.24443158 147.40405273 85.29052734 C147.59322532 81.87302802 147.63458068 78.46274014 147.65405273 75.04052734 C147.67467773 74.14978516 147.69530273 73.25904297 147.71655273 72.34130859 C147.74957611 66.65303257 146.96731998 61.95129529 145.05151367 56.58837891 C144.3277162 54.01960748 144.18917229 51.94733116 144.40405273 49.29052734 C145.96655273 46.97802734 145.96655273 46.97802734 148.40405273 45.29052734 C151.90405273 44.79052734 151.90405273 44.79052734 155.40405273 45.29052734 C161.23314896 49.87053152 162.42061571 57.28104434 163.40405273 64.29052734 C165.01431197 85.39339837 161.90662803 104.68498771 148.62670898 121.70068359 C134.61722002 138.02456968 117.13041585 149.07147413 95.40405273 151.29052734 C91.98559266 151.44256242 88.57017912 151.45773472 85.14868164 151.4675293 C84.14108795 151.47410049 83.13349426 151.48067169 82.09536743 151.48744202 C78.77378245 151.50708553 75.45224261 151.51882077 72.13061523 151.52880859 C70.41789492 151.53492188 70.41789492 151.53492188 68.67057419 151.54115868 C62.62096084 151.56198634 56.57136991 151.57629954 50.52172852 151.58569336 C44.31420669 151.59672077 38.10704695 151.63108816 31.89965248 151.67086506 C27.09165848 151.6971821 22.2837486 151.70539876 17.47568893 151.70897484 C15.18985945 151.71380578 12.90403283 151.72531817 10.61827469 151.74401283 C-15.95183783 151.94773192 -37.04773265 146.62135313 -56.90454102 128.14208984 C-72.96719966 111.29665057 -77.21462033 90.53287124 -76.93579102 68.03662109 C-76.66861766 60.00035691 -75.10081599 53.58420352 -71.59594727 46.29052734 C-71.07645508 45.16904297 -70.55696289 44.04755859 -70.02172852 42.89208984 C-60.32933742 23.50730765 -44.52126488 10.52825763 -24.28344727 3.36865234 C-16.15069789 0.99085698 -8.46148611 -0.00825967 0 0 Z " fill="#020303" transform="translate(211.595947265625,74.70947265625)"/>
<path d="M0 0 C1.28218414 -0.02398109 1.28218414 -0.02398109 2.590271 -0.04844666 C3.50697571 -0.05380936 4.42368042 -0.05917206 5.36816406 -0.06469727 C6.79615326 -0.07823997 6.79615326 -0.07823997 8.25299072 -0.09205627 C10.26693583 -0.10655406 12.28092798 -0.11544434 14.29492188 -0.11914062 C17.35921831 -0.13100836 20.42148167 -0.18017432 23.48535156 -0.23071289 C25.44627928 -0.24018108 27.40721932 -0.24741422 29.36816406 -0.25219727 C30.73107574 -0.28149574 30.73107574 -0.28149574 32.121521 -0.31138611 C39.23078411 -0.26157257 43.95535582 1.83264284 49.12420654 6.71388245 C56.01651855 14.3643615 56.05288886 21.63872675 55.92675781 31.45874023 C55.92373657 32.57220825 55.92071533 33.68567627 55.91760254 34.83288574 C55.90197278 38.96998437 55.86008903 43.10695028 55.82128906 47.24389648 C55.75941406 56.50452148 55.69753906 65.76514648 55.63378906 75.30639648 C30.55378906 75.30639648 5.47378906 75.30639648 -20.36621094 75.30639648 C-20.44871094 65.90139648 -20.53121094 56.49639648 -20.61621094 46.80639648 C-20.65262695 43.8512207 -20.68904297 40.89604492 -20.7265625 37.85131836 C-20.73825183 35.49260178 -20.74844307 33.1338771 -20.75683594 30.77514648 C-20.7772998 29.56375 -20.79776367 28.35235352 -20.81884766 27.10424805 C-20.82220471 18.93317957 -19.96944668 13.34596155 -14.36621094 7.06420898 C-13.70621094 6.52538086 -13.04621094 5.98655273 -12.36621094 5.43139648 C-11.70621094 4.87709961 -11.04621094 4.32280273 -10.36621094 3.75170898 C-6.92411678 1.26425813 -4.27286761 0.06072647 0 0 Z " fill="#91BAE6" transform="translate(237.3662109375,421.693603515625)"/>
<path d="M0 0 C5.69064517 4.38416515 7.41866419 10.30423434 9.8359375 16.88671875 C10.27837799 18.05773636 10.72081848 19.22875397 11.17666626 20.43525696 C12.3509073 23.55005603 13.5133783 26.66872899 14.67010498 29.79003906 C15.82564459 32.9005608 16.99547083 36.00569105 18.1640625 39.11132812 C19.52588964 42.73058132 20.88502718 46.35066383 22.23309326 49.97506714 C24.16959715 55.17715593 26.12422042 60.36364326 28.22363281 65.50244141 C28.5550528 66.31985306 28.88647278 67.13726471 29.22793579 67.97944641 C29.82390722 69.43739555 30.43081296 70.89095742 31.05209351 72.33830261 C33.02281837 77.1724124 33.43863378 80.86839411 33 86 C30.61542223 88.72523173 28.99466605 89.75133349 25.5 90.625 C22.47155107 89.86788777 21.07208935 88.52491696 19.203125 86.05859375 C16.67055217 81.72526296 14 76.08836763 14 71 C2.12 71.33 -9.76 71.66 -22 72 C-23.98 76.95 -25.96 81.9 -28 87 C-32 90 -32 90 -34.4375 90.5 C-38.33771198 89.73898303 -39.7261775 88.21010235 -42 85 C-41.83510338 77.59933343 -39.02244894 71.16408845 -36.3359375 64.34765625 C-35.86564117 63.13411972 -35.39534485 61.92058319 -34.91079712 60.67027283 C-33.66235437 57.44980824 -32.40276891 54.23381353 -31.14099121 51.01855469 C-29.88205312 47.80369828 -28.63519429 44.58416454 -27.38671875 41.36523438 C-25.03181392 35.29989094 -22.65191598 29.24467898 -20.25915527 23.19415283 C-19.11822985 20.2999187 -17.99163804 17.40054992 -16.86816406 14.49951172 C-16.25933455 12.9563618 -15.64971304 11.41352396 -15.0390625 9.87109375 C-14.78240814 9.1969191 -14.52575378 8.52274445 -14.26132202 7.82814026 C-11.64388065 1.32072964 -7.22295471 -2.04448625 0 0 Z " fill="#040404" transform="translate(244,106)"/>
<path d="M0 0 C0 24.75 0 49.5 0 75 C-15.46487777 75 -24.23677351 74.49466229 -35 64 C-38.36024637 59.83898223 -40.87207338 55.36744547 -43.1875 50.5625 C-44.71820012 46.83393774 -44.71820012 46.83393774 -48 45 C-49.65549531 44.61500109 -51.3222433 44.27206865 -53 44 C-53.3690205 30.3667426 -53.3690205 30.3667426 -51 24 C-49.39125 23.9071875 -49.39125 23.9071875 -47.75 23.8125 C-42.5932425 22.69520254 -41.56612516 20.3867147 -38.77734375 16.13671875 C-28.81202904 1.84107229 -16.91508365 0 0 0 Z " fill="#49659F" transform="translate(89,113)"/>
<path d="M0 0 C15.14173686 0 25.08313804 1.18682248 35.6796875 11.66015625 C43.24154471 19.91800529 46.64490521 29.86824644 46.3671875 41.0078125 C45.05463663 51.70370574 39.91007045 59.89951729 32 67 C29.44896911 68.9899959 26.89395504 70.56179204 24 72 C22.845 72.598125 21.69 73.19625 20.5 73.8125 C16 75 16 75 0 75 C0 50.25 0 25.5 0 0 Z " fill="#667AA6" transform="translate(420,113)"/>
<path d="M0 0 C0.98157578 -0.00861557 1.96315155 -0.01723114 2.97447205 -0.02610779 C6.19948152 -0.04869709 9.42361704 -0.04204147 12.64868164 -0.03295898 C14.9025549 -0.03819774 17.15642595 -0.04447514 19.41029358 -0.05174255 C24.12682434 -0.06213388 28.84305315 -0.05760338 33.55957031 -0.04296875 C39.58980243 -0.02578513 45.61908132 -0.04927865 51.64920712 -0.08445835 C56.3016638 -0.10646791 60.95389367 -0.10498213 65.60638618 -0.09669304 C67.82903654 -0.09587544 70.05170386 -0.10270201 72.27430534 -0.11746407 C75.38788524 -0.13497473 78.49976813 -0.1203121 81.61328125 -0.09765625 C82.52213074 -0.10934845 83.43098022 -0.12104065 84.36737061 -0.13308716 C91.85737301 -0.02275864 97.701793 2.39780126 103.06274414 7.70141602 C103.51520508 8.36786133 103.96766602 9.03430664 104.43383789 9.72094727 C104.90950195 10.39512695 105.38516602 11.06930664 105.87524414 11.76391602 C106.87133789 13.53344727 106.87133789 13.53344727 106.87133789 15.53344727 C63.31133789 15.53344727 19.75133789 15.53344727 -25.12866211 15.53344727 C-24.22428055 11.91592105 -23.81225956 10.72631615 -21.56616211 8.03344727 C-21.11112305 7.46625977 -20.65608398 6.89907227 -20.18725586 6.31469727 C-14.02827759 0.98548647 -7.94267579 -0.05690464 0 0 Z " fill="#EEF0F9" transform="translate(214.128662109375,14.466552734375)"/>
<path d="M0 0 C19.8 0 39.6 0 60 0 C60 8.91 60 17.82 60 27 C45.35880399 30.37873754 45.35880399 30.37873754 39.22265625 30.36328125 C38.56398056 30.36377975 37.90530487 30.36427826 37.22666931 30.36479187 C35.85656664 30.36248887 34.48645657 30.35299047 33.11645508 30.33618164 C31.06746867 30.31255729 29.01979208 30.31565487 26.97070312 30.32226562 C3.2708066 30.2708066 3.2708066 30.2708066 0 27 C0 18.09 0 9.18 0 0 Z " fill="#677CA9" transform="translate(225,271)"/>
<path d="M0 0 C3.23861054 0.94485375 4.23058667 2.80266234 6.03515625 5.59375 C6.42224163 8.31190617 6.58353969 10.62179461 6.55273438 13.33398438 C6.56324829 14.47883049 6.56324829 14.47883049 6.57397461 15.64680481 C6.59152866 18.16074388 6.5799418 20.67355019 6.56640625 23.1875 C6.56910193 24.93957739 6.57298498 26.69165331 6.57800293 28.44372559 C6.58389444 32.11220572 6.57534638 35.78029575 6.55664062 39.44873047 C6.53385107 44.14653322 6.54697604 48.84342187 6.57093048 53.5411911 C6.58539796 57.15808984 6.58077816 60.77477254 6.57041931 64.39167786 C6.56775464 66.12360238 6.57101266 67.85554665 6.58033752 69.58744812 C6.59051907 72.00999763 6.57498132 74.43107548 6.55273438 76.85351562 C6.5608313 77.56639236 6.56892822 78.2792691 6.57727051 79.01374817 C6.49614532 83.79213023 5.46678634 86.27155509 2.03515625 89.59375 C-0.90234375 90.65625 -0.90234375 90.65625 -3.96484375 90.59375 C-6.61779785 89.09144592 -6.61779785 89.09144592 -8.96484375 86.59375 C-9.45919146 83.72067561 -9.6303722 81.43871561 -9.58007812 78.56811523 C-9.58562714 77.76280365 -9.59117615 76.95749207 -9.59689331 76.1277771 C-9.60869424 73.46869204 -9.58441343 70.81130931 -9.55859375 68.15234375 C-9.55688286 66.30436786 -9.55694811 64.45638954 -9.55871582 62.6084137 C-9.55706239 58.73715979 -9.53835871 54.86648485 -9.50683594 50.99536133 C-9.46713038 46.02951927 -9.46279367 41.0644347 -9.47029877 36.09846401 C-9.47336574 32.28348329 -9.46125814 28.46867337 -9.44416809 24.65373421 C-9.43713009 22.82248061 -9.43401453 20.99120765 -9.43486023 19.15994072 C-9.43306567 16.60293338 -9.41171491 14.04683988 -9.38476562 11.48999023 C-9.38769623 10.73094894 -9.39062683 9.97190765 -9.39364624 9.18986511 C-9.34597845 6.26373133 -9.30943293 4.12194949 -7.68469238 1.63148499 C-5.2465946 0.16036752 -2.79633887 0.12931047 0 0 Z " fill="#070707" transform="translate(301.96484375,105.40625)"/>
<path d="M0 0 C4.34366872 2.20895973 6.96862512 4.83254776 9.078125 9.3046875 C9.97098322 14.95607418 9.32406568 19.49174097 6.078125 24.3046875 C1.43536448 28.59924098 -2.38299706 29.72905399 -8.5703125 29.6484375 C-12.56298988 29.06479031 -15.14798564 27.15375002 -17.921875 24.3046875 C-20.96659647 19.88493053 -21.8205731 15.58453884 -20.921875 10.3046875 C-19.24972925 5.39773598 -16.48697216 2.25669058 -11.84375 -0.03515625 C-7.74658739 -1.44251495 -4.08163318 -1.47668843 0 0 Z " fill="#FA6C7D" transform="translate(448.921875,15.6953125)"/>
<path d="M0 0 C4.9710149 2.53240382 8.49430567 5.98861134 11 11 C11.40399154 16.25189007 10.88990343 19.56881474 8 24 C4.07738726 27.97620035 0.830113 29.84999074 -4.8125 30.3125 C-9.21597578 30.23978205 -11.63091573 28.90966369 -15 26 C-19.12452838 21.54985096 -19.73148092 17.5685384 -19.5234375 11.6953125 C-18.68155342 7.36023774 -16.42083864 4.69116435 -13 2 C-8.76687566 -0.54501605 -4.82597371 -0.67983282 0 0 Z " fill="#F4455C" transform="translate(71,15)"/>
<path d="M0 0 C4.95 0 9.9 0 15 0 C15 9.57 15 19.14 15 29 C5 29 5 29 0 27 C0 18.09 0 9.18 0 0 Z " fill="#49659E" transform="translate(225,271)"/>
<path d="M0 0 C0.66 0 1.32 0 2 0 C3.5686719 4.11093684 5.13519738 8.22268296 6.69970703 12.33520508 C7.23264044 13.7351714 7.76616785 15.13491174 8.30029297 16.53442383 C9.06632935 18.54189394 9.83025102 20.55015746 10.59375 22.55859375 C11.05458984 23.76829834 11.51542969 24.97800293 11.99023438 26.22436523 C13 29 13 29 13 30 C5.08 30 -2.84 30 -11 30 C-7.625 18.75 -7.625 18.75 -5.95703125 14.6484375 C-5.60576172 13.77832031 -5.25449219 12.90820312 -4.89257812 12.01171875 C-4.53615234 11.14160156 -4.17972656 10.27148438 -3.8125 9.375 C-3.44447266 8.46621094 -3.07644531 7.55742187 -2.69726562 6.62109375 C-1.80216521 4.41240441 -0.9030465 2.20544952 0 0 Z " fill="#EBEDF4" transform="translate(239,132)"/>
<path d="M0 0 C3.70864386 0.92716097 5.20985284 2.6150923 7.5 5.625 C8.1767545 9.30955227 7.99791771 10.86816508 5.9375 14 C2.56489221 16.24840519 0.47487617 16.19283945 -3.5 15.625 C-5.9375 14 -5.9375 14 -7.5 11.625 C-8.0625 8.6875 -8.0625 8.6875 -7.5 5.625 C-5.20985284 2.6150923 -3.70864386 0.92716097 0 0 Z " fill="#F3697A" transform="translate(228.5,345.375)"/>
<path d="M0 0 C4.93731454 1.46290801 4.93731454 1.46290801 6.375 4 C6.87073337 7.89504791 6.95516848 10.09493717 4.8125 13.4375 C1.40780512 15.61999672 -0.65930012 15.63734462 -4.625 15 C-7.28606976 12.61186047 -8.40349624 10.98446115 -9.1875 7.5 C-8.02254303 2.32241345 -5.23369904 0 0 0 Z " fill="#F4697A" transform="translate(368.625,444)"/>
<path d="M0 0 C2.9375 2.0625 2.9375 2.0625 5 5 C5.06641554 8.85210127 4.87229157 10.99848005 2.3125 13.9375 C-0.73602877 15.33817538 -2.67926952 15.4842732 -6 15 C-8.375 13.4375 -8.375 13.4375 -10 11 C-10.56783945 7.02512383 -10.62340519 4.93510779 -8.375 1.5625 C-5.24316508 -0.49791771 -3.68455227 -0.6767545 0 0 Z " fill="#F5697B" transform="translate(284,369)"/>
<path d="M0 0 C2.9375 0.5625 2.9375 0.5625 5.3125 2.125 C7.57663895 5.52120843 7.58019755 7.56349302 6.9375 11.5625 C4.51890437 14.25750656 2.92986035 15.36886871 -0.625 16.0625 C-3.94605037 15.3812589 -5.06063654 14.27931469 -7.0625 11.5625 C-8.125 8.625 -8.125 8.625 -8.0625 5.5625 C-5.62045207 2.15843318 -4.15208249 0.7626274 0 0 Z " fill="#F0445A" transform="translate(142.0625,451.4375)"/>
</svg>
