<?xml version="1.0" encoding="UTF-8"?>
<svg version="1.1" xmlns="http://www.w3.org/2000/svg" width="1950" height="400">
<path d="M0 0 C643.5 0 1287 0 1950 0 C1950 132 1950 264 1950 400 C1306.5 400 663 400 0 400 C0 268 0 136 0 0 Z " fill="#FCFDFC" transform="translate(0,0)"/>
<path d="M0 0 C12.87 0 25.74 0 39 0 C39 16.17 39 32.34 39 49 C55.5 49 72 49 89 49 C89 59.89 89 70.78 89 82 C72.5 82 56 82 39 82 C39.06188273 95.77266104 39.06188273 95.77266104 39.16015625 109.54492188 C39.20834779 115.1691917 39.2524461 120.79326871 39.27099609 126.41772461 C39.28623617 130.95671848 39.32081055 135.49520495 39.36830902 140.03397179 C39.38304747 141.75809993 39.39103665 143.48230054 39.39188385 145.20649147 C39.40268757 156.17747691 40.08733745 165.1890689 45.6875 174.9375 C53.71950713 182.10118204 63.36447011 181.64863513 73.5625 181.75 C78.656875 181.8325 83.75125 181.915 89 182 C89 192.56 89 203.12 89 214 C83.0956646 214.04620784 77.19197059 214.08594344 71.28759766 214.10986328 C69.28399516 214.11984748 67.28040695 214.13343955 65.27685547 214.15087891 C46.65775358 214.3087466 29.47211101 214.19008161 15 200.8125 C0.08677014 184.51328224 -0.33176474 161.50076015 -0.1953125 140.69140625 C-0.19157088 138.98648751 -0.18872936 137.28156658 -0.18673706 135.5766449 C-0.17919093 131.14295249 -0.15962283 126.70939632 -0.1373291 122.27575684 C-0.11667344 117.73008058 -0.10769368 113.18438178 -0.09765625 108.63867188 C-0.07636604 99.75904585 -0.0412604 90.8795557 0 82 C-15.345 82.495 -15.345 82.495 -31 83 C-36.39952244 96.43283845 -41.79882822 109.86576395 -47.19776535 123.29883766 C-50.19701706 130.76124128 -53.19648305 138.22355872 -56.19610405 145.6858139 C-58.12964183 150.49612471 -60.06292419 155.30653815 -61.99618912 160.11695862 C-63.41588686 163.64916403 -64.83597142 167.18121377 -66.256073 170.71325684 C-70.15535486 180.41366576 -74.05243848 190.11480045 -77.91455078 199.83007812 C-78.19888977 200.54455801 -78.48322876 201.2590379 -78.77618408 201.99516869 C-80.01517622 205.10873569 -81.251554 208.22322987 -82.48187256 211.34024048 C-85.85229961 219.82152318 -89.59504208 228.00729355 -94 236 C-94.50789063 236.93070313 -95.01578125 237.86140625 -95.5390625 238.8203125 C-103.97132456 253.56549802 -114.424482 262.80816067 -130.5625 268.1875 C-137.64612726 269.8618119 -144.50912596 270.14133913 -151.75 270.09765625 C-152.64871826 270.0962413 -153.54743652 270.09482635 -154.47338867 270.09336853 C-157.31562775 270.08781583 -160.15778513 270.07527237 -163 270.0625 C-164.93880094 270.05747888 -166.87760312 270.05291705 -168.81640625 270.04882812 C-173.54432687 270.03871709 -178.27207306 270.0191328 -183 270 C-183 259.44 -183 248.88 -183 238 C-179.1328125 237.96132813 -179.1328125 237.96132813 -175.1875 237.921875 C-172.66867525 237.88337513 -170.15004975 237.83824074 -167.63134766 237.79248047 C-165.89153686 237.76439297 -164.15160135 237.74311806 -162.41162109 237.72900391 C-159.8987703 237.70740347 -157.38739967 237.66067014 -154.875 237.609375 C-154.10696045 237.60814636 -153.3389209 237.60691772 -152.54760742 237.60565186 C-146.02157041 237.43179232 -140.91776818 235.39502361 -135.86328125 231.24609375 C-131.33439284 225.9642919 -128.55086672 220.45160842 -126 214 C-125.54625 212.9275 -125.0925 211.855 -124.625 210.75 C-123.09985153 204.03934673 -125.99576957 197.95936332 -128.55859375 191.8828125 C-128.93023651 190.98229156 -129.30187927 190.08177063 -129.68478394 189.15396118 C-130.49862737 187.18356726 -131.31597653 185.21461856 -132.13638306 183.24694824 C-134.41319965 177.78387008 -136.66216233 172.30932235 -138.9140625 166.8359375 C-139.39855362 165.66003052 -139.88304474 164.48412354 -140.38221741 163.27258301 C-146.1806783 149.17474696 -151.82552552 135.01566503 -157.47231674 120.85655975 C-159.95250705 114.63807225 -162.43499368 108.42050102 -164.91796875 102.203125 C-165.181915 101.54209652 -165.44586124 100.88106804 -165.71780586 100.20000839 C-171.08673146 86.75651777 -176.51330347 73.33668047 -181.98950195 59.93652344 C-182.27017014 59.24810364 -182.55083832 58.55968384 -182.8400116 57.85040283 C-183.57044748 56.05918515 -184.30294978 54.2688105 -185.03564453 52.47851562 C-186 50 -186 50 -186 49 C-172.47 49 -158.94 49 -145 49 C-142.56705611 54.47412374 -140.18264785 59.9023077 -137.99609375 65.46875 C-137.72026459 66.16653061 -137.44443542 66.86431122 -137.1602478 67.58323669 C-136.2502464 69.88787959 -135.34350614 72.19378373 -134.4375 74.5 C-134.12162933 75.30325714 -133.80575867 76.10651428 -133.48031616 76.93411255 C-131.74748003 81.34188373 -130.01770309 85.75084369 -128.29003906 90.16064453 C-126.70002805 94.21804801 -125.10500302 98.27343904 -123.50683594 102.32763672 C-121.35553358 107.78603987 -119.21316747 113.24788276 -117.07620239 118.71191406 C-116.24242905 120.84011101 -115.40595814 122.96725336 -114.56661987 125.09326172 C-103 154.4112311 -103 154.4112311 -103 163 C-102.34 163 -101.68 163 -101 163 C-100.86899902 162.14341797 -100.73799805 161.28683594 -100.60302734 160.40429688 C-98.64495933 149.16513536 -94.85280326 139.06264232 -90.625 128.5 C-89.49941922 125.64629821 -88.37849636 122.79079188 -87.25761414 119.9352417 C-86.4604729 117.90542234 -85.66186949 115.87617666 -84.8618927 113.84747314 C-79.61281907 100.52290656 -74.53440289 87.133318 -69.4375 73.75 C-66.323125 65.5825 -63.20875 57.415 -60 49 C-40.2 49 -20.4 49 0 49 C0 32.83 0 16.66 0 0 Z " fill="#010101" transform="translate(1465,77)"/>
<path d="M0 0 C4.73405086 4.21965484 6.90525573 8.01413359 10.6875 13.6875 C11.0175 5.4375 11.3475 -2.8125 11.6875 -11.3125 C23.8975 -11.3125 36.1075 -11.3125 48.6875 -11.3125 C48.6875 43.1375 48.6875 97.5875 48.6875 153.6875 C36.4775 153.6875 24.2675 153.6875 11.6875 153.6875 C11.3575 145.7675 11.0275 137.8475 10.6875 129.6875 C9.5325 131.193125 8.3775 132.69875 7.1875 134.25 C-3.486003 147.42510526 -18.61904879 156.02088246 -35.5625 158.375 C-60.63079269 160.49344727 -79.49352882 154.53673773 -98.61328125 138.79296875 C-109.17644556 129.07655108 -115.72569702 116.06694523 -120.3125 102.6875 C-120.78623047 101.33011719 -120.78623047 101.33011719 -121.26953125 99.9453125 C-128.84143474 76.59550175 -126.66928972 50.81493641 -116.3125 28.6875 C-105.31912614 7.86039087 -89.267819 -7.42912239 -66.625 -14.45703125 C-44.08628527 -20.27776064 -17.74521232 -15.22533912 0 0 Z " fill="#010101" transform="translate(1156.3125,137.3125)"/>
<path d="M0 0 C0.88429688 0.38027344 1.76859375 0.76054687 2.6796875 1.15234375 C21.85324867 10.02235569 36.66264285 27.8071273 44.10131836 47.34521484 C48.07817543 58.50897377 49.26567992 68.92431251 49.375 80.6875 C49.38901855 81.72052246 49.40303711 82.75354492 49.41748047 83.81787109 C49.31304227 100.64848816 43.06330967 118.51749631 33 132 C32.6174707 132.5165918 32.23494141 133.03318359 31.84082031 133.56542969 C18.46803351 151.32204573 -1.67455433 163.15904255 -23.7109375 166.68359375 C-49.53108391 169.16747957 -74.4133812 164.24191933 -94.83154297 147.49804688 C-112.43991953 132.02653801 -123.6024044 110.0451398 -125.15966797 86.59570312 C-126.24606852 63.35304227 -120.60749216 39.91103717 -104.92041016 22.10644531 C-77.29407824 -7.92258924 -37.56535662 -16.4287134 0 0 Z " fill="#010101" transform="translate(811,129)"/>
<path d="M0 0 C0.86762466 -0.01268417 1.73524933 -0.02536835 2.62916565 -0.03843689 C3.55325729 -0.03550125 4.47734894 -0.03256561 5.42944336 -0.02954102 C6.3895079 -0.03478287 7.34957245 -0.04002472 8.33872986 -0.04542542 C10.3635054 -0.05183537 12.38831822 -0.05052193 14.41308594 -0.04199219 C17.5123091 -0.03346646 20.60969829 -0.06228347 23.70874023 -0.09399414 C25.67814072 -0.09560588 27.64754448 -0.09502914 29.61694336 -0.09204102 C30.54305923 -0.10327499 31.46917511 -0.11450897 32.4233551 -0.12608337 C33.28782761 -0.11670242 34.15230011 -0.10732147 35.04296875 -0.09765625 C35.80066055 -0.09749008 36.55835236 -0.09732391 37.33900452 -0.09715271 C40.36868671 0.61986764 41.49940809 2.01540095 43.45678711 4.40405273 C43.95933443 6.99182695 43.95933443 6.99182695 43.96294498 9.98915768 C43.97399267 11.13310873 43.98504036 12.27705978 43.99642283 13.45567602 C43.98818206 14.71295415 43.97994129 15.97023228 43.97145081 17.26560974 C43.97677471 18.61431596 43.98383951 19.96301624 43.99249786 21.31170517 C44.01117326 25.02145633 44.00480363 28.73080963 43.99434483 32.44057763 C43.98736658 36.43999434 44.00334028 40.43932818 44.01634216 44.4387207 C44.03801074 52.27522446 44.03784795 60.11158317 44.02971662 67.94810706 C44.02342264 74.31621409 44.02454811 80.68427875 44.03098869 87.05238533 C44.03189035 87.95794288 44.032792 88.86350043 44.03372098 89.79649912 C44.03557214 91.63600334 44.0374347 93.47550755 44.03930854 95.31501175 C44.05589705 112.57444449 44.04715897 129.83379555 44.03032296 147.0932234 C44.0156259 162.89062023 44.03025261 178.68782687 44.05909313 194.48519921 C44.0884715 210.69765868 44.09946391 226.91003033 44.08991092 243.12251526 C44.08888835 244.95564495 44.08789374 246.78877465 44.08692741 248.62190437 C44.08645102 249.52388492 44.08597463 250.42586547 44.08548381 251.35517875 C44.08331757 257.71635187 44.09313493 264.07744202 44.10769844 270.43859673 C44.12519658 278.18985532 44.12514083 285.94087141 44.10234679 293.69212037 C44.09118135 297.64826173 44.08809356 301.60397544 44.10664749 305.56009865 C44.12340878 309.18052951 44.11716176 312.80015829 44.0924307 316.42053676 C44.0852088 318.3532629 44.10261614 320.28603235 44.12084204 322.21868604 C44.01953597 331.56927441 44.01953597 331.56927441 41.05790615 334.60768223 C40.19953687 335.2004845 39.34116758 335.79328676 38.45678711 336.40405273 C37.71557617 336.97510742 36.97436523 337.54616211 36.21069336 338.13452148 C27.92954723 343.64052417 21.43987967 345.23597711 11.45678711 344.40405273 C4.26494089 342.88662419 -4.9574464 338.19187043 -9.54321289 332.40405273 C-9.92156172 329.92535162 -9.92156172 329.92535162 -9.92632294 326.90517426 C-9.93537958 325.75501406 -9.94443622 324.60485387 -9.9537673 323.41984034 C-9.94843937 322.15050323 -9.94311145 320.88116612 -9.93762207 319.57336426 C-9.94250837 318.2158487 -9.94869695 316.85833731 -9.95607996 315.50083303 C-9.97253578 311.762223 -9.9701502 308.02382305 -9.96470499 304.28518939 C-9.96204174 300.25649068 -9.9765532 296.22784887 -9.98880005 292.19917297 C-10.00988539 284.3037385 -10.01439316 276.40837741 -10.01261216 268.51291811 C-10.01130622 262.09805509 -10.01510007 255.68321503 -10.02253723 249.26835632 C-10.02463635 247.42288955 -10.02673395 245.57742278 -10.02883005 243.73195601 C-10.02987358 242.81351721 -10.03091711 241.89507841 -10.03199226 240.94880813 C-10.05090677 223.56737261 -10.04984057 206.18597927 -10.04302293 188.80453771 C-10.03744517 172.88933411 -10.05828063 156.97429136 -10.0913834 141.05912536 C-10.12508159 124.73145283 -10.14029367 108.40385744 -10.13566637 92.07614946 C-10.13341793 82.90370877 -10.1387195 73.73141681 -10.16355896 64.55900574 C-10.18452207 56.75131548 -10.18821388 48.94385551 -10.16925937 41.13615596 C-10.16007089 37.14988467 -10.15905265 33.16404332 -10.17961502 29.17780495 C-10.19821314 25.53216244 -10.19394931 21.88730534 -10.1710692 18.24169379 C-10.16485066 16.2905325 -10.18336475 14.33934147 -10.20260572 12.38826513 C-10.19080039 11.23810494 -10.17899505 10.08794475 -10.16683197 8.90293121 C-10.16710435 7.90627268 -10.16737674 6.90961415 -10.16765738 5.88275385 C-9.54321289 3.40405273 -9.54321289 3.40405273 -7.14453459 1.58460283 C-4.51486723 0.39118871 -2.86082151 0.02037868 0 0 Z " fill="#A2AEDB" transform="translate(225.543212890625,28.595947265625)"/>
<path d="M0 0 C1.61068359 0.54333984 1.61068359 0.54333984 3.25390625 1.09765625 C17.13118003 6.32600333 28.79003896 15.93978171 35.03515625 29.5234375 C37.6744831 36.29806593 38 41.60989066 38 49 C25.46 49 12.92 49 0 49 C-0.99 46.03 -1.98 43.06 -3 40 C-6.14942762 34.66045317 -10.07808062 31.90347409 -16 30 C-25.82375391 28.05744979 -36.1920309 27.22339543 -45.03515625 32.53515625 C-48.11719281 34.83289722 -49.55465372 36.3866343 -51 40 C-51.73514988 46.36553311 -52.07190699 51.75731214 -48 57 C-38.28751194 64.54368005 -25.13183048 65.59247277 -13.33691406 67.57250977 C5.62694295 70.7639347 25.0567789 75.7715954 37 92 C44.05305566 103.14634689 44.66908212 117.00023333 42.3125 129.70703125 C38.47314551 143.1927639 31.17909673 153.44334792 19.1875 160.75 C-1.13091053 171.91117432 -28.27135903 175.06969228 -50.77734375 169.1015625 C-67.72758771 163.30766093 -82.88509002 155.363447 -91.3125 138.8125 C-95.51095713 130.03599921 -97 123.90904682 -97 114 C-84.79 114 -72.58 114 -60 114 C-59.01 117.3 -58.02 120.6 -57 124 C-53.46262813 130.81271619 -47.93404406 135.03541866 -40.8125 137.6484375 C-36.05822745 139.15027449 -31.65100666 139.50233239 -26.6875 139.4375 C-25.8622583 139.42920166 -25.0370166 139.42090332 -24.18676758 139.41235352 C-16.56648134 139.20318086 -8.9882413 138.38769531 -2.9765625 133.28125 C1.82877984 127.95702093 2.50215328 123.07839807 2.3828125 116.01171875 C1.88594956 112.10272566 0.95206917 110.13214106 -1.90625 107.44921875 C-12.18400079 100.33532781 -25.36058863 99.26019579 -37.37890625 97.2109375 C-54.72089958 94.15692975 -72.52026614 88.70901133 -83.375 73.75 C-90.99112191 60.91943098 -92.15567844 45.99638216 -89.3046875 31.453125 C-85.24735021 19.38339894 -76.78301387 9.60430122 -65.8046875 3.34765625 C-45.81524268 -6.25729983 -20.82586117 -7.14498049 0 0 Z " fill="#020202" transform="translate(1885,125)"/>
<path d="M0 0 C3.63265277 3.04982202 6.99835087 6.32228846 10.33349609 9.69238281 C11.31576172 10.64177734 11.31576172 10.64177734 12.31787109 11.61035156 C19.69793088 19.27816597 29.10190804 33.47247259 29.41064453 44.43066406 C29.37245605 45.55021484 29.37245605 45.55021484 29.33349609 46.69238281 C23.90787982 46.96540101 18.48629412 47.16435822 13.05541992 47.29663086 C11.21096143 47.35177863 9.36698029 47.42672676 7.52416992 47.5222168 C-7.83657051 48.29792797 -7.83657051 48.29792797 -12.36035156 44.32885742 C-14.13184603 41.51116612 -15.38934103 38.75746504 -16.66650391 35.69238281 C-23.04169168 27.4401652 -32.44427419 22.3477732 -42.72119141 20.94238281 C-57.41381744 19.69526336 -68.80750537 21.58758547 -80.66650391 30.69238281 C-81.91947266 31.61664063 -81.91947266 31.61664063 -83.19775391 32.55957031 C-90.89116336 39.20609177 -97.04109721 51.54314403 -97.82763672 61.79199219 C-98.13858024 78.40939265 -96.76806707 93.16609092 -86.41650391 107.00488281 C-79.80287083 113.46820605 -72.44247661 117.82864435 -63.66650391 120.69238281 C-62.78478516 120.98242188 -62.78478516 120.98242188 -61.88525391 121.27832031 C-48.81405302 123.71766414 -36.1416107 121.53593691 -24.98291016 114.41113281 C-17.51858534 108.87267933 -14.17995788 101.96704842 -9.66650391 93.69238281 C3.20349609 93.69238281 16.07349609 93.69238281 29.33349609 93.69238281 C26.50656366 113.48090981 14.88960971 130.84465867 -0.85400391 142.94238281 C-22.0812039 157.44713145 -46.42899312 161.81662149 -71.62988281 157.10253906 C-87.19102846 153.85927633 -100.3693992 145.6537344 -111.66650391 134.69238281 C-112.28009766 134.15226563 -112.89369141 133.61214844 -113.52587891 133.05566406 C-128.9538764 119.00769387 -136.85082648 95.86317432 -138.04931641 75.47753906 C-138.82976063 52.24071607 -131.78059906 30.12074937 -116.29150391 12.44238281 C-114.76814197 10.84143029 -113.22651872 9.25764137 -111.66650391 7.69238281 C-110.93044922 6.933125 -110.19439453 6.17386719 -109.43603516 5.39160156 C-80.96016892 -22.22569584 -31.19205951 -24.47475399 0 0 Z " fill="#010101" transform="translate(1000.66650390625,137.3076171875)"/>
<path d="M0 0 C14.44234797 12.47955262 24.43209668 27.33205744 29 46 C23.41357741 46.24786175 17.83037158 46.42893257 12.23974609 46.54931641 C10.34009045 46.59950332 8.44081922 46.66767504 6.54248047 46.75439453 C-9.28574992 47.45916121 -9.28574992 47.45916121 -13.53320312 43.84375 C-15.07844201 41.2551447 -16.06178765 38.85506271 -17 36 C-23.0375312 27.2791216 -33.04881194 22.47044363 -43.25 20.3125 C-59.22345554 18.98137871 -71.41063351 21.34522931 -84.03125 31.66015625 C-93.72618251 40.6534818 -98.42601628 52.81626051 -99.23828125 65.8125 C-99.49484975 75.60058826 -98.44690766 83.74018882 -95 93 C-94.72285156 93.75667969 -94.44570312 94.51335937 -94.16015625 95.29296875 C-89.70137495 105.58720575 -80.6855626 112.8798788 -71 118 C-69.97712891 118.54140625 -69.97712891 118.54140625 -68.93359375 119.09375 C-59.63904983 123.02255917 -45.57700427 122.50151705 -36.2265625 119.03125 C-23.23125812 113.01237218 -17.43576656 105.87153312 -11 93 C1.87 93 14.74 93 28 93 C28 98.58719147 27.17501432 101.80490313 24.9375 106.6875 C24.62022949 107.39084473 24.30295898 108.09418945 23.97607422 108.81884766 C19.17327515 119.21502024 13.02881438 127.83082173 5 136 C4.38640625 136.62648438 3.7728125 137.25296875 3.140625 137.8984375 C-13.84505085 153.94046469 -36.47337916 158.58979424 -59.0703125 158.18359375 C-78.21825238 157.60520382 -95.73420347 149.54926166 -110 137 C-110.76183594 136.33355469 -111.52367187 135.66710937 -112.30859375 134.98046875 C-121.61037341 126.29128463 -128.58096054 114.89623772 -133 103 C-133.46535156 101.79085937 -133.93070313 100.58171875 -134.41015625 99.3359375 C-142.39417928 76.4157425 -139.64844764 50.66315681 -129.27319336 29.08886719 C-118.95617779 8.79850118 -101.74709614 -5.5162375 -80.4609375 -13.29296875 C-53.71556657 -21.80844892 -22.31657401 -17.5590435 0 0 Z " fill="#010101" transform="translate(1758,138)"/>
<path d="M0 0 C0.92453476 -0.01260864 1.84906952 -0.02521729 2.80162048 -0.03820801 C4.2892263 -0.02606262 4.2892263 -0.02606262 5.80688477 -0.01367188 C6.83258072 -0.01749878 7.85827667 -0.02132568 8.91505432 -0.02526855 C11.08286521 -0.02798884 13.25070886 -0.02061956 15.41845703 -0.00390625 C18.73292475 0.01747898 22.04521936 -0.00369355 25.35961914 -0.02929688 C27.46704579 -0.02665319 29.5744711 -0.02152738 31.68188477 -0.01367188 C32.67159775 -0.0217688 33.66131073 -0.02986572 34.68101501 -0.03820801 C35.60870193 -0.02559937 36.53638885 -0.01299072 37.4921875 0 C38.30396957 0.00318237 39.11575165 0.00636475 39.95213318 0.00964355 C43.40298128 0.75278019 44.87701747 1.94367373 47.31079102 4.51757812 C48.07844936 7.5212975 48.01984874 10.4750953 47.99954224 13.56256104 C48.01298672 14.48730059 48.0264312 15.41204015 48.04028308 16.36480212 C48.07903379 19.47100331 48.08188964 22.57619052 48.0847168 25.68261719 C48.10458408 27.90667022 48.12646305 30.13070606 48.15020752 32.35472107 C48.20728169 38.402373 48.23127223 44.44971653 48.24587107 50.49760532 C48.25608244 54.27540668 48.27266404 58.05312629 48.29137802 61.83089447 C48.34240396 72.29489734 48.38580811 82.7588512 48.39500618 93.2229805 C48.39560089 93.89247527 48.39619559 94.56197005 48.39680832 95.25175254 C48.39798225 96.60892756 48.39915167 97.96610259 48.40031661 99.32327762 C48.400905 99.99696222 48.40149339 100.67064681 48.40209961 101.36474609 C48.4029734 102.37650969 48.4029734 102.37650969 48.40386485 103.40871295 C48.41489342 114.33531112 48.48637386 125.26059489 48.58445491 136.18672541 C48.6843954 147.4102104 48.73438445 158.63306378 48.73729312 169.85707068 C48.73992858 176.15693434 48.76337584 182.45506783 48.83810806 188.75452423 C48.90689687 194.68157307 48.91355676 200.60548699 48.87265778 206.53276253 C48.86825345 208.70643108 48.88603353 210.88027621 48.92775345 213.05354881 C49.21602412 229.03750133 49.21602412 229.03750133 46.06437445 233.14006138 C42.57968656 236.21751249 38.60317146 237.79042283 34.31079102 239.51757812 C32.14497305 240.80184013 29.99815405 242.1192662 27.88110352 243.48242188 C21.362409 247.50188553 14.8383206 251.51247696 8.31079102 255.51757812 C7.0167334 256.31252686 7.0167334 256.31252686 5.6965332 257.12353516 C3.57103484 258.42670519 1.44197799 259.7237393 -0.68920898 261.01757812 C-1.58615479 261.56853149 -1.58615479 261.56853149 -2.5012207 262.13061523 C-6.45750622 264.51757812 -6.45750622 264.51757812 -8.68920898 264.51757812 C-8.78071938 231.46322345 -8.85122472 198.40890157 -8.8934703 165.35444917 C-8.89847326 161.45407268 -8.90365054 157.55369643 -8.90893555 153.65332031 C-8.90998479 152.87680971 -8.91103403 152.10029911 -8.91211507 151.30025789 C-8.92953103 138.71906092 -8.96107525 126.13793689 -8.99782017 113.55678323 C-9.03519651 100.65202685 -9.05743782 87.74730873 -9.06556296 74.84250045 C-9.07105763 66.87638689 -9.08842589 58.91047948 -9.12087485 50.94442937 C-9.14447341 44.84103854 -9.14703721 38.7378259 -9.14163971 32.63438416 C-9.14274353 30.12691221 -9.15074468 27.61943273 -9.16603088 25.11200714 C-9.18583274 21.69744725 -9.18118335 18.28378076 -9.17022705 14.86920166 C-9.18187842 13.86920647 -9.19352978 12.86921128 -9.20553422 11.8389132 C-9.14723762 5.15116568 -9.14723762 5.15116568 -6.79862499 1.90234756 C-4.32010917 0.27527498 -2.95012702 0.01157652 0 0 Z " fill="#A3AFDC" transform="translate(316.689208984375,67.482421875)"/>
<path d="M0 0 C1.4217881 -0.01902626 1.4217881 -0.01902626 2.87229919 -0.03843689 C3.89420853 -0.03550125 4.91611786 -0.03256561 5.96899414 -0.02954102 C7.02067276 -0.03478287 8.07235138 -0.04002472 9.15589905 -0.04542542 C11.38094194 -0.05185138 13.60601878 -0.05050124 15.83105469 -0.04199219 C19.23767574 -0.03348839 22.64261723 -0.06222716 26.04907227 -0.09399414 C28.20987905 -0.09560635 30.37068882 -0.09502825 32.53149414 -0.09204102 C33.55137924 -0.10327499 34.57126434 -0.11450897 35.62205505 -0.12608337 C36.57306595 -0.11670242 37.52407684 -0.10732147 38.50390625 -0.09765625 C39.75608192 -0.097407 39.75608192 -0.097407 41.03355408 -0.09715271 C44.37242066 0.63582474 45.30018617 1.60949384 47.31665039 4.40405273 C47.92149724 7.84885824 47.8383245 11.2663126 47.79766846 14.75567627 C47.80108616 15.82081758 47.80450386 16.8859589 47.80802512 17.98337722 C47.81463107 21.56430299 47.7925822 25.1444847 47.77075195 28.7253418 C47.76962407 31.28747541 47.77025618 33.84961031 47.77252197 36.41174316 C47.77343382 41.9338966 47.76206439 47.45580901 47.73957062 52.9779129 C47.70706974 60.96190309 47.69664558 68.94580185 47.69161865 76.92985103 C47.68286298 89.88321746 47.65624006 102.83648318 47.6184082 115.78979492 C47.58169513 128.37312313 47.55337994 140.95642398 47.53637695 153.53979492 C47.53532606 154.31536288 47.53427517 155.09093083 47.53319243 155.89000085 C47.5279723 159.78077667 47.52291746 163.67155268 47.51794481 167.56232882 C47.47647431 199.84297666 47.40601852 232.12350072 47.31665039 264.40405273 C35.12063467 259.63525346 24.05421378 251.81025099 13.02050781 244.86035156 C7.4877491 241.37548233 1.93134552 237.95326637 -3.71362305 234.65258789 C-5.68334961 233.40405273 -5.68334961 233.40405273 -7.68334961 231.40405273 C-7.88359475 228.41505724 -7.95689961 225.51837143 -7.94404602 222.52796936 C-7.94787157 221.59732727 -7.95169711 220.66668518 -7.95563859 219.70784181 C-7.96600827 216.57014539 -7.96196894 213.43263061 -7.95800781 210.29492188 C-7.96235209 208.05321583 -7.96753428 205.81151128 -7.97349548 203.56980896 C-7.98692726 197.46659818 -7.98745952 191.36344917 -7.98493218 185.26022649 C-7.9838653 180.17293687 -7.98873856 175.08565989 -7.9935376 169.99837297 C-8.00528322 157.31404301 -8.00439946 144.62975791 -7.9979808 131.94542836 C-7.99281103 120.92211933 -8.00406693 109.89889864 -8.02307902 98.87560708 C-8.04243717 87.5652242 -8.05042521 76.25489535 -8.04695576 64.94449133 C-8.04513835 58.5912238 -8.04782461 52.2380372 -8.0616703 45.88478279 C-8.07419906 39.91190112 -8.07235165 33.93919691 -8.05925941 27.96631813 C-8.05688325 25.76966035 -8.05966523 23.57299028 -8.06788254 21.37634659 C-8.078264 18.38639515 -8.07031885 15.3970487 -8.05757141 12.40711975 C-8.0649457 11.5300863 -8.07231998 10.65305286 -8.07991773 9.74944264 C-8.02651874 3.8293593 -8.02651874 3.8293593 -6.29468602 1.6830129 C-4.12726834 -0.03732362 -2.74896954 0.01780917 0 0 Z " fill="#A3AFDB" transform="translate(129.683349609375,67.595947265625)"/>
<path d="M0 0 C13.53 0 27.06 0 41 0 C44.1192982 7.48631568 47.19706588 14.95807393 50.1171875 22.51953125 C50.49154938 23.48515488 50.86591125 24.4507785 51.25161743 25.44566345 C52.46122535 28.56724384 53.66843396 31.68974268 54.875 34.8125 C55.28919189 35.88415405 55.70338379 36.95580811 56.13012695 38.05993652 C59.65620635 47.18348906 59.65620635 47.18348906 61.24468994 51.29721069 C63.6165533 57.43608765 66.00117364 63.56969221 68.40383911 69.69657898 C69.78543363 73.22166722 71.16034431 76.74934074 72.53424072 80.2774353 C73.1689279 81.90237967 73.80665617 83.5261401 74.44769287 85.14859009 C77.78052725 93.58847243 80.68775464 101.74459552 82.47460938 110.66503906 C82.76968395 112.94789505 82.76968395 112.94789505 84 114 C84.23984619 112.94675537 84.47969238 111.89351074 84.72680664 110.80834961 C88.30242219 95.88059891 93.8195463 81.8210845 99.4375 67.5625 C100.42489691 65.03785617 101.40914057 62.51198721 102.39331055 59.98608398 C104.34400739 54.98323909 106.30100862 49.98292136 108.26269531 44.984375 C110.69800072 38.77662568 113.11593097 32.56232635 115.5234375 26.34375 C116.18040946 24.64770103 116.83739144 22.95165593 117.49438477 21.25561523 C117.79917755 20.46871307 118.10397034 19.68181091 118.41799927 18.87106323 C119.81388062 15.26851686 121.21174396 11.66675608 122.61328125 8.06640625 C123.05454346 6.93146729 123.49580566 5.79652832 123.95043945 4.62719727 C125 2 125 2 126 0 C139.53 0 153.06 0 167 0 C166.27583163 3.62084186 165.5790991 6.37497245 164.25415039 9.72583008 C163.87310654 10.69413254 163.49206268 11.662435 163.09947205 12.66007996 C162.66574783 13.74807388 162.23202362 14.83606781 161.78515625 15.95703125 C161.31304214 17.14988235 160.84092804 18.34273346 160.35450745 19.57173157 C151.95207704 40.77005593 143.4066328 61.91214776 134.89440918 83.06652832 C131.51727656 91.45998327 128.14192761 99.85415571 124.76637268 108.24824524 C122.98031995 112.68966235 121.19379742 117.13088996 119.40684509 121.57194519 C113.58604405 136.04058984 107.7884496 150.51837855 102 165 C89.79 165 77.58 165 65 165 C62.9890625 159.9365625 60.978125 154.873125 58.90625 149.65625 C56.47542958 143.53751788 54.04413517 137.41897421 51.6127739 131.300457 C50.50459412 128.51156176 49.39658582 125.72259845 48.28860474 122.93362427 C40.16037861 102.47485501 32.01882374 82.02159957 23.82397079 61.58941269 C22.69544178 58.77563461 21.56729496 55.96170356 20.4392395 53.1477356 C17.21027329 45.09386188 13.97969428 37.04065483 10.74133205 28.99055386 C9.41559007 25.69307592 8.09257508 22.39450881 6.77025032 19.09565926 C6.15529003 17.56334851 5.5390942 16.03153298 4.92159843 14.50024223 C4.08255209 12.41928493 3.24767631 10.33670271 2.41381836 8.25366211 C1.94487656 7.08725693 1.47593475 5.92085175 0.99278259 4.71910095 C0 2 0 2 0 0 Z " fill="#010101" transform="translate(525,126)"/>
<path d="M0 0 C12.87 0 25.74 0 39 0 C39 74.58 39 149.16 39 226 C26.13 226 13.26 226 0 226 C0 151.42 0 76.84 0 0 Z " fill="#010101" transform="translate(1232,65)"/>
<path d="M0 0 C10.86739674 10.02357534 16.45144662 23.74978321 17.53125 38.25 C17.99688693 53.15038173 12.73005114 68.27814555 2.5 79.2578125 C-8.00799612 89.04550243 -20.87482502 92.9347404 -35.01171875 92.59375 C-47.84757351 91.61162296 -58.92452529 86.13113531 -67.6875 76.7109375 C-78.60555035 63.61780681 -80.96905538 48.12331524 -79.91064453 31.55371094 C-78.71454615 19.54038142 -71.71847327 8.34367089 -63.05078125 0.1640625 C-44.3482297 -14.48884565 -18.82028902 -14.8713891 0 0 Z " fill="#FBFCFB" transform="translate(804.6875,167.6875)"/>
<path d="M0 0 C11.84158574 9.03604081 19.6300935 21.17690555 22 36 C23.02296268 51.75755969 19.49577626 66.18856429 9.8125 78.86328125 C1.65398799 87.70614213 -10.27144541 94.31698307 -22.39453125 95.265625 C-37.53279629 95.1964215 -49.49975458 92.57112629 -60.875 81.875 C-65.98696247 76.44630211 -69.24822812 70.89814924 -72 64 C-72.33773438 63.22527344 -72.67546875 62.45054687 -73.0234375 61.65234375 C-77.82816725 48.80299767 -76.07083046 30.96013477 -70.5234375 18.75 C-63.57263184 6.05446454 -53.49394507 -1.97284399 -40 -7 C-26.18132198 -10.47899816 -11.70919601 -7.99262527 0 0 Z " fill="#FBFCFB" transform="translate(1145,165)"/>
<path d="M0 0 C1.01107315 -0.01583633 2.0221463 -0.03167267 3.06385803 -0.04798889 C4.14936447 -0.04302902 5.23487091 -0.03806915 6.35327148 -0.03295898 C7.47249496 -0.03915756 8.59171844 -0.04535614 9.74485779 -0.05174255 C12.10935597 -0.05884303 14.47390413 -0.05566284 16.83837891 -0.04296875 C20.4647158 -0.02908967 24.08848019 -0.06319011 27.71459961 -0.10131836 C30.0108242 -0.10226938 32.30705204 -0.10041163 34.60327148 -0.09545898 C35.69080215 -0.10871719 36.77833282 -0.1219754 37.89881897 -0.13563538 C38.90673996 -0.12310226 39.91466095 -0.11056915 40.953125 -0.09765625 C42.2840493 -0.09621361 42.2840493 -0.09621361 43.64186096 -0.09474182 C45.91186523 0.53344727 45.91186523 0.53344727 47.69256592 2.42274475 C49.4609083 6.93417768 49.37068605 11.12826779 49.37939453 15.93579102 C49.39268295 16.98187531 49.40597137 18.02795959 49.41966248 19.10574341 C49.45833038 22.5608885 49.47394696 26.015613 49.48608398 29.47094727 C49.50080243 31.87321061 49.51568199 34.27547298 49.53071594 36.67773438 C49.5577008 41.71137175 49.57125502 46.74486144 49.57763672 51.77856445 C49.58852337 58.23221385 49.65028929 64.6843062 49.72435284 71.13749695 C49.77268166 76.09775105 49.78516195 81.05762744 49.78769875 86.01809692 C49.79493823 88.39763037 49.81544287 90.77716149 49.84940147 93.15646362 C49.89325735 96.48253124 49.88671285 99.80488326 49.86767578 103.13110352 C49.89172485 104.11515167 49.91577393 105.09919983 49.94055176 106.11306763 C49.83033435 112.64278824 49.83033435 112.64278824 47.16466045 115.22774887 C45.12626942 116.51892616 43.11336158 117.55223752 40.91186523 118.53344727 C39.53502563 119.33443848 39.53502563 119.33443848 38.13037109 120.15161133 C37.3041626 120.61277344 36.4779541 121.07393555 35.62670898 121.54907227 C34.69101074 122.0737207 33.7553125 122.59836914 32.79125977 123.13891602 C31.82043457 123.68161133 30.84960938 124.22430664 29.84936523 124.78344727 C23.02600615 128.61608711 16.23015492 132.477333 9.53686523 136.53344727 C-4.36926559 144.96049087 -4.36926559 144.96049087 -9.08813477 146.53344727 C-9.1815385 128.08807571 -9.25209449 109.64275208 -9.29538345 91.19719315 C-9.31601672 82.63276519 -9.3441518 74.06848409 -9.38989258 65.50415039 C-9.42973709 58.04025957 -9.45556202 50.5764751 -9.46448874 43.11248088 C-9.46970759 39.15958286 -9.48198926 35.20698912 -9.51105499 31.25418854 C-9.53818665 27.53430657 -9.54658448 23.81485448 -9.54056549 20.09488297 C-9.54219222 18.0774106 -9.56372679 16.05998515 -9.58581543 14.04263306 C-9.58031677 12.84232452 -9.57481812 11.64201599 -9.56915283 10.40533447 C-9.57284 9.36186481 -9.57652718 8.31839516 -9.58032608 7.24330521 C-8.59011755 1.79151368 -5.21499851 0.03639946 0 0 Z " fill="#A4AFDC" transform="translate(408.088134765625,127.466552734375)"/>
<path d="M0 0 C0.94455551 -0.01253311 1.88911102 -0.02506622 2.86228943 -0.03797913 C4.38270592 -0.01809181 4.38270592 -0.01809181 5.93383789 0.00219727 C7.50567589 -0.00142067 7.50567589 -0.00142067 9.10926819 -0.00511169 C11.32418605 -0.00413271 13.53912822 0.00927288 15.75390625 0.03417969 C19.14090339 0.06844578 22.52528583 0.05485073 25.91235352 0.03540039 C28.0653594 0.04229999 30.21835855 0.0519734 32.37133789 0.06469727 C33.88871803 0.05725746 33.88871803 0.05725746 35.43675232 0.04966736 C36.85831383 0.07342186 36.85831383 0.07342186 38.30859375 0.09765625 C39.5529142 0.10695412 39.5529142 0.10695412 40.82237244 0.11643982 C44.16889751 0.83509098 45.78263039 2.24878139 48.21899414 4.63110352 C48.83423328 7.34096146 48.83423328 7.34096146 48.82026672 10.50299072 C48.82714005 11.70329926 48.83401337 12.90360779 48.84109497 14.14028931 C48.8141304 16.11042496 48.8141304 16.11042496 48.78662109 18.12036133 C48.78521045 19.51994781 48.78600292 20.91953799 48.78883362 22.31912231 C48.7902686 26.11660922 48.76086674 29.91330695 48.72596383 33.71061039 C48.69471334 37.67973393 48.69177064 41.64887544 48.68583679 45.61810303 C48.67029442 53.13341263 48.6292609 60.64835868 48.57908934 68.16350818 C48.5232079 76.71961407 48.49571244 85.27573729 48.47061217 93.83198023 C48.41834518 111.43189413 48.33039549 129.03146959 48.21899414 146.63110352 C44.74976006 145.27091645 41.53984372 143.78362601 38.29711914 141.94360352 C37.36230713 141.41460449 36.42749512 140.88560547 35.46435547 140.34057617 C34.47588623 139.7764502 33.48741699 139.21232422 32.46899414 138.63110352 C31.44636475 138.05021973 30.42373535 137.46933594 29.37011719 136.87084961 C10.71442496 126.24753007 10.71442496 126.24753007 5.53016663 122.90258789 C3.18471551 121.50957257 3.18471551 121.50957257 0.24150085 120.72021484 C-3.76179136 119.19434283 -5.93096542 117.8686867 -8.78100586 114.63110352 C-11.15697226 106.91191316 -10.26842145 98.24974864 -10.09350586 90.27954102 C-10.08126897 87.85773597 -10.07376944 85.43590275 -10.07080078 83.0140686 C-10.05240925 77.94423255 -9.99480316 72.87694588 -9.90600586 67.80786133 C-9.79275224 61.30973117 -9.7491474 54.8136043 -9.73127747 48.31458092 C-9.71465276 43.31643641 -9.67537914 38.31869669 -9.6277771 33.32075882 C-9.60498961 30.92458958 -9.58594707 28.5283817 -9.57070923 26.13215256 C-9.54321167 22.78524173 -9.4886729 19.43991064 -9.42553711 16.09350586 C-9.42106567 15.10324905 -9.41659424 14.11299225 -9.4119873 13.09272766 C-9.30642148 8.86881467 -9.1292825 6.25396358 -7.03953552 2.51664734 C-4.43895841 0.34554364 -3.34644359 0.00388353 0 0 Z " fill="#A3AFDC" transform="translate(37.781005859375,127.368896484375)"/>
<path d="M0 0 C12.87 0 25.74 0 39 0 C39 54.45 39 108.9 39 165 C26.13 165 13.26 165 0 165 C0 110.55 0 56.1 0 0 Z " fill="#000000" transform="translate(1566,126)"/>
<path d="M0 0 C5.02612136 4.02089709 8.29691073 9.02233757 9.421875 15.38671875 C9.80300105 22.13053241 7.88315834 27.50698958 4 33 C-1.39140949 38.35379501 -7.85421479 40.2851848 -15.375 40.3125 C-22.24188664 40.19518417 -26.73149316 38.90029467 -32.6875 35.4375 C-37.31065858 30.56444096 -40.25145456 24.76650875 -40.625 18 C-40.27543474 12.29939724 -38.41272105 7.5686427 -35 3 C-25.18600056 -5.6090778 -11.21863278 -7.17333962 0 0 Z " fill="#030303" transform="translate(1601,60)"/>
<path d="M0 0 C0 0.33 0 0.66 0 1 C-1.7015625 1.4640625 -1.7015625 1.4640625 -3.4375 1.9375 C-6.78775099 2.62924531 -6.78775099 2.62924531 -8 4 C-8.10144774 5.38637753 -8.13396673 6.77787048 -8.1386652 8.16794682 C-8.14413964 9.07213732 -8.14961409 9.97632782 -8.15525442 10.90791804 C-8.15623253 11.9127608 -8.15721064 12.91760357 -8.15821838 13.95289612 C-8.16315636 15.0113906 -8.16809434 16.06988509 -8.17318195 17.16045517 C-8.18864103 20.7366071 -8.19694021 24.31274098 -8.20532227 27.88891602 C-8.21489419 30.44075685 -8.22490385 32.99259607 -8.23532104 35.54443359 C-8.25681879 41.05344165 -8.27524858 46.56244662 -8.29092598 52.07147408 C-8.31359835 60.03668886 -8.34174477 68.00187682 -8.37124526 75.9670689 C-8.41895353 88.88876002 -8.46220891 101.81046209 -8.50268555 114.73217773 C-8.54202404 127.28752495 -8.58344629 139.84286242 -8.62768555 152.39819336 C-8.63040982 153.17156249 -8.63313409 153.94493162 -8.63594092 154.74173618 C-8.64962012 158.62134012 -8.66334045 162.50094392 -8.67708123 166.38054764 C-8.79109681 198.58701169 -8.89789489 230.79349592 -9 263 C-9.66 263 -10.32 263 -11 263 C-11.06862066 229.92861407 -11.12150564 196.85724656 -11.15319599 163.78580571 C-11.15694825 159.88414054 -11.1608312 155.98247551 -11.16479492 152.08081055 C-11.16558185 151.30403764 -11.16636878 150.52726473 -11.16717956 149.72695325 C-11.18024441 137.13863117 -11.20390417 124.55035006 -11.23145839 111.96205231 C-11.25948262 99.0516487 -11.27616993 86.1412666 -11.28226548 73.23083383 C-11.28638814 65.26015034 -11.29942341 57.28958264 -11.3237494 49.31893478 C-11.34143618 43.21383208 -11.34337319 37.10882965 -11.33932304 31.00369835 C-11.34015149 28.49419947 -11.34615987 25.9846964 -11.35761642 23.47522354 C-11.37244728 20.06044104 -11.36898788 16.64616213 -11.36076355 13.23136902 C-11.36950207 12.22846099 -11.3782406 11.22555295 -11.38724393 10.19225377 C-11.38127078 9.28059777 -11.37529764 8.36894178 -11.36914349 7.42965984 C-11.37028265 6.64098072 -11.37142181 5.85230159 -11.37259549 5.0397231 C-10.22572063 -1.23868662 -5.06848032 -0.24926952 0 0 Z " fill="#AEB5D8" transform="translate(319,69)"/>
<path d="M0 0 C0.33 0 0.66 0 1 0 C1 85.8 1 171.6 1 260 C-0.32 259.67 -1.64 259.34 -3 259 C-3 258.34 -3 257.68 -3 257 C-2.34 256.67 -1.68 256.34 -1 256 C-0.505 129.28 -0.505 129.28 0 0 Z " fill="#B0B7D5" transform="translate(176,72)"/>
<path d="M0 0 C0.763125 0.0825 1.52625 0.165 2.3125 0.25 C1.1059375 1.2090625 1.1059375 1.2090625 -0.125 2.1875 C-1.9625504 3.65603502 -1.9625504 3.65603502 -3.6875 5.25 C-3.79500771 6.64097823 -3.83429668 8.03730842 -3.84571838 9.43238831 C-3.8555072 10.33407745 -3.86529602 11.2357666 -3.87538147 12.16477966 C-3.88113693 13.16171341 -3.8868924 14.15864716 -3.89282227 15.18579102 C-3.90272186 16.22956909 -3.91262146 17.27334717 -3.92282104 18.34875488 C-3.95454254 21.81711518 -3.97923541 25.28548921 -4.00390625 28.75390625 C-4.02446659 31.15144721 -4.0454628 33.54898448 -4.06687927 35.94651794 C-4.12219498 42.27091484 -4.17156223 48.59534495 -4.21972656 54.9197998 C-4.26987241 61.3677874 -4.32559449 67.81572648 -4.38085938 74.26367188 C-4.48855706 86.92573957 -4.59016526 99.58784863 -4.6875 112.25 C-5.0175 112.25 -5.3475 112.25 -5.6875 112.25 C-5.75758191 98.23766885 -5.81028468 84.22536487 -5.84293652 70.21289444 C-5.85860612 63.70664653 -5.87986828 57.20051618 -5.91381836 50.69433594 C-5.94636523 44.41793407 -5.96434325 38.14164544 -5.97213173 31.86516571 C-5.97768361 29.46811897 -5.98852478 27.07107856 -6.00469017 24.6740799 C-6.02640193 21.32197069 -6.02946949 17.97033204 -6.02807617 14.61816406 C-6.038862 13.62266541 -6.04964783 12.62716675 -6.0607605 11.60150146 C-6.05663651 10.68727417 -6.05251251 9.77304688 -6.04826355 8.83111572 C-6.05241162 7.64200277 -6.05241162 7.64200277 -6.05664349 6.42886734 C-5.40239456 2.56716678 -3.95946143 0.36832199 0 0 Z " fill="#A1A9D0" transform="translate(34.6875,128.75)"/>
</svg>
