<?xml version="1.0" encoding="UTF-8"?>
<svg version="1.1" xmlns="http://www.w3.org/2000/svg" width="512" height="512">
<path d="M0 0 C6.95976217 -0.84118131 12.52471289 1.23704284 18.9921875 3.6484375 C20.01933868 4.02102692 21.04648987 4.39361633 22.10476685 4.77749634 C24.26345991 5.56339608 26.41991934 6.35545553 28.57421875 7.15332031 C31.88035122 8.37698059 35.19326418 9.58059681 38.5078125 10.78125 C40.60719472 11.54832003 42.70616813 12.31651005 44.8046875 13.0859375 C45.79733612 13.44746918 46.78998474 13.80900085 47.81271362 14.18148804 C48.72771637 14.52168976 49.64271912 14.86189148 50.58544922 15.21240234 C51.39182831 15.50996429 52.1982074 15.80752625 53.02902222 16.11410522 C55 17 55 17 57 19 C57.9047562 23.9350338 57.9047562 23.9350338 57 27 C55.53540039 28.38696289 55.53540039 28.38696289 53.47265625 29.66015625 C52.65579346 30.17046387 51.83893066 30.68077148 50.99731445 31.20654297 C50.00820068 31.79838379 49.01908691 32.39022461 48 33 C47.41777679 33.35185364 46.83555359 33.70370728 46.23568726 34.06622314 C41.42624294 36.97253738 36.59031418 39.83299756 31.75 42.6875 C30.29152961 43.54989847 28.83319529 44.41252708 27.375 45.27539062 C24.70494974 46.8552015 22.03398973 48.43345379 19.36230469 50.01049805 C17.30726688 51.22647997 15.26504994 52.46491653 13.24707031 53.74145508 C10.29381217 55.3955235 8.33211808 55.4346241 5 55 C3.125 53.9375 3.125 53.9375 2 52 C1.5 48.5625 1.5 48.5625 2 45 C5.55552971 41.69513844 9.66826729 39.24485581 13.8125 36.75 C14.40998047 36.38648438 15.00746094 36.02296875 15.62304688 35.6484375 C17.08014796 34.76252004 18.5398102 33.88081727 20 33 C-21.18349989 35.66139846 -61.14234082 55.66177108 -93 81 C-93.56525391 81.44811035 -94.13050781 81.8962207 -94.71289062 82.35791016 C-107.76422943 92.8043999 -119.91038838 104.65623037 -130 118 C-130.47083008 118.61085449 -130.94166016 119.22170898 -131.42675781 119.85107422 C-168.70734138 168.4426855 -185.28584075 229.92598353 -177.48071289 290.69482422 C-174.75536363 309.66831707 -170.08517782 328.18702496 -163 346 C-162.70399902 346.74620605 -162.40799805 347.49241211 -162.10302734 348.26123047 C-146.86270739 385.94623556 -120.66227133 419.82052719 -88 444 C-87.05511719 444.71671875 -86.11023438 445.4334375 -85.13671875 446.171875 C-36.32318239 482.62308305 25.58049813 496.75215742 85.5625 488.3125 C104.58220164 485.41470923 124.67741796 480.66129102 142 472 C141.56429688 471.42894531 141.12859375 470.85789062 140.6796875 470.26953125 C128.33309876 453.45999809 124.66126668 435.30679924 123 415 C122.02160156 415.39832031 121.04320312 415.79664063 120.03515625 416.20703125 C100.79580429 424 100.79580429 424 96 424 C96.02094727 424.56920166 96.04189453 425.13840332 96.06347656 425.72485352 C96.14730994 428.33721816 96.19886818 430.94929884 96.25 433.5625 C96.28351563 434.45775391 96.31703125 435.35300781 96.3515625 436.27539062 C96.45647448 443.43563298 95.14986448 447.59950114 90.18359375 452.9609375 C89.60738281 453.42757813 89.03117187 453.89421875 88.4375 454.375 C87.56931641 455.09816406 87.56931641 455.09816406 86.68359375 455.8359375 C83.25322897 458.20774424 80.09841743 458.13554243 76.06323242 458.16113281 C74.84153854 458.17074036 73.61984467 458.1803479 72.36112976 458.19024658 C71.02591133 458.1950951 69.69069072 458.19937379 68.35546875 458.203125 C66.9840749 458.20887978 65.61268106 458.21463747 64.24128723 458.22039795 C61.36552558 458.23089922 58.4897918 458.23674737 55.61401367 458.24023438 C51.93875988 458.24571271 48.26387776 458.26972982 44.58874035 458.29820633 C41.75506025 458.31688179 38.92146874 458.32204094 36.08773232 458.32357025 C34.07701448 458.32804916 32.06634415 458.34667271 30.05570984 458.36553955 C28.82455948 458.36253845 27.59340912 458.35953735 26.32495117 458.35644531 C25.24590012 458.36009094 24.16684906 458.36373657 23.05509949 458.36749268 C17.49591857 457.69878834 13.7305086 455.22281837 10.1875 451 C9.60355469 450.319375 9.01960937 449.63875 8.41796875 448.9375 C6.10350212 445.7750332 5.87817787 443.1260747 5.90234375 439.33203125 C5.90556641 438.43935547 5.90878906 437.54667969 5.91210938 436.62695312 C5.92048828 435.69818359 5.92886719 434.76941406 5.9375 433.8125 C5.94201172 432.87212891 5.94652344 431.93175781 5.95117188 430.96289062 C5.96295374 428.64186288 5.97940442 426.32096356 6 424 C5.38979004 423.90058105 4.77958008 423.80116211 4.15087891 423.69873047 C-2.18037138 422.56490189 -7.75194882 420.71491929 -13.625 418.125 C-14.4190625 417.78597656 -15.213125 417.44695312 -16.03125 417.09765625 C-20.54973713 415.14952163 -24.9038404 413.05435108 -29.18896484 410.63232422 C-31.53280751 409.81396988 -32.70539833 410.11267218 -35 411 C-37.41777489 413.20509082 -37.41777489 413.20509082 -39.8125 415.875 C-46.05074354 422.24984741 -50.32660416 424.27195169 -59.27734375 424.49609375 C-67.86343351 422.93162689 -73.31557499 417.2630044 -79.20703125 411.2890625 C-80.47784798 410.02042862 -80.47784798 410.02042862 -81.77433777 408.72616577 C-83.55483855 406.94401163 -85.33042104 405.15693164 -87.10131836 403.36523438 C-89.80901103 400.62852636 -92.53494235 397.9110282 -95.26367188 395.1953125 C-96.99590769 393.45684047 -98.72706507 391.71729308 -100.45703125 389.9765625 C-101.26952835 389.16700104 -102.08202545 388.35743958 -102.91914368 387.52334595 C-108.67402893 381.67174671 -112.42726594 377.08747243 -112.4375 368.5625 C-112.09549262 357.36492511 -105.77538512 352.37474505 -98 345 C-99.16136755 341.9864001 -100.42433949 339.03639861 -101.76953125 336.1015625 C-106.13899252 326.5481758 -109.91734065 317.04828383 -113 307 C-114.134375 306.96261719 -115.26875 306.92523438 -116.4375 306.88671875 C-135.3570816 306.12934805 -135.3570816 306.12934805 -141.875 299.1875 C-145.97113055 294.41503161 -147.24528071 289.4310688 -147.2746582 283.21337891 C-147.28895622 281.54101669 -147.28895622 281.54101669 -147.30354309 279.83486938 C-147.30263168 278.64412811 -147.30172028 277.45338684 -147.30078125 276.2265625 C-147.30506638 274.98885101 -147.3093515 273.75113953 -147.31376648 272.47592163 C-147.32096531 269.19431365 -147.31789605 265.91288993 -147.31219482 262.63128662 C-147.31269981 259.31141035 -147.34022076 255.99167474 -147.36132812 252.671875 C-147.36360157 250.1276051 -147.36430441 247.58333321 -147.36328125 245.0390625 C-147.372491 243.85236969 -147.38170074 242.66567688 -147.39118958 241.44302368 C-147.35022134 234.06854287 -147.01905731 227.69496567 -142.16796875 221.7578125 C-141.51441406 221.21898437 -140.86085937 220.68015625 -140.1875 220.125 C-139.54167969 219.57070312 -138.89585937 219.01640625 -138.23046875 218.4453125 C-132.84474842 214.95544118 -127.34745371 214.62811676 -121.125 214.375 C-120.34125 214.33632812 -119.5575 214.29765625 -118.75 214.2578125 C-116.83368633 214.16433378 -114.91687681 214.08111505 -113 214 C-112.5978125 212.68902344 -112.5978125 212.68902344 -112.1875 211.3515625 C-109.05516566 201.52180276 -105.13061464 192.23139124 -100.83447266 182.85839844 C-99.81979727 180.59868251 -98.89068066 178.31120212 -98 176 C-99.13888672 174.91332031 -99.13888672 174.91332031 -100.30078125 173.8046875 C-101.305089 172.82853791 -102.30897283 171.85195205 -103.3125 170.875 C-103.81201172 170.400625 -104.31152344 169.92625 -104.82617188 169.4375 C-108.92232821 165.42272426 -111.60084528 161.68098923 -112.46875 155.8515625 C-112.48421875 154.25441406 -112.48421875 154.25441406 -112.5 152.625 C-112.5309375 151.56539062 -112.561875 150.50578125 -112.59375 149.4140625 C-111.12410136 140.96358282 -104.4688177 135.03506862 -98.59375 129.23046875 C-97.79142944 128.42764969 -96.98910889 127.62483063 -96.16247559 126.79768372 C-94.47503332 125.11256996 -92.78392644 123.4311187 -91.08935547 121.75317383 C-88.4991849 119.18669236 -85.92269137 116.60704853 -83.34765625 114.02539062 C-81.70131282 112.38462161 -80.05420349 110.74462066 -78.40625 109.10546875 C-77.63841187 108.33671921 -76.87057373 107.56796967 -76.07946777 106.77592468 C-75.35521606 106.06120499 -74.63096436 105.34648529 -73.88476562 104.61010742 C-73.25364868 103.98359787 -72.62253174 103.35708832 -71.97229004 102.71159363 C-66.51047888 97.97172221 -61.43230125 96.5882016 -54.35546875 96.73828125 C-46.21747159 97.64250316 -41.58288837 103.1751135 -36.39453125 109.05078125 C-34.21614338 111.23682754 -34.21614338 111.23682754 -31.69140625 111.02734375 C-28.05705287 109.64006517 -24.60588701 107.98214627 -21.125 106.25 C-2.03855665 97 -2.03855665 97 6 97 C5.97905273 96.43079834 5.95810547 95.86159668 5.93652344 95.27514648 C5.85269006 92.66278184 5.80113182 90.05070116 5.75 87.4375 C5.69972656 86.09461914 5.69972656 86.09461914 5.6484375 84.72460938 C5.54352552 77.56436702 6.85013552 73.40049886 11.81640625 68.0390625 C12.39261719 67.57242188 12.96882812 67.10578125 13.5625 66.625 C14.14128906 66.14289063 14.72007812 65.66078125 15.31640625 65.1640625 C18.73800683 62.79831546 21.89521272 62.85990929 25.92089844 62.82299805 C27.74859772 62.80374519 27.74859772 62.80374519 29.61322021 62.78410339 C30.93195129 62.77671646 32.25068237 62.76932953 33.609375 62.76171875 C34.28190559 62.75764322 34.95443619 62.7535677 35.6473465 62.74936867 C39.20857941 62.72852518 42.76977402 62.7142173 46.33105469 62.70483398 C49.99735412 62.69378603 53.66304387 62.65940094 57.32912827 62.61966228 C60.15855994 62.59343169 62.98784789 62.58513641 65.81739044 62.58155251 C67.82201298 62.57435294 69.82653702 62.54794044 71.83099365 62.52116394 C80.00734724 62.5405945 84.8435252 63.14987892 90.9609375 68.81640625 C91.42757813 69.39261719 91.89421875 69.96882813 92.375 70.5625 C93.09816406 71.43068359 93.09816406 71.43068359 93.8359375 72.31640625 C95.95495393 75.38115821 96.12060861 78.06444855 96.09765625 81.66796875 C96.09443359 82.56064453 96.09121094 83.45332031 96.08789062 84.37304688 C96.07951172 85.30181641 96.07113281 86.23058594 96.0625 87.1875 C96.05798828 88.12787109 96.05347656 89.06824219 96.04882812 90.03710938 C96.03704626 92.35813712 96.02059558 94.67903644 96 97 C96.55905029 97.1124707 97.11810059 97.22494141 97.6940918 97.34082031 C102.91282395 98.43811194 107.83627903 99.84102947 112.8125 101.75 C113.49538086 102.006604 114.17826172 102.26320801 114.88183594 102.52758789 C120.3237553 104.621367 125.45087015 107.15628099 130.546875 109.99609375 C132.87106548 111.13565403 132.87106548 111.13565403 135.02734375 110.96484375 C137.90636013 109.55669118 139.64993729 107.47487129 141.8125 105.125 C147.1289112 99.68422831 150.74353289 96.99124128 158.5 96.625 C170.30237658 97.12425451 178.04012908 106.88674122 185.89453125 114.69140625 C186.60856613 115.39974106 187.32260101 116.10807587 188.05827332 116.83787537 C189.55283925 118.32306887 191.04601412 119.80966345 192.5378418 121.29760742 C194.81699447 123.56697518 197.10660045 125.82545195 199.39648438 128.08398438 C200.8548233 129.53579905 202.31252806 130.98825108 203.76953125 132.44140625 C204.45078568 133.11031387 205.1320401 133.7792215 205.8339386 134.46839905 C211.26070227 139.92082504 214.42795908 144.4899112 214.4375 152.4375 C214.09549262 163.63507489 207.77538512 168.62525495 200 176 C201.34991819 179.42647893 202.77831082 182.80421703 204.27734375 186.16796875 C204.70853516 187.14443359 205.13972656 188.12089844 205.58398438 189.12695312 C206.47846621 191.14954047 207.3768371 193.17041284 208.27929688 195.18945312 C210.99439345 201.36012716 213.24305469 207.48970595 215 214 C216.05058594 214.03738281 217.10117187 214.07476562 218.18359375 214.11328125 C237.51539674 214.94478141 237.51539674 214.94478141 243.9375 221.8125 C247.97258616 226.5916446 249.2454426 231.60319394 249.2746582 237.78662109 C249.28419022 238.90152924 249.29372223 240.01643738 249.30354309 241.16513062 C249.30217598 242.95124252 249.30217598 242.95124252 249.30078125 244.7734375 C249.30506638 246.01114899 249.3093515 247.24886047 249.31376648 248.52407837 C249.32096531 251.80568635 249.31789605 255.08711007 249.31219482 258.36871338 C249.31269981 261.68858965 249.34022076 265.00832526 249.36132812 268.328125 C249.36360157 270.8723949 249.36430441 273.41666679 249.36328125 275.9609375 C249.372491 277.14763031 249.38170074 278.33432312 249.39118958 279.55697632 C249.35022134 286.93145713 249.01905731 293.30503433 244.16796875 299.2421875 C243.51441406 299.78101563 242.86085938 300.31984375 242.1875 300.875 C241.54167969 301.42929687 240.89585937 301.98359375 240.23046875 302.5546875 C234.84474842 306.04455882 229.34745371 306.37188324 223.125 306.625 C222.34125 306.66367187 221.5575 306.70234375 220.75 306.7421875 C218.83368633 306.83566622 216.91687681 306.91888495 215 307 C214.80365967 307.56920166 214.60731934 308.13840332 214.4050293 308.72485352 C213.50184463 311.33832969 212.59470188 313.95041572 211.6875 316.5625 C211.2244043 317.90538086 211.2244043 317.90538086 210.75195312 319.27539062 C209.01145543 324.27703138 207.15653361 329.16272923 205 334 C205.95777344 333.95359375 206.91554688 333.9071875 207.90234375 333.859375 C227.81098252 333.19162241 246.01100069 339.06016285 262 351 C275.0220926 331.4668611 279.07197141 301.66161397 280.48046875 278.66796875 C280.59793457 276.76567505 280.59793457 276.76567505 280.71777344 274.82495117 C280.86199021 272.31445766 280.98698075 269.80277072 281.09082031 267.2902832 C281.15237305 266.14261475 281.21392578 264.99494629 281.27734375 263.8125 C281.32109131 262.78769531 281.36483887 261.76289063 281.40991211 260.70703125 C282.14751826 257.32325924 283.24788602 256.06000429 286 254 C289.625 254.0625 289.625 254.0625 293 255 C295.42874347 258.64311521 295.34447446 261.34511494 295.3125 265.5625 C295.30758545 266.34407471 295.3026709 267.12564941 295.29760742 267.9309082 C294.79091014 294.85862049 288.91821741 320.58083405 280.18359375 345.92578125 C279.82942383 346.95372803 279.47525391 347.9816748 279.11035156 349.04077148 C278 352 278 352 276.67871094 354.77368164 C275.52704335 357.20302335 274.55610594 359.36920233 274 362 C275.35161597 365.05278779 276.22584383 366.45632481 278.375 368.8125 C279.34134006 370.01051263 280.29960977 371.21507658 281.25 372.42578125 C281.724375 373.02213379 282.19875 373.61848633 282.6875 374.23291016 C294.3463748 389.92988483 297.18615106 413.06765322 294.50390625 432.05078125 C290.38042291 454.48532619 278.97829005 474.81123329 260.5 488.5 C239.67439493 502.41558015 216.30164831 507.89764251 191.3515625 503.26953125 C187.79145241 502.37032819 184.4312968 501.30167354 181 500 C179.96359375 499.63777344 178.9271875 499.27554687 177.859375 498.90234375 C169.51827744 495.74769788 161.65246139 491.13353301 154.96875 485.1953125 C153.07562326 483.79845294 153.07562326 483.79845294 150.83984375 484.08203125 C147.5737815 485.13777352 144.3996517 486.35344848 141.21313477 487.62792969 C116.50196731 497.50602371 89.88878167 504.06348291 63.171875 504.203125 C62.26855438 504.21013931 61.36523376 504.21715363 60.43453979 504.22438049 C57.53964181 504.24177133 54.64494829 504.24823161 51.75 504.25 C50.26702423 504.25101212 50.26702423 504.25101212 48.75408936 504.25204468 C34.61231501 504.23668535 20.89023858 503.87748822 7 501 C6.15099121 500.83902832 5.30198242 500.67805664 4.42724609 500.51220703 C-32.39899579 493.48965385 -67.56869818 478.32863483 -97 455 C-97.8353125 454.35675781 -98.670625 453.71351563 -99.53125 453.05078125 C-151.25303281 412.70451713 -183.70121914 353.58076792 -192.05273438 288.71508789 C-196.96256843 244.48505088 -190.67420559 195.72611236 -170.01464844 155.96142578 C-168.82004182 153.65212127 -167.66585481 151.32394177 -166.5078125 148.99609375 C-160.81465818 137.69486467 -154.56500232 127.14416414 -147 117 C-146.32735107 116.09411133 -146.32735107 116.09411133 -145.64111328 115.16992188 C-138.97327279 106.26666205 -131.7161615 98.0045263 -124 90 C-123.46584473 89.44393066 -122.93168945 88.88786133 -122.38134766 88.31494141 C-115.32254078 81.00440887 -108.10120658 74.16506916 -100 68 C-99.06341553 67.28142822 -99.06341553 67.28142822 -98.10791016 66.54833984 C-67.53300007 43.24522181 -33.32743921 28.43905796 4.22265625 20.58251953 C8.156602 19.75741452 12.07765939 18.87844087 16 18 C14.86820313 17.60167969 13.73640625 17.20335938 12.5703125 16.79296875 C11.08835217 16.25833749 9.60659157 15.72315234 8.125 15.1875 C7.37863281 14.92646484 6.63226563 14.66542969 5.86328125 14.39648438 C5.14785156 14.13544922 4.43242187 13.87441406 3.6953125 13.60546875 C3.03547363 13.36981201 2.37563477 13.13415527 1.69580078 12.89135742 C-0 12 -0 12 -2 9 C-2.33957563 4.92509248 -2.31332486 3.46998729 0 0 Z " fill="#10BCF5" transform="translate(205,4)"/>
<path d="M0 0 C6.95976217 -0.84118131 12.52471289 1.23704284 18.9921875 3.6484375 C20.01933868 4.02102692 21.04648987 4.39361633 22.10476685 4.77749634 C24.26345991 5.56339608 26.41991934 6.35545553 28.57421875 7.15332031 C31.88035122 8.37698059 35.19326418 9.58059681 38.5078125 10.78125 C40.60719472 11.54832003 42.70616813 12.31651005 44.8046875 13.0859375 C45.79733612 13.44746918 46.78998474 13.80900085 47.81271362 14.18148804 C48.72771637 14.52168976 49.64271912 14.86189148 50.58544922 15.21240234 C51.39182831 15.50996429 52.1982074 15.80752625 53.02902222 16.11410522 C55 17 55 17 57 19 C57.9047562 23.9350338 57.9047562 23.9350338 57 27 C55.53540039 28.38696289 55.53540039 28.38696289 53.47265625 29.66015625 C52.65579346 30.17046387 51.83893066 30.68077148 50.99731445 31.20654297 C50.00820068 31.79838379 49.01908691 32.39022461 48 33 C47.41777679 33.35185364 46.83555359 33.70370728 46.23568726 34.06622314 C41.42624294 36.97253738 36.59031418 39.83299756 31.75 42.6875 C30.29152961 43.54989847 28.83319529 44.41252708 27.375 45.27539062 C24.70494974 46.8552015 22.03398973 48.43345379 19.36230469 50.01049805 C17.30726688 51.22647997 15.26504994 52.46491653 13.24707031 53.74145508 C10.29381217 55.3955235 8.33211808 55.4346241 5 55 C3.125 53.9375 3.125 53.9375 2 52 C1.5 48.5625 1.5 48.5625 2 45 C5.55552971 41.69513844 9.66826729 39.24485581 13.8125 36.75 C14.40998047 36.38648438 15.00746094 36.02296875 15.62304688 35.6484375 C17.08014796 34.76252004 18.5398102 33.88081727 20 33 C-21.18349989 35.66139846 -61.14234082 55.66177108 -93 81 C-93.56525391 81.44811035 -94.13050781 81.8962207 -94.71289062 82.35791016 C-107.76422943 92.8043999 -119.91038838 104.65623037 -130 118 C-130.47083008 118.61085449 -130.94166016 119.22170898 -131.42675781 119.85107422 C-168.70734138 168.4426855 -185.28584075 229.92598353 -177.48071289 290.69482422 C-174.75536363 309.66831707 -170.08517782 328.18702496 -163 346 C-162.70399902 346.74620605 -162.40799805 347.49241211 -162.10302734 348.26123047 C-146.86270739 385.94623556 -120.66227133 419.82052719 -88 444 C-87.05511719 444.71671875 -86.11023438 445.4334375 -85.13671875 446.171875 C-36.32318239 482.62308305 25.58049813 496.75215742 85.5625 488.3125 C104.58220164 485.41470923 124.67741796 480.66129102 142 472 C141.56429688 471.42894531 141.12859375 470.85789062 140.6796875 470.26953125 C128.33309876 453.45999809 124.66126668 435.30679924 123 415 C122.02160156 415.39832031 121.04320312 415.79664063 120.03515625 416.20703125 C100.79580429 424 100.79580429 424 96 424 C96.02094727 424.56920166 96.04189453 425.13840332 96.06347656 425.72485352 C96.14730994 428.33721816 96.19886818 430.94929884 96.25 433.5625 C96.28351563 434.45775391 96.31703125 435.35300781 96.3515625 436.27539062 C96.45647448 443.43563298 95.14986448 447.59950114 90.18359375 452.9609375 C89.60738281 453.42757813 89.03117187 453.89421875 88.4375 454.375 C87.56931641 455.09816406 87.56931641 455.09816406 86.68359375 455.8359375 C83.25322897 458.20774424 80.09841743 458.13554243 76.06323242 458.16113281 C74.84153854 458.17074036 73.61984467 458.1803479 72.36112976 458.19024658 C71.02591133 458.1950951 69.69069072 458.19937379 68.35546875 458.203125 C66.9840749 458.20887978 65.61268106 458.21463747 64.24128723 458.22039795 C61.36552558 458.23089922 58.4897918 458.23674737 55.61401367 458.24023438 C51.93875988 458.24571271 48.26387776 458.26972982 44.58874035 458.29820633 C41.75506025 458.31688179 38.92146874 458.32204094 36.08773232 458.32357025 C34.07701448 458.32804916 32.06634415 458.34667271 30.05570984 458.36553955 C28.82455948 458.36253845 27.59340912 458.35953735 26.32495117 458.35644531 C25.24590012 458.36009094 24.16684906 458.36373657 23.05509949 458.36749268 C17.49591857 457.69878834 13.7305086 455.22281837 10.1875 451 C9.60355469 450.319375 9.01960937 449.63875 8.41796875 448.9375 C6.10350212 445.7750332 5.87817787 443.1260747 5.90234375 439.33203125 C5.90556641 438.43935547 5.90878906 437.54667969 5.91210938 436.62695312 C5.92048828 435.69818359 5.92886719 434.76941406 5.9375 433.8125 C5.94201172 432.87212891 5.94652344 431.93175781 5.95117188 430.96289062 C5.96295374 428.64186288 5.97940442 426.32096356 6 424 C5.38979004 423.90058105 4.77958008 423.80116211 4.15087891 423.69873047 C-2.18037138 422.56490189 -7.75194882 420.71491929 -13.625 418.125 C-14.4190625 417.78597656 -15.213125 417.44695312 -16.03125 417.09765625 C-20.54973713 415.14952163 -24.9038404 413.05435108 -29.18896484 410.63232422 C-31.53280751 409.81396988 -32.70539833 410.11267218 -35 411 C-37.41777489 413.20509082 -37.41777489 413.20509082 -39.8125 415.875 C-46.05074354 422.24984741 -50.32660416 424.27195169 -59.27734375 424.49609375 C-67.86343351 422.93162689 -73.31557499 417.2630044 -79.20703125 411.2890625 C-80.47784798 410.02042862 -80.47784798 410.02042862 -81.77433777 408.72616577 C-83.55483855 406.94401163 -85.33042104 405.15693164 -87.10131836 403.36523438 C-89.80901103 400.62852636 -92.53494235 397.9110282 -95.26367188 395.1953125 C-96.99590769 393.45684047 -98.72706507 391.71729308 -100.45703125 389.9765625 C-101.26952835 389.16700104 -102.08202545 388.35743958 -102.91914368 387.52334595 C-108.67402893 381.67174671 -112.42726594 377.08747243 -112.4375 368.5625 C-112.09549262 357.36492511 -105.77538512 352.37474505 -98 345 C-99.16136755 341.9864001 -100.42433949 339.03639861 -101.76953125 336.1015625 C-106.13899252 326.5481758 -109.91734065 317.04828383 -113 307 C-114.134375 306.96261719 -115.26875 306.92523438 -116.4375 306.88671875 C-135.3570816 306.12934805 -135.3570816 306.12934805 -141.875 299.1875 C-145.97113055 294.41503161 -147.24528071 289.4310688 -147.2746582 283.21337891 C-147.28895622 281.54101669 -147.28895622 281.54101669 -147.30354309 279.83486938 C-147.30263168 278.64412811 -147.30172028 277.45338684 -147.30078125 276.2265625 C-147.30506638 274.98885101 -147.3093515 273.75113953 -147.31376648 272.47592163 C-147.32096531 269.19431365 -147.31789605 265.91288993 -147.31219482 262.63128662 C-147.31269981 259.31141035 -147.34022076 255.99167474 -147.36132812 252.671875 C-147.36360157 250.1276051 -147.36430441 247.58333321 -147.36328125 245.0390625 C-147.372491 243.85236969 -147.38170074 242.66567688 -147.39118958 241.44302368 C-147.35022134 234.06854287 -147.01905731 227.69496567 -142.16796875 221.7578125 C-141.51441406 221.21898437 -140.86085937 220.68015625 -140.1875 220.125 C-139.54167969 219.57070312 -138.89585937 219.01640625 -138.23046875 218.4453125 C-132.84474842 214.95544118 -127.34745371 214.62811676 -121.125 214.375 C-120.34125 214.33632812 -119.5575 214.29765625 -118.75 214.2578125 C-116.83368633 214.16433378 -114.91687681 214.08111505 -113 214 C-112.5978125 212.68902344 -112.5978125 212.68902344 -112.1875 211.3515625 C-109.05516566 201.52180276 -105.13061464 192.23139124 -100.83447266 182.85839844 C-99.81979727 180.59868251 -98.89068066 178.31120212 -98 176 C-99.13888672 174.91332031 -99.13888672 174.91332031 -100.30078125 173.8046875 C-101.305089 172.82853791 -102.30897283 171.85195205 -103.3125 170.875 C-103.81201172 170.400625 -104.31152344 169.92625 -104.82617188 169.4375 C-108.92232821 165.42272426 -111.60084528 161.68098923 -112.46875 155.8515625 C-112.48421875 154.25441406 -112.48421875 154.25441406 -112.5 152.625 C-112.5309375 151.56539062 -112.561875 150.50578125 -112.59375 149.4140625 C-111.12410136 140.96358282 -104.4688177 135.03506862 -98.59375 129.23046875 C-97.79142944 128.42764969 -96.98910889 127.62483063 -96.16247559 126.79768372 C-94.47503332 125.11256996 -92.78392644 123.4311187 -91.08935547 121.75317383 C-88.4991849 119.18669236 -85.92269137 116.60704853 -83.34765625 114.02539062 C-81.70131282 112.38462161 -80.05420349 110.74462066 -78.40625 109.10546875 C-77.63841187 108.33671921 -76.87057373 107.56796967 -76.07946777 106.77592468 C-75.35521606 106.06120499 -74.63096436 105.34648529 -73.88476562 104.61010742 C-73.25364868 103.98359787 -72.62253174 103.35708832 -71.97229004 102.71159363 C-66.51047888 97.97172221 -61.43230125 96.5882016 -54.35546875 96.73828125 C-46.21747159 97.64250316 -41.58288837 103.1751135 -36.39453125 109.05078125 C-34.21614338 111.23682754 -34.21614338 111.23682754 -31.69140625 111.02734375 C-28.05705287 109.64006517 -24.60588701 107.98214627 -21.125 106.25 C-2.03855665 97 -2.03855665 97 6 97 C5.97905273 96.43079834 5.95810547 95.86159668 5.93652344 95.27514648 C5.85269006 92.66278184 5.80113182 90.05070116 5.75 87.4375 C5.69972656 86.09461914 5.69972656 86.09461914 5.6484375 84.72460938 C5.54352552 77.56436702 6.85013552 73.40049886 11.81640625 68.0390625 C12.39261719 67.57242188 12.96882812 67.10578125 13.5625 66.625 C14.14128906 66.14289063 14.72007812 65.66078125 15.31640625 65.1640625 C18.73800683 62.79831546 21.89521272 62.85990929 25.92089844 62.82299805 C27.74859772 62.80374519 27.74859772 62.80374519 29.61322021 62.78410339 C30.93195129 62.77671646 32.25068237 62.76932953 33.609375 62.76171875 C34.28190559 62.75764322 34.95443619 62.7535677 35.6473465 62.74936867 C39.20857941 62.72852518 42.76977402 62.7142173 46.33105469 62.70483398 C49.99735412 62.69378603 53.66304387 62.65940094 57.32912827 62.61966228 C60.15855994 62.59343169 62.98784789 62.58513641 65.81739044 62.58155251 C67.82201298 62.57435294 69.82653702 62.54794044 71.83099365 62.52116394 C80.00734724 62.5405945 84.8435252 63.14987892 90.9609375 68.81640625 C91.42757813 69.39261719 91.89421875 69.96882813 92.375 70.5625 C93.09816406 71.43068359 93.09816406 71.43068359 93.8359375 72.31640625 C95.95495393 75.38115821 96.12060861 78.06444855 96.09765625 81.66796875 C96.09443359 82.56064453 96.09121094 83.45332031 96.08789062 84.37304688 C96.07951172 85.30181641 96.07113281 86.23058594 96.0625 87.1875 C96.05798828 88.12787109 96.05347656 89.06824219 96.04882812 90.03710938 C96.03704626 92.35813712 96.02059558 94.67903644 96 97 C96.55905029 97.1124707 97.11810059 97.22494141 97.6940918 97.34082031 C102.91282395 98.43811194 107.83627903 99.84102947 112.8125 101.75 C113.49538086 102.006604 114.17826172 102.26320801 114.88183594 102.52758789 C120.3237553 104.621367 125.45087015 107.15628099 130.546875 109.99609375 C132.87106548 111.13565403 132.87106548 111.13565403 135.02734375 110.96484375 C137.90636013 109.55669118 139.64993729 107.47487129 141.8125 105.125 C147.1289112 99.68422831 150.74353289 96.99124128 158.5 96.625 C170.30237658 97.12425451 178.04012908 106.88674122 185.89453125 114.69140625 C186.60856613 115.39974106 187.32260101 116.10807587 188.05827332 116.83787537 C189.55283925 118.32306887 191.04601412 119.80966345 192.5378418 121.29760742 C194.81699447 123.56697518 197.10660045 125.82545195 199.39648438 128.08398438 C200.8548233 129.53579905 202.31252806 130.98825108 203.76953125 132.44140625 C204.45078568 133.11031387 205.1320401 133.7792215 205.8339386 134.46839905 C211.26070227 139.92082504 214.42795908 144.4899112 214.4375 152.4375 C214.09549262 163.63507489 207.77538512 168.62525495 200 176 C201.34991819 179.42647893 202.77831082 182.80421703 204.27734375 186.16796875 C204.70853516 187.14443359 205.13972656 188.12089844 205.58398438 189.12695312 C206.47846621 191.14954047 207.3768371 193.17041284 208.27929688 195.18945312 C210.99439345 201.36012716 213.24305469 207.48970595 215 214 C216.05058594 214.03738281 217.10117187 214.07476562 218.18359375 214.11328125 C237.51539674 214.94478141 237.51539674 214.94478141 243.9375 221.8125 C247.97258616 226.5916446 249.2454426 231.60319394 249.2746582 237.78662109 C249.28419022 238.90152924 249.29372223 240.01643738 249.30354309 241.16513062 C249.30217598 242.95124252 249.30217598 242.95124252 249.30078125 244.7734375 C249.30506638 246.01114899 249.3093515 247.24886047 249.31376648 248.52407837 C249.32096531 251.80568635 249.31789605 255.08711007 249.31219482 258.36871338 C249.31269981 261.68858965 249.34022076 265.00832526 249.36132812 268.328125 C249.36360157 270.8723949 249.36430441 273.41666679 249.36328125 275.9609375 C249.372491 277.14763031 249.38170074 278.33432312 249.39118958 279.55697632 C249.35022134 286.93145713 249.01905731 293.30503433 244.16796875 299.2421875 C243.51441406 299.78101563 242.86085938 300.31984375 242.1875 300.875 C241.54167969 301.42929687 240.89585937 301.98359375 240.23046875 302.5546875 C234.84474842 306.04455882 229.34745371 306.37188324 223.125 306.625 C222.34125 306.66367187 221.5575 306.70234375 220.75 306.7421875 C218.83368633 306.83566622 216.91687681 306.91888495 215 307 C214.80365967 307.56920166 214.60731934 308.13840332 214.4050293 308.72485352 C213.50184463 311.33832969 212.59470188 313.95041572 211.6875 316.5625 C211.2244043 317.90538086 211.2244043 317.90538086 210.75195312 319.27539062 C209.01145543 324.27703138 207.15653361 329.16272923 205 334 C205.95777344 333.95359375 206.91554688 333.9071875 207.90234375 333.859375 C227.81098252 333.19162241 246.01100069 339.06016285 262 351 C275.0220926 331.4668611 279.07197141 301.66161397 280.48046875 278.66796875 C280.59793457 276.76567505 280.59793457 276.76567505 280.71777344 274.82495117 C280.86199021 272.31445766 280.98698075 269.80277072 281.09082031 267.2902832 C281.15237305 266.14261475 281.21392578 264.99494629 281.27734375 263.8125 C281.32109131 262.78769531 281.36483887 261.76289063 281.40991211 260.70703125 C282.14751826 257.32325924 283.24788602 256.06000429 286 254 C289.625 254.0625 289.625 254.0625 293 255 C295.42874347 258.64311521 295.34447446 261.34511494 295.3125 265.5625 C295.30758545 266.34407471 295.3026709 267.12564941 295.29760742 267.9309082 C294.79091014 294.85862049 288.91821741 320.58083405 280.18359375 345.92578125 C279.82942383 346.95372803 279.47525391 347.9816748 279.11035156 349.04077148 C278 352 278 352 276.67871094 354.77368164 C275.52704335 357.20302335 274.55610594 359.36920233 274 362 C275.35161597 365.05278779 276.22584383 366.45632481 278.375 368.8125 C279.34134006 370.01051263 280.29960977 371.21507658 281.25 372.42578125 C281.724375 373.02213379 282.19875 373.61848633 282.6875 374.23291016 C294.3463748 389.92988483 297.18615106 413.06765322 294.50390625 432.05078125 C290.38042291 454.48532619 278.97829005 474.81123329 260.5 488.5 C239.67439493 502.41558015 216.30164831 507.89764251 191.3515625 503.26953125 C187.79145241 502.37032819 184.4312968 501.30167354 181 500 C179.96359375 499.63777344 178.9271875 499.27554687 177.859375 498.90234375 C169.51827744 495.74769788 161.65246139 491.13353301 154.96875 485.1953125 C153.07562326 483.79845294 153.07562326 483.79845294 150.83984375 484.08203125 C147.5737815 485.13777352 144.3996517 486.35344848 141.21313477 487.62792969 C116.50196731 497.50602371 89.88878167 504.06348291 63.171875 504.203125 C62.26855438 504.21013931 61.36523376 504.21715363 60.43453979 504.22438049 C57.53964181 504.24177133 54.64494829 504.24823161 51.75 504.25 C50.26702423 504.25101212 50.26702423 504.25101212 48.75408936 504.25204468 C34.61231501 504.23668535 20.89023858 503.87748822 7 501 C6.15099121 500.83902832 5.30198242 500.67805664 4.42724609 500.51220703 C-32.39899579 493.48965385 -67.56869818 478.32863483 -97 455 C-97.8353125 454.35675781 -98.670625 453.71351563 -99.53125 453.05078125 C-151.25303281 412.70451713 -183.70121914 353.58076792 -192.05273438 288.71508789 C-196.96256843 244.48505088 -190.67420559 195.72611236 -170.01464844 155.96142578 C-168.82004182 153.65212127 -167.66585481 151.32394177 -166.5078125 148.99609375 C-160.81465818 137.69486467 -154.56500232 127.14416414 -147 117 C-146.32735107 116.09411133 -146.32735107 116.09411133 -145.64111328 115.16992188 C-138.97327279 106.26666205 -131.7161615 98.0045263 -124 90 C-123.46584473 89.44393066 -122.93168945 88.88786133 -122.38134766 88.31494141 C-115.32254078 81.00440887 -108.10120658 74.16506916 -100 68 C-99.06341553 67.28142822 -99.06341553 67.28142822 -98.10791016 66.54833984 C-67.53300007 43.24522181 -33.32743921 28.43905796 4.22265625 20.58251953 C8.156602 19.75741452 12.07765939 18.87844087 16 18 C14.86820313 17.60167969 13.73640625 17.20335938 12.5703125 16.79296875 C11.08835217 16.25833749 9.60659157 15.72315234 8.125 15.1875 C7.37863281 14.92646484 6.63226563 14.66542969 5.86328125 14.39648438 C5.14785156 14.13544922 4.43242187 13.87441406 3.6953125 13.60546875 C3.03547363 13.36981201 2.37563477 13.13415527 1.69580078 12.89135742 C-0 12 -0 12 -2 9 C-2.33957563 4.92509248 -2.31332486 3.46998729 0 0 Z M19.77050781 77.17358398 C17.76194763 80.38002376 17.37439126 82.12823325 17.36328125 85.88671875 C17.34330078 86.98951172 17.32332031 88.09230469 17.30273438 89.22851562 C17.30595703 90.36998047 17.30917969 91.51144531 17.3125 92.6875 C17.29596977 94.96231405 17.27163359 97.23708914 17.23828125 99.51171875 C17.23868408 100.51678467 17.23908691 101.52185059 17.23950195 102.55737305 C17 105 17 105 15 107 C12.91009438 107.57539484 10.80173994 108.08419654 8.6875 108.5625 C-4.72249594 111.86674962 -18.10752391 117.65760412 -29.74609375 125.1015625 C-33.07859819 126.42994382 -34.59772699 126.20104841 -38 125 C-41.4152391 122.0841927 -44.30793474 118.65842633 -47.2578125 115.28320312 C-47.88171875 114.61095703 -48.505625 113.93871094 -49.1484375 113.24609375 C-49.69677246 112.62404053 -50.24510742 112.0019873 -50.81005859 111.36108398 C-53.4517579 109.71922516 -55.68400124 109.24703078 -58.79315186 109.39122009 C-63.55620603 110.70515358 -66.70746014 114.61957437 -70.05859375 118.06640625 C-70.8883522 118.89325424 -71.71811066 119.72010223 -72.57301331 120.57200623 C-74.31968284 122.32199041 -76.05648173 124.0818749 -77.78393555 125.85083008 C-80.42846479 128.55326694 -83.10831126 131.21641894 -85.79492188 133.87695312 C-87.48921451 135.58372139 -89.18134744 137.29263688 -90.87109375 139.00390625 C-92.07251259 140.19651817 -92.07251259 140.19651817 -93.29820251 141.41322327 C-97.88010721 146.00213553 -97.88010721 146.00213553 -100.07788086 151.92993164 C-99.9886027 155.44928243 -99.5779461 156.4220539 -97.125 158.875 C-96.16787109 159.87466797 -96.16787109 159.87466797 -95.19140625 160.89453125 C-93.65557161 162.37013708 -92.09890598 163.82422344 -90.52734375 165.26171875 C-89.71394531 166.02097656 -88.90054688 166.78023438 -88.0625 167.5625 C-87.29035156 168.24441406 -86.51820312 168.92632812 -85.72265625 169.62890625 C-83.23920583 173.04717021 -83.3781506 174.83020162 -84 179 C-85.43197083 182.35747955 -87.2389769 185.46702584 -89.0625 188.625 C-94.47952469 198.42050268 -98.10440485 208.28487831 -101.36376953 218.9609375 C-102.11806274 221.37838067 -102.90652016 223.71322058 -104 226 C-106.56070754 227.28035377 -108.44033913 227.14269629 -111.3046875 227.17578125 C-112.36300781 227.19962891 -113.42132813 227.22347656 -114.51171875 227.24804688 C-116.74590206 227.29086223 -118.9803362 227.32219593 -121.21484375 227.34179688 C-122.27574219 227.36951172 -123.33664063 227.39722656 -124.4296875 227.42578125 C-125.40147949 227.44036377 -126.37327148 227.45494629 -127.37451172 227.4699707 C-130.78646928 228.15877114 -131.83104489 229.30854917 -134 232 C-134.60189838 234.66523637 -134.60189838 234.66523637 -134.51757812 237.62304688 C-134.53018677 238.75101685 -134.54279541 239.87898682 -134.55578613 241.0411377 C-134.54768921 242.25474976 -134.53959229 243.46836182 -134.53125 244.71875 C-134.5350769 245.96877808 -134.53890381 247.21880615 -134.54284668 248.50671387 C-134.54556914 251.15005905 -134.54019953 253.79192486 -134.52148438 256.43505859 C-134.49869354 259.81817491 -134.51181983 263.20002197 -134.53577423 266.58309174 C-134.55372684 269.81585633 -134.54114701 273.04846882 -134.53125 276.28125 C-134.53934692 277.49486206 -134.54744385 278.70847412 -134.55578613 279.9588623 C-134.54317749 281.08683228 -134.53056885 282.21480225 -134.51757812 283.37695312 C-134.51439575 284.36860474 -134.51121338 285.36025635 -134.50793457 286.38195801 C-133.85944575 289.72445733 -132.64150409 290.91643493 -130 293 C-127.35525289 293.60464562 -127.35525289 293.60464562 -124.46484375 293.5390625 C-123.40845703 293.56226563 -122.35207031 293.58546875 -121.26367188 293.609375 C-119.6172168 293.61710937 -119.6172168 293.61710937 -117.9375 293.625 C-115.75900071 293.65049443 -113.58057608 293.68398252 -111.40234375 293.7265625 C-110.43804443 293.73252441 -109.47374512 293.73848633 -108.48022461 293.74462891 C-106 294 -106 294 -103 296 C-102.10742427 298.40491335 -101.36899976 300.72366061 -100.6875 303.1875 C-97.18597537 315.01164351 -92.88381632 326.20612334 -86.53979492 336.81469727 C-84.09027463 341.09284213 -83.00701227 344.12581827 -84 349 C-86.35286137 352.03572987 -89.13362485 354.51810787 -92 357.0625 C-97.57494902 361.76077074 -97.57494902 361.76077074 -100.9375 367.99609375 C-99.96339168 371.11729915 -99.04828711 372.31195155 -96.90405273 374.70141602 C-95.95355545 375.76085167 -95.95355545 375.76085167 -94.9838562 376.84169006 C-89.84785696 382.42933205 -84.56077175 387.86454121 -79.23950195 393.27539062 C-77.78186194 394.76490681 -76.33234559 396.26241418 -74.89086914 397.76757812 C-72.79129166 399.95827608 -70.66672809 402.12172616 -68.53515625 404.28125 C-67.89844498 404.9561145 -67.2617337 405.630979 -66.60572815 406.32629395 C-63.48677432 409.4319962 -61.28615353 411.41628487 -56.76977539 411.62280273 C-52.89749212 410.98306472 -51.67763985 410.62313507 -49.1484375 407.75390625 C-48.52453125 407.08166016 -47.900625 406.40941406 -47.2578125 405.71679688 C-46.63648438 405.00587891 -46.01515625 404.29496094 -45.375 403.5625 C-39.04690213 396.44987361 -39.04690213 396.44987361 -35.08203125 394.74609375 C-30.48654294 395.12468277 -27.24339492 397.19850417 -23.3125 399.5 C-11.36541516 406.14843643 1.19719551 410.88781469 14.3828125 414.4921875 C16 415 16 415 17 416 C17.09698086 417.71013344 17.13201839 419.42385927 17.140625 421.13671875 C17.15996094 422.18923828 17.17929688 423.24175781 17.19921875 424.32617188 C17.23277515 426.54734738 17.2512789 428.76880697 17.25390625 430.99023438 C17.27839844 432.04919922 17.30289063 433.10816406 17.328125 434.19921875 C17.3374707 435.16690186 17.34681641 436.13458496 17.35644531 437.1315918 C18.24760636 441.10361424 19.56504604 443.80803976 23 446 C27.11449034 446.87483615 31.15106506 446.79304785 35.34375 446.7265625 C36.54559937 446.72755951 37.74744873 446.72855652 38.98571777 446.72958374 C41.52423727 446.72490719 44.06276642 446.70547863 46.60107422 446.67236328 C50.48619525 446.6251677 54.36857133 446.63124385 58.25390625 446.64453125 C60.72137053 446.6333774 63.18882325 446.61915744 65.65625 446.6015625 C66.81781616 446.60338531 67.97938232 446.60520813 69.17614746 446.60708618 C75.50086422 446.54044023 75.50086422 446.54044023 81.20898438 444.08740234 C84.01765139 440.81394229 84.15998486 438.80041105 84.31640625 434.5546875 C84.35830078 433.47832031 84.40019531 432.40195312 84.44335938 431.29296875 C84.48267578 430.16503906 84.52199219 429.03710938 84.5625 427.875 C84.60568359 426.73933594 84.64886719 425.60367187 84.69335938 424.43359375 C84.7996604 421.62252232 84.90169405 418.81136055 85 416 C90.13907123 413.19379663 95.42657535 411.50103187 101 409.75 C116.96890682 405.2548162 116.96890682 405.2548162 129 395 C129.76146836 392.89345614 130.46385482 390.76515143 131.125 388.625 C137.89183572 369.17287225 152.42544105 353.77966322 170.46875 344.1484375 C178.46498554 340.35583046 178.46498554 340.35583046 182.22119141 339.48510742 C185.63828527 338.62748801 188.18649006 337.98454944 190.48168945 335.20678711 C191.74355374 332.91265313 192.76860176 330.61472082 193.75 328.1875 C194.3071167 326.91350342 194.3071167 326.91350342 194.87548828 325.61376953 C198.31619999 317.6205464 201.26723158 309.47070552 203.89453125 301.17578125 C204.55492085 299.10352422 205.270689 297.04901662 206 295 C208.56070754 293.71964623 210.44033913 293.85730371 213.3046875 293.82421875 C214.36300781 293.80037109 215.42132813 293.77652344 216.51171875 293.75195312 C218.74590206 293.70913777 220.9803362 293.67780407 223.21484375 293.65820312 C224.27574219 293.63048828 225.33664062 293.60277344 226.4296875 293.57421875 C227.88737549 293.55234497 227.88737549 293.55234497 229.37451172 293.5300293 C232.78646928 292.84122886 233.83104489 291.69145083 236 289 C236.60189838 286.33476363 236.60189838 286.33476363 236.51757812 283.37695312 C236.53649109 281.68499817 236.53649109 281.68499817 236.55578613 279.9588623 C236.54768921 278.74525024 236.53959229 277.53163818 236.53125 276.28125 C236.53699036 274.40620789 236.53699036 274.40620789 236.54284668 272.49328613 C236.54556914 269.84994095 236.54019953 267.20807514 236.52148438 264.56494141 C236.49869354 261.18182509 236.51181983 257.79997803 236.53577423 254.41690826 C236.55372684 251.18414367 236.54114701 247.95153118 236.53125 244.71875 C236.53934692 243.50513794 236.54744385 242.29152588 236.55578613 241.0411377 C236.54317749 239.91316772 236.53056885 238.78519775 236.51757812 237.62304688 C236.51439575 236.63139526 236.51121338 235.63974365 236.50793457 234.61804199 C235.85899097 231.27319857 234.64713652 230.08143444 232 228 C229.24056328 227.39438938 229.24056328 227.39438938 226.2109375 227.4609375 C225.10492188 227.43773437 223.99890625 227.41453125 222.859375 227.390625 C221.13460937 227.38289063 221.13460937 227.38289063 219.375 227.375 C217.09103654 227.34956611 214.80714367 227.3161236 212.5234375 227.2734375 C211.51200684 227.26747559 210.50057617 227.26151367 209.45849609 227.25537109 C207 227 207 227 205 225 C204.3938495 222.96612219 203.7963842 220.92914341 203.24902344 218.87866211 C199.54426835 205.03062486 193.98534827 190.97802241 186 179 C185.41015625 175.78125 185.41015625 175.78125 186 172 C188.15083152 169.13923632 190.7565425 166.85768701 193.4375 164.5 C198.87385554 159.72780012 198.87385554 159.72780012 202.41015625 153.53125 C201.96022437 149.65755078 201.45831672 149.01319135 198.93652344 146.24975586 C198.29824112 145.54829437 197.6599588 144.84683289 197.00233459 144.12411499 C193.92035466 140.85469149 190.78756353 137.64461818 187.60546875 134.47265625 C186.93203934 133.79827011 186.25860992 133.12388397 185.56477356 132.42906189 C184.1567956 131.02040932 182.74757776 129.61299501 181.3371582 128.20678711 C179.17216396 126.04720227 177.01262744 123.88226118 174.85351562 121.71679688 C173.47948763 120.3434288 172.10514994 118.97037049 170.73046875 117.59765625 C170.08466354 116.94982681 169.43885834 116.30199738 168.77348328 115.63453674 C168.17558487 115.0397905 167.57768646 114.44504425 166.96166992 113.83227539 C166.43651291 113.30791397 165.9113559 112.78355255 165.37028503 112.24330139 C163.20197634 110.2759288 161.78499111 109.96407648 158.84375 109.47265625 C153.25814922 110.23897343 151.11124031 113.33111025 147.5 117.4375 C141.15596807 124.61214229 141.15596807 124.61214229 136.4375 126.1953125 C132.18304974 125.95358237 130.06820804 124.74409163 126.5 122.4375 C115.6437769 115.76235048 103.80041747 111.80040904 91.72558594 107.91552734 C86.09785061 106.09785061 86.09785061 106.09785061 85 105 C84.91513192 103.20478605 84.89180819 101.40659182 84.89453125 99.609375 C84.87229492 97.95615234 84.87229492 97.95615234 84.84960938 96.26953125 C84.82503584 93.93892581 84.81956503 91.60803413 84.83398438 89.27734375 C84.80208008 87.61638672 84.80208008 87.61638672 84.76953125 85.921875 C84.76542236 84.90706055 84.76131348 83.89224609 84.75708008 82.84667969 C83.90814604 79.65462201 82.74685681 77.92329187 80.07600403 75.94934082 C75.52185525 73.86676329 70.472696 74.29292801 65.55859375 74.3359375 C64.35815933 74.33115387 63.15772491 74.32637024 61.9209137 74.32144165 C59.38842454 74.31804553 56.85589138 74.32722753 54.32348633 74.34814453 C50.44708642 74.37493375 46.57357623 74.34837075 42.69726562 74.31640625 C40.23436861 74.31970993 37.77147339 74.3261153 35.30859375 74.3359375 C34.15016464 74.32581635 32.99173553 74.31569519 31.79820251 74.30526733 C25.39697956 74.37658472 25.39697956 74.37658472 19.77050781 77.17358398 Z " fill="#000304" transform="translate(205,4)"/>
<path d="M0 0 C1.21945312 -0.00322266 2.43890625 -0.00644531 3.6953125 -0.00976562 C26.56516731 0.12461921 49.07789573 8.08171647 66.375 23.3125 C67.15746094 23.95316406 67.93992187 24.59382813 68.74609375 25.25390625 C87.87834008 41.46109776 99.78751991 64.58654374 103.375 89.3125 C105.37953739 120.64134575 98.32087731 147.30404401 77.87890625 171.55078125 C66.36196458 184.25355467 53.18704608 192.63275796 37.375 199.3125 C36.50746094 199.69277344 35.63992188 200.07304687 34.74609375 200.46484375 C10.53367642 210.26070725 -16.85147562 207.84097683 -40.60839844 198.18798828 C-66.65955401 186.87812825 -86.05512027 165.52282344 -96.41845703 139.30517578 C-100.72373592 127.76113305 -102.99043774 116.88276494 -102.875 104.5625 C-102.86750732 103.50554932 -102.86001465 102.44859863 -102.85229492 101.35961914 C-102.46243197 72.95625152 -91.50865369 49.04341646 -72.1875 28.5 C-52.26991238 9.67313742 -27.31465683 -0.36322682 0 0 Z " fill="#E1E4E6" transform="translate(255.625,161.6875)"/>
<path d="M0 0 C18.44409706 -0.66465215 36.69288947 5.99240949 50.67578125 18.078125 C65.34735112 31.95316481 74.80126191 48.6992142 75.4453125 69.10595703 C75.59523287 89.21715006 70.33944257 108.39652014 56.11279297 123.15942383 C41.59658185 137.56842144 23.50164922 146.59383024 2.84375 146.75 C-16.16594741 146.44257044 -32.89415203 139.95175955 -47.09375 127.1875 C-47.70476562 126.66929687 -48.31578125 126.15109375 -48.9453125 125.6171875 C-60.99341928 114.66936445 -69.25696474 97.06294803 -70.23095703 80.91235352 C-71.09992665 59.63519168 -66.77024951 41.14640616 -52.39453125 24.64453125 C-40.44486427 11.8833419 -23.37851649 1.32110546 -5.4375 0.25 C-3.62373008 0.2016328 -1.81109159 0.10976313 0 0 Z " fill="#3AB149" transform="translate(412.09375,349.8125)"/>
<path d="M0 0 C0.80050781 0.66644531 1.60101563 1.33289063 2.42578125 2.01953125 C23.4818111 20.19386495 37.36461705 46.40214999 41 74 C43.2768916 109.83009207 34.23082339 139.83518031 10.6875 167.125 C-7.96407733 187.29585659 -35.10645256 201.48409046 -62.73266602 203.23681641 C-66.82458931 203.3757483 -70.90614113 203.43878861 -75 203.4375 C-75.72377838 203.4385675 -76.44755676 203.43963501 -77.19326782 203.44073486 C-89.36177627 203.41490687 -100.5027604 202.15232031 -112 198 C-113.23878906 197.56558594 -114.47757812 197.13117188 -115.75390625 196.68359375 C-143.82407847 185.67506811 -167.06246438 163.35585423 -179.375 135.9375 C-182.6112133 128.46705572 -185.16030971 120.94163333 -187 113 C-187.17587646 112.27748047 -187.35175293 111.55496094 -187.53295898 110.81054688 C-189.06499017 104.01484072 -189.34860096 97.45149865 -189.3125 90.5 C-189.30686035 89.35797119 -189.3012207 88.21594238 -189.29541016 87.03930664 C-188.84444672 55.28210457 -176.47891419 27.51499591 -154 5 C-139.92637944 -7.98494386 -123.43675134 -17.39402799 -105.125 -22.875 C-104.10937988 -23.17990356 -104.10937988 -23.17990356 -103.07324219 -23.4909668 C-67.62748668 -33.46710642 -27.76745557 -23.44261293 0 0 Z M-105 -10 C-106.16789062 -9.649375 -107.33578125 -9.29875 -108.5390625 -8.9375 C-134.35276555 -0.69543073 -154.57502919 19.02738415 -166.98046875 42.703125 C-178.46889419 65.6169516 -181.08242736 93.59319633 -173 118 C-172.649375 119.16273438 -172.29875 120.32546875 -171.9375 121.5234375 C-167.04410613 136.64538383 -158.92055461 149.5487196 -148 161 C-147.17113281 161.87140625 -146.34226562 162.7428125 -145.48828125 163.640625 C-126.40551802 182.22659347 -99.85311086 192.30689363 -73.37109375 192.24438477 C-49.65064762 191.88261959 -26.11088596 183.5003078 -8 168 C-7.21238281 167.35675781 -6.42476562 166.71351563 -5.61328125 166.05078125 C6.19069657 156.02573886 14.36579083 143.86723058 21 130 C21.40863281 129.175 21.81726563 128.35 22.23828125 127.5 C31.61419992 106.6485361 32.1323622 80.47138205 25 59 C24.566875 57.46279297 24.566875 57.46279297 24.125 55.89453125 C17.16329517 32.3676984 0.02911283 11.45816732 -21.30859375 -0.46875 C-33.69272196 -7.16888343 -33.69272196 -7.16888343 -47 -11.625 C-47.969375 -11.86476562 -48.93875 -12.10453125 -49.9375 -12.3515625 C-67.6725246 -16.1066825 -87.82506757 -15.97388954 -105 -10 Z " fill="#020404" transform="translate(330,176)"/>
<path d="M0 0 C10.08949275 9.31337793 15.56564802 21.77708189 16.21875 35.375 C15.88453847 47.58098646 11.6361016 58.90746697 3.71875 68.1875 C3.21988281 68.81914062 2.72101563 69.45078125 2.20703125 70.1015625 C-2.99723921 76.05304559 -10.19304727 79.0120522 -17.28125 82.1875 C-18.44720703 82.77144531 -18.44720703 82.77144531 -19.63671875 83.3671875 C-23.57127591 84.58765575 -27.37186467 84.52761136 -31.46875 84.5 C-32.31937012 84.49508545 -33.16999023 84.4901709 -34.04638672 84.48510742 C-40.21212415 84.37005299 -45.61415971 83.77010388 -51.28125 81.1875 C-52.02117187 80.85878906 -52.76109375 80.53007812 -53.5234375 80.19140625 C-65.72106084 74.09259458 -74.68848893 63.93016062 -79.28125 51.1875 C-82.27298873 40.23773625 -81.88953472 25.7789314 -76.7578125 15.6875 C-76.02691406 14.45 -76.02691406 14.45 -75.28125 13.1875 C-74.61222656 11.9809375 -74.61222656 11.9809375 -73.9296875 10.75 C-67.25063746 -0.2946861 -56.61028349 -7.46095818 -44.34375 -11.1875 C-28.23939906 -14.41502488 -12.70247315 -10.09237593 0 0 Z " fill="#FCC95A" transform="translate(447.28125,386.8125)"/>
<path d="M0 0 C-2.72005213 1.81336809 -5.45249539 3.20848899 -8.39550781 4.61425781 C-17.92098155 9.18913731 -26.60026306 14.32871308 -34 22 C-33.2265625 22.5259375 -33.2265625 22.5259375 -32.4375 23.0625 C-31 25 -31 25 -31.125 28.5625 C-32 32 -32 32 -35 34 C-38.1758769 34.40716371 -39.51200197 34.34327529 -42.16015625 32.48046875 C-42.76730469 31.99191406 -43.37445313 31.50335938 -44 31 C-63.77460604 56.93390956 -73.49406064 86.15228918 -69.27734375 118.8425293 C-66.20423578 138.91707727 -57.28919885 158.61700455 -44 174 C-43.41476563 173.50242187 -42.82953125 173.00484375 -42.2265625 172.4921875 C-40 171 -40 171 -36.375 171.125 C-33 172 -33 172 -31 175 C-30.59283629 178.1758769 -30.65672471 179.51200197 -32.51953125 182.16015625 C-33.00808594 182.76730469 -33.49664062 183.37445313 -34 184 C-22.18841926 193.34542652 -8.55113962 204.00216196 6.9375 204.6875 C7.62134766 204.72166016 8.30519531 204.75582031 9.00976562 204.79101562 C10.672644 204.87241527 12.3362889 204.93790525 14 205 C14 205.33 14 205.66 14 206 C-17.71636668 206.99113646 -44.91939522 197.07259126 -68.1875 175.25 C-86.09287325 156.40223868 -97.49389404 130.27995583 -97.25 104.25 C-97.24250732 103.19304932 -97.23501465 102.13609863 -97.22729492 101.04711914 C-96.83743197 72.64375152 -85.88365369 48.73091646 -66.5625 28.1875 C-49.26871426 11.84075491 -24.37407802 -1.26072817 0 0 Z " fill="#C6CDD4" transform="translate(250,162)"/>
<path d="M0 0 C1.08667969 0.45246094 2.17335938 0.90492188 3.29296875 1.37109375 C18.63284348 8.34680559 29.84167101 19.72031126 36.40625 35.34765625 C41.10929527 48.90250459 41.40788391 62.31838632 37 76 C36.73316406 76.85207031 36.46632813 77.70414062 36.19140625 78.58203125 C30.42019921 94.86966 17.92485672 105.43295816 3 113 C-8.99298565 118.5031105 -26.01611934 119.37334242 -38.625 115.375 C-40.43777602 114.63294296 -42.2314492 113.84204135 -44 113 C-44.90492188 112.59910156 -45.80984375 112.19820313 -46.7421875 111.78515625 C-63.09094145 103.79603428 -73.14463355 89.7773214 -79.08203125 72.9296875 C-82.50644669 60.54821824 -81.2450614 44.63747998 -76 33 C-75.5875 32.06414062 -75.175 31.12828125 -74.75 30.1640625 C-67.16999808 14.78871769 -53.71146301 4.21812863 -37.6953125 -1.34375 C-25.8695595 -4.22306377 -11.2901179 -4.89882254 0 0 Z M-59.05859375 27.37890625 C-61.98453793 31.32922526 -64.17065332 35.44500024 -66 40 C-66.54914063 41.31291016 -66.54914063 41.31291016 -67.109375 42.65234375 C-68.32997216 47.2402901 -68.32922719 51.58539678 -68.3125 56.3125 C-68.32861328 57.21162109 -68.34472656 58.11074219 -68.36132812 59.03710938 C-68.36580135 65.22358113 -67.32600796 70.27857138 -65 76 C-64.72043457 76.69343506 -64.44086914 77.38687012 -64.15283203 78.10131836 C-58.97404303 90.3265764 -47.88910979 98.08200182 -36.140625 103.23828125 C-25.38604594 107.06518438 -11.8270549 106.63586255 -1.4375 102.0625 C11.00124697 96.14692016 20.59139553 86.27261795 25.26074219 73.25341797 C29.38208787 60.67231149 29.21273273 49.32657976 24 37 C17.46201377 24.50662037 8.31432931 15.55536564 -5.20703125 10.89453125 C-25.94774455 5.5526063 -45.07810274 10.94745259 -59.05859375 27.37890625 Z " fill="#030401" transform="translate(435,366)"/>
<path d="M0 0 C1.68824768 1.21968079 1.68824768 1.21968079 3 3 C3.21031189 5.22721863 3.21031189 5.22721863 2.98803711 7.86010742 C2.91861908 8.84972473 2.84920105 9.83934204 2.77767944 10.85894775 C2.69506866 11.93029968 2.61245789 13.00165161 2.52734375 14.10546875 C-0.1149495 37.57183263 -0.1149495 37.57183263 6.65332031 58.93945312 C12.73991091 64.77593589 20.81343181 67.52413963 28.7355957 69.93945312 C33.13245058 71.36791304 36.32483572 73.20741827 40 76 C41.1875 79.625 41.1875 79.625 41 83 C40 84.9375 40 84.9375 38 86 C30.90064921 87.0341574 26.49969817 83.8187953 20.625 80.125 C18.67607752 78.93310918 16.72685495 77.7417089 14.77734375 76.55078125 C13.81038574 75.95346191 12.84342773 75.35614258 11.84716797 74.74072266 C9.19018005 73.11627369 6.51347036 71.53725115 3.81640625 69.98046875 C3.03120605 69.52720215 2.24600586 69.07393555 1.43701172 68.60693359 C-0.03522074 67.75976879 -1.50880464 66.91494716 -2.98388672 66.07275391 C-7.88938628 63.22122743 -7.88938628 63.22122743 -9 61 C-9.10623554 59.16773709 -9.14880933 57.33163664 -9.16113281 55.49633789 C-9.17074036 54.34496841 -9.1803479 53.19359894 -9.19024658 52.00733948 C-9.19449646 50.75839401 -9.19874634 49.50944855 -9.203125 48.22265625 C-9.20882507 46.94523056 -9.21452515 45.66780487 -9.22039795 44.35166931 C-9.22985795 41.64562412 -9.23674984 38.93969012 -9.24023438 36.23364258 C-9.24572284 32.76544098 -9.26975888 29.29763125 -9.29820633 25.82955265 C-9.32130165 22.52311671 -9.32328009 19.21666158 -9.328125 15.91015625 C-9.3404718 14.66323502 -9.3528186 13.41631378 -9.36553955 12.13160706 C-9.36253845 10.97708542 -9.35953735 9.82256378 -9.35644531 8.63305664 C-9.36009094 7.61538712 -9.36373657 6.59771759 -9.36749268 5.54920959 C-9 3 -9 3 -7.66522217 1.17137146 C-5.07250119 -0.65243285 -3.07445663 -0.38430708 0 0 Z " fill="#020202" transform="translate(259,206)"/>
<path d="M0 0 C3.25585938 1.01000977 3.25585938 1.01000977 5.25585938 4.01000977 C5.4305047 7.35339759 4.75821928 9.35390096 2.72476196 12.00970459 C0.56599697 14.38073441 -1.66612174 16.65091239 -3.94335938 18.90844727 C-4.77116409 19.74340729 -5.59896881 20.57836731 -6.45185852 21.43862915 C-8.20344314 23.1979898 -9.9614443 24.95098226 -11.7253418 26.69799805 C-14.42369254 29.37711832 -17.09143267 32.08426864 -19.7578125 34.79516602 C-21.46372279 36.50136664 -23.17134905 38.20585368 -24.88085938 39.90844727 C-25.67795822 40.72082855 -26.47505707 41.53320984 -27.29631042 42.37020874 C-28.05341812 43.11163116 -28.81052582 43.85305359 -29.59057617 44.61694336 C-30.24930222 45.27391205 -30.90802826 45.93088074 -31.5867157 46.60775757 C-34.4747741 48.48489646 -36.36551443 48.42386746 -39.74414062 48.01000977 C-44.93298036 43.17759193 -48.14134227 36.56058675 -51.61914062 30.44750977 C-52.225 29.41948242 -52.83085937 28.39145508 -53.45507812 27.33227539 C-54.30585938 25.84050781 -54.30585938 25.84050781 -55.17382812 24.31860352 C-55.69187012 23.41940186 -56.20991211 22.5202002 -56.74365234 21.59375 C-57.92186314 18.55104506 -57.73791183 17.07900909 -56.74414062 14.01000977 C-55.49414062 12.19750977 -55.49414062 12.19750977 -53.74414062 11.01000977 C-51.31445312 10.73266602 -51.31445312 10.73266602 -48.74414062 11.01000977 C-47.18945312 12.33813477 -47.18945312 12.33813477 -45.86914062 14.26000977 C-45.37414062 14.97672852 -44.87914062 15.69344727 -44.36914062 16.43188477 C-41.35599715 21.21235279 -38.51735352 26.08714665 -35.74414062 31.01000977 C-31.10242486 27.2686268 -26.94954536 23.22258485 -22.83789062 18.92016602 C-21.75349284 17.79558786 -20.6688531 16.67124298 -19.58398438 15.54711914 C-17.90168293 13.80288492 -16.22656717 12.05377106 -14.56884766 10.28613281 C-12.94772501 8.56205533 -11.30221065 6.8647864 -9.65039062 5.17016602 C-8.91725647 4.37039085 -8.91725647 4.37039085 -8.16931152 3.55445862 C-5.3363289 0.69873636 -4.08545905 0.01092226 0 0 Z " fill="#030402" transform="translate(440.744140625,398.989990234375)"/>
<path d="M0 0 C0.66 0.33 1.32 0.66 2 1 C0.71372289 2.17260611 -0.57919783 3.3379283 -1.875 4.5 C-2.59429687 5.1496875 -3.31359375 5.799375 -4.0546875 6.46875 C-6 8 -6 8 -8 8 C-8.2475 8.556875 -8.495 9.11375 -8.75 9.6875 C-10 12 -10 12 -11.88671875 14.30078125 C-19.75044762 24.3448416 -24.4662429 38.19618873 -23 51 C-21.07611459 65.07382837 -15.79051384 78.37216912 -5 88 C-2.42530276 89.86610535 0.19030131 91.51295202 3 93 C0.07686607 94.25277168 -1.04921255 93.98227356 -4.1015625 92.8828125 C-18.03209775 85.93298893 -28.61107776 76.95161758 -34 62 C-36.99173873 51.05023625 -36.60828472 36.5914314 -31.4765625 26.5 C-30.74566406 25.2625 -30.74566406 25.2625 -30 24 C-29.33097656 22.7934375 -29.33097656 22.7934375 -28.6484375 21.5625 C-22.07467056 10.69191333 -11.93137532 3.97712511 0 0 Z " fill="#F2B54C" transform="translate(402,376)"/>
<path d="M0 0 C1.8125 1.125 1.8125 1.125 3 3 C3.39365568 6.14924548 3.52854531 8.11909116 1.875 10.875 C-0.88090884 12.52854531 -2.85075452 12.39365568 -6 12 C-7.875 10.875 -7.875 10.875 -9 9 C-9.4375 6 -9.4375 6 -9 3 C-6.30254095 0.00282328 -3.95012118 -0.60771095 0 0 Z " fill="#080809" transform="translate(302,333)"/>
<path d="M0 0 C2.15502531 3.23253796 2.46856135 4.25150923 2 8 C0.875 9.8125 0.875 9.8125 -1 11 C-4.14924548 11.39365568 -6.11909116 11.52854531 -8.875 9.875 C-10.52854531 7.11909116 -10.39365568 5.14924548 -10 2 C-7.65569181 -2.27491494 -4.20074737 -1.06928115 0 0 Z " fill="#070708" transform="translate(217,334)"/>
<path d="M0 0 C3.5625 0.3125 3.5625 0.3125 5.5 1.5 C6.97609492 4.01804428 7.05339348 5.43726676 6.5625 8.3125 C4.9375 10.6875 4.9375 10.6875 2.5625 12.3125 C-1.1360004 12.16455998 -2.79555573 11.95444427 -5.4375 9.3125 C-5.6875 5.8125 -5.6875 5.8125 -5.4375 2.3125 C-3.4375 0.3125 -3.4375 0.3125 0 0 Z " fill="#09090A" transform="translate(330.4375,301.6875)"/>
<path d="M0 0 C2 2 2 2 2.375 5.4375 C2 9 2 9 0.3125 11 C-2.64288086 12.27800253 -3.98998383 12.08051862 -7 11 C-8.8125 9.75 -8.8125 9.75 -10 8 C-10.42317323 5.17884512 -10.38718434 3.66049093 -8.9375 1.1875 C-5.94449731 -0.646921 -3.42183337 -0.31107576 0 0 Z " fill="#090909" transform="translate(185,302)"/>
<path d="M0 0 C2 2 2 2 2.375 5.4375 C2 9 2 9 0.3125 11 C-2.64288086 12.27800253 -3.98998383 12.08051862 -7 11 C-8.8125 9.75 -8.8125 9.75 -10 8 C-10.42317323 5.17884512 -10.38718434 3.66049093 -8.9375 1.1875 C-5.94449731 -0.646921 -3.42183337 -0.31107576 0 0 Z " fill="#09090A" transform="translate(346,259)"/>
<path d="M0 0 C3.5625 0.3125 3.5625 0.3125 5.5 1.5 C6.97609492 4.01804428 7.05339348 5.43726676 6.5625 8.3125 C4.9375 10.6875 4.9375 10.6875 2.5625 12.3125 C-1.1360004 12.16455998 -2.79555573 11.95444427 -5.4375 9.3125 C-5.6875 5.8125 -5.6875 5.8125 -5.4375 2.3125 C-3.4375 0.3125 -3.4375 0.3125 0 0 Z " fill="#090909" transform="translate(169.4375,258.6875)"/>
<path d="M0 0 C1.8125 1.25 1.8125 1.25 3 3 C3.42317323 5.82115488 3.38718434 7.33950907 1.9375 9.8125 C-1.05550269 11.646921 -3.57816663 11.31107576 -7 11 C-9 9 -9 9 -9.375 5.5625 C-9 2 -9 2 -7.3125 0 C-4.35711914 -1.27800253 -3.01001617 -1.08051862 0 0 Z " fill="#0A0A0A" transform="translate(334,216)"/>
<path d="M0 0 C2.875 0.875 2.875 0.875 4.875 2.875 C5.125 6.375 5.125 6.375 4.875 9.875 C2.875 11.875 2.875 11.875 -0.5625 12.1875 C-4.125 11.875 -4.125 11.875 -6.0625 10.6875 C-7.53859492 8.16945572 -7.61589348 6.75023324 -7.125 3.875 C-4.88889892 0.60685227 -4.01504863 -0.16060195 0 0 Z " fill="#09090A" transform="translate(182.125,215.125)"/>
<path d="M0 0 C1.9375 1.0625 1.9375 1.0625 3 3 C2.875 6.5625 2.875 6.5625 2 10 C-1.23253796 12.15502531 -2.25150923 12.46856135 -6 12 C-7.8125 10.875 -7.8125 10.875 -9 9 C-9.39365568 5.85075452 -9.52854531 3.88090884 -7.875 1.125 C-5.11909116 -0.52854531 -3.14924548 -0.39365568 0 0 Z " fill="#070708" transform="translate(216,184)"/>
<path d="M0 0 C2 2 2 2 2.3125 4.9375 C2 8 2 8 0.875 9.875 C-1.88090884 11.52854531 -3.85075452 11.39365568 -7 11 C-8.875 9.875 -8.875 9.875 -10 8 C-10.4375 5 -10.4375 5 -10 2 C-6.94783427 -1.63912068 -4.35383535 -1.23043173 0 0 Z " fill="#070708" transform="translate(260,173)"/>
<path d="M0 0 C1.875 1.125 1.875 1.125 3 3 C3.4375 6 3.4375 6 3 9 C1.375 10.9375 1.375 10.9375 -1 12 C-4.125 11.875 -4.125 11.875 -7 11 C-9.15502531 7.76746204 -9.46856135 6.74849077 -9 3 C-6.73529086 -0.64869805 -4.03159541 -0.50394943 0 0 Z " fill="#060607" transform="translate(302,184)"/>
<path d="M0 0 C1.9375 1.0625 1.9375 1.0625 3 3 C2.875 6.5625 2.875 6.5625 2 10 C-1 12 -1 12 -4.0625 11.8125 C-7 11 -7 11 -9 8 C-9.35384949 5.16920408 -9.3920891 3.63169911 -7.875 1.1875 C-5.12844028 -0.55198782 -3.18153026 -0.39769128 0 0 Z " fill="#050506" transform="translate(259,345)"/>
<path d="M0 0 C-0.598125 0.268125 -1.19625 0.53625 -1.8125 0.8125 C-4.10528425 2.05715431 -5.38613312 2.95576862 -7 5 C-7.57775884 7.73230305 -7.57775884 7.73230305 -7.6875 10.6875 C-7.75324219 11.68136719 -7.81898438 12.67523438 -7.88671875 13.69921875 C-7.92410156 14.45847656 -7.96148437 15.21773438 -8 16 C-8.33 16 -8.66 16 -9 16 C-9.10841951 14.08458862 -9.18578079 12.16740227 -9.25 10.25 C-9.29640625 9.18265625 -9.3428125 8.1153125 -9.390625 7.015625 C-9 4 -9 4 -7.15625 1.625 C-4.55842109 -0.3327841 -3.17871322 -0.35319036 0 0 Z " fill="#002E3D" transform="translate(496,258)"/>
</svg>
