<?xml version="1.0" encoding="UTF-8"?>
<svg version="1.1" xmlns="http://www.w3.org/2000/svg" width="512" height="512">
<path d="M0 0 C1.04658028 -0.00779995 2.09316055 -0.01559991 3.17145538 -0.02363622 C6.66609769 -0.04352397 10.15964716 -0.02780323 13.65429688 -0.01205444 C16.16463861 -0.01883194 18.67497538 -0.0277358 21.18530273 -0.03860474 C27.28844911 -0.05902392 33.39119314 -0.05605393 39.49434471 -0.04154153 C44.45597225 -0.03023357 49.41751366 -0.02872509 54.37915039 -0.03416061 C55.08624917 -0.03492678 55.79334794 -0.03569294 56.52187395 -0.03648233 C57.95848785 -0.03808101 59.39510173 -0.03970208 60.83171558 -0.04134528 C74.29188762 -0.05559116 87.75188919 -0.03922837 101.21203327 -0.01234345 C112.75276898 0.00999434 124.2932532 0.00611388 135.83398438 -0.01693726 C149.24712003 -0.04371587 162.66010642 -0.05421798 176.07326508 -0.03887594 C177.50449115 -0.03728325 178.93571724 -0.0357114 180.36694336 -0.03416061 C181.07106999 -0.03338924 181.77519662 -0.03261786 182.50066042 -0.03182311 C187.45433426 -0.02751227 192.40791314 -0.03477931 197.36157227 -0.04655838 C204.03315885 -0.06207424 210.70419804 -0.05097289 217.37576294 -0.0220871 C219.82348848 -0.01547866 222.27125401 -0.01736972 224.71896362 -0.02840042 C228.06187869 -0.04207588 231.40327528 -0.02491336 234.74609375 0 C235.71341682 -0.01115361 236.6807399 -0.02230722 237.67737579 -0.03379881 C244.09130077 0.05884038 248.43144494 1.46278542 253.37304688 5.63491821 C257.6913722 10.35468445 258.9013965 15.48367938 260.18554688 21.63491821 C262.85091364 34.35808781 268.61881464 45.96431869 277.37304688 55.63491821 C278.22576172 56.62491821 278.22576172 56.62491821 279.09570312 57.63491821 C292.18341379 71.86189881 311.92420911 80.00876818 330.74804688 82.57241821 C337.5500405 83.60632124 342.03704625 86.17597019 346.74804688 91.13491821 C350.43143242 96.80166521 350.6619475 101.47738358 350.63183594 108.06484985 C350.6370929 109.48079185 350.6370929 109.48079185 350.64245605 110.92533875 C350.65126038 114.04865879 350.64542163 117.17175205 350.63867188 120.29507446 C350.64002058 122.48204084 350.64196282 124.66900693 350.64447021 126.85597229 C350.64742112 131.45004111 350.64313107 136.04403225 350.63378906 140.63809204 C350.6224956 146.47086195 350.62888939 152.30344573 350.64093399 158.13620853 C350.64824036 162.66210777 350.6458232 167.18796461 350.64067841 171.71386528 C350.63936072 173.86042745 350.6409222 176.0069937 350.64563751 178.1535511 C350.66376873 188.74384692 350.51707542 199.30245492 349.66894531 209.8631897 C349.61663883 210.69269921 349.56433235 211.52220873 349.51044083 212.3768549 C349.12431179 216.43816453 348.85324929 218.12367071 345.97955322 221.18315125 C343.37304688 222.63491821 343.37304688 222.63491821 340.37304688 222.63491821 C340.251875 223.78089478 340.13070313 224.92687134 340.00585938 226.10757446 C339.83690422 227.63755727 339.66761561 229.16750328 339.49804688 230.69741821 C339.41941406 231.44958618 339.34078125 232.20175415 339.25976562 232.97671509 C338.72516708 237.72641752 337.8139754 242.07601409 336.37304688 246.63491821 C336.99179687 246.71741821 337.61054688 246.79991821 338.24804688 246.88491821 C340.37304688 247.63491821 340.37304688 247.63491821 341.51782227 249.42935181 C348.30174263 266.92462344 328.38481581 303.48148648 321.48632812 319.38101196 C309.8364521 345.5496059 295.06739216 370.0928071 277.37304688 392.63491821 C276.74527344 393.4431604 276.1175 394.25140259 275.47070312 395.08413696 C266.14627947 406.92558295 256.23135116 418.11622984 245.53637695 428.73233032 C243.80049956 430.45740299 242.07569597 432.19303812 240.3515625 433.92984009 C233.66580256 440.62349895 226.79963666 446.76285811 219.37304688 452.63491821 C218.34520595 453.49796015 217.32179589 454.36636489 216.30664062 455.24429321 C192.8977345 475.31953665 146.62699174 513.5707546 114.91210938 513.15444946 C108.54330997 512.21951533 103.29656032 509.0196635 97.74707031 505.93130493 C95.18124636 504.5301814 92.58497165 503.20503142 89.97460938 501.88882446 C60.44059175 486.94165336 33.30316491 468.39023612 8.37304688 446.63491821 C7.49003906 445.8653479 6.60703125 445.09577759 5.69726562 444.30288696 C-1.00047999 438.30302512 -7.39702659 431.99205109 -13.77789307 425.65921021 C-14.78511544 424.6600296 -15.79381343 423.6623338 -16.80413818 422.66629028 C-23.54811808 416.00756325 -29.72856426 409.06383156 -35.62695312 401.63491821 C-36.60340054 400.46098876 -37.58328789 399.28990169 -38.56835938 398.12319946 C-51.54607108 382.51007384 -62.65416468 365.19784143 -72.57714844 347.50405884 C-73.56642224 345.74269134 -74.57650755 343.99305917 -75.58789062 342.24429321 C-87.90566645 320.22312664 -111.1203548 276.66418562 -107.62695312 250.63491821 C-106.30897935 249.19894679 -104.99079691 247.7631591 -103.66845703 246.33120728 C-101.57582351 242.92295183 -102.9517121 239.1953555 -103.81445312 235.50991821 C-104.1435834 233.92445795 -104.47048554 232.33853316 -104.79492188 230.75210571 C-104.9524292 230.05713989 -105.10993652 229.36217407 -105.2722168 228.64614868 C-105.62695312 226.63491821 -105.62695312 226.63491821 -105.62695312 222.63491821 C-106.77164063 222.48023071 -106.77164063 222.48023071 -107.93945312 222.32241821 C-110.90414661 221.56400825 -111.73637825 220.96498706 -113.62695312 218.63491821 C-114.18027316 215.6782545 -114.54850691 212.90381806 -114.79345703 209.9190979 C-114.87302454 209.03421062 -114.95259205 208.14932335 -115.03457069 207.23762131 C-115.91614613 196.53223146 -115.95535474 185.82301251 -115.96289062 175.08804321 C-115.96933804 172.89376748 -115.97606775 170.69949256 -115.98306274 168.50521851 C-115.99492126 163.95044965 -115.99875447 159.39575606 -115.99755859 154.8409729 C-115.99735368 149.01740728 -116.02488317 143.19432021 -116.05910301 137.37086868 C-116.08134802 132.85834538 -116.0853972 128.34593892 -116.08433914 123.83336639 C-116.08668992 121.6852424 -116.09548374 119.53711493 -116.11100388 117.38904572 C-116.13065644 114.39415963 -116.12483314 111.40033004 -116.11279297 108.40542603 C-116.12403198 107.53053528 -116.135271 106.65564453 -116.14685059 105.75424194 C-116.08159768 99.34864706 -114.69040693 93.86861526 -110.17963219 89.10716629 C-106.21259259 85.66499553 -102.46299835 83.61824427 -97.31835938 82.74038696 C-96.4952124 82.59230591 -95.67206543 82.44422485 -94.82397461 82.29165649 C-93.95458252 82.13680786 -93.08519043 81.98195923 -92.18945312 81.82241821 C-75.20547065 78.59333835 -60.68032001 72.07568218 -47.62695312 60.63491821 C-46.92699219 60.0303479 -46.22703125 59.42577759 -45.50585938 58.80288696 C-33.74007403 47.90864128 -27.34875878 32.67683165 -24.14550781 17.24111938 C-22.76907904 11.00564622 -20.43187779 6.63266248 -15.14245605 2.99735451 C-10.15337853 -0.01319615 -5.71402531 -0.06588492 0 0 Z " fill="#34B69D" transform="translate(138.626953125,-0.634918212890625)"/>
<path d="M0 0 C1.04658028 -0.00779995 2.09316055 -0.01559991 3.17145538 -0.02363622 C6.66609769 -0.04352397 10.15964716 -0.02780323 13.65429688 -0.01205444 C16.16463861 -0.01883194 18.67497538 -0.0277358 21.18530273 -0.03860474 C27.28844911 -0.05902392 33.39119314 -0.05605393 39.49434471 -0.04154153 C44.45597225 -0.03023357 49.41751366 -0.02872509 54.37915039 -0.03416061 C55.08624917 -0.03492678 55.79334794 -0.03569294 56.52187395 -0.03648233 C57.95848785 -0.03808101 59.39510173 -0.03970208 60.83171558 -0.04134528 C74.29188762 -0.05559116 87.75188919 -0.03922837 101.21203327 -0.01234345 C112.75276898 0.00999434 124.2932532 0.00611388 135.83398438 -0.01693726 C149.24712003 -0.04371587 162.66010642 -0.05421798 176.07326508 -0.03887594 C177.50449115 -0.03728325 178.93571724 -0.0357114 180.36694336 -0.03416061 C181.07106999 -0.03338924 181.77519662 -0.03261786 182.50066042 -0.03182311 C187.45433426 -0.02751227 192.40791314 -0.03477931 197.36157227 -0.04655838 C204.03315885 -0.06207424 210.70419804 -0.05097289 217.37576294 -0.0220871 C219.82348848 -0.01547866 222.27125401 -0.01736972 224.71896362 -0.02840042 C228.06187869 -0.04207588 231.40327528 -0.02491336 234.74609375 0 C235.71341682 -0.01115361 236.6807399 -0.02230722 237.67737579 -0.03379881 C244.09130077 0.05884038 248.43144494 1.46278542 253.37304688 5.63491821 C257.6913722 10.35468445 258.9013965 15.48367938 260.18554688 21.63491821 C262.85091364 34.35808781 268.61881464 45.96431869 277.37304688 55.63491821 C278.22576172 56.62491821 278.22576172 56.62491821 279.09570312 57.63491821 C292.18341379 71.86189881 311.92420911 80.00876818 330.74804688 82.57241821 C337.5500405 83.60632124 342.03704625 86.17597019 346.74804688 91.13491821 C350.43143242 96.80166521 350.6619475 101.47738358 350.63183594 108.06484985 C350.6370929 109.48079185 350.6370929 109.48079185 350.64245605 110.92533875 C350.65126038 114.04865879 350.64542163 117.17175205 350.63867188 120.29507446 C350.64002058 122.48204084 350.64196282 124.66900693 350.64447021 126.85597229 C350.64742112 131.45004111 350.64313107 136.04403225 350.63378906 140.63809204 C350.6224956 146.47086195 350.62888939 152.30344573 350.64093399 158.13620853 C350.64824036 162.66210777 350.6458232 167.18796461 350.64067841 171.71386528 C350.63936072 173.86042745 350.6409222 176.0069937 350.64563751 178.1535511 C350.66376873 188.74384692 350.51707542 199.30245492 349.66894531 209.8631897 C349.61663883 210.69269921 349.56433235 211.52220873 349.51044083 212.3768549 C349.12431179 216.43816453 348.85324929 218.12367071 345.97955322 221.18315125 C343.37304688 222.63491821 343.37304688 222.63491821 340.37304688 222.63491821 C340.251875 223.78089478 340.13070313 224.92687134 340.00585938 226.10757446 C339.83690422 227.63755727 339.66761561 229.16750328 339.49804688 230.69741821 C339.41941406 231.44958618 339.34078125 232.20175415 339.25976562 232.97671509 C338.72516708 237.72641752 337.8139754 242.07601409 336.37304688 246.63491821 C336.99179687 246.71741821 337.61054688 246.79991821 338.24804688 246.88491821 C340.37304688 247.63491821 340.37304688 247.63491821 341.51782227 249.42935181 C348.30174263 266.92462344 328.38481581 303.48148648 321.48632812 319.38101196 C309.8364521 345.5496059 295.06739216 370.0928071 277.37304688 392.63491821 C276.74527344 393.4431604 276.1175 394.25140259 275.47070312 395.08413696 C266.14627947 406.92558295 256.23135116 418.11622984 245.53637695 428.73233032 C243.80049956 430.45740299 242.07569597 432.19303812 240.3515625 433.92984009 C233.66580256 440.62349895 226.79963666 446.76285811 219.37304688 452.63491821 C218.34520595 453.49796015 217.32179589 454.36636489 216.30664062 455.24429321 C192.8977345 475.31953665 146.62699174 513.5707546 114.91210938 513.15444946 C108.54330997 512.21951533 103.29656032 509.0196635 97.74707031 505.93130493 C95.18124636 504.5301814 92.58497165 503.20503142 89.97460938 501.88882446 C60.44059175 486.94165336 33.30316491 468.39023612 8.37304688 446.63491821 C7.49003906 445.8653479 6.60703125 445.09577759 5.69726562 444.30288696 C-1.00047999 438.30302512 -7.39702659 431.99205109 -13.77789307 425.65921021 C-14.78511544 424.6600296 -15.79381343 423.6623338 -16.80413818 422.66629028 C-23.54811808 416.00756325 -29.72856426 409.06383156 -35.62695312 401.63491821 C-36.60340054 400.46098876 -37.58328789 399.28990169 -38.56835938 398.12319946 C-51.54607108 382.51007384 -62.65416468 365.19784143 -72.57714844 347.50405884 C-73.56642224 345.74269134 -74.57650755 343.99305917 -75.58789062 342.24429321 C-87.90566645 320.22312664 -111.1203548 276.66418562 -107.62695312 250.63491821 C-106.30897935 249.19894679 -104.99079691 247.7631591 -103.66845703 246.33120728 C-101.57582351 242.92295183 -102.9517121 239.1953555 -103.81445312 235.50991821 C-104.1435834 233.92445795 -104.47048554 232.33853316 -104.79492188 230.75210571 C-104.9524292 230.05713989 -105.10993652 229.36217407 -105.2722168 228.64614868 C-105.62695312 226.63491821 -105.62695312 226.63491821 -105.62695312 222.63491821 C-106.77164063 222.48023071 -106.77164063 222.48023071 -107.93945312 222.32241821 C-110.90414661 221.56400825 -111.73637825 220.96498706 -113.62695312 218.63491821 C-114.18027316 215.6782545 -114.54850691 212.90381806 -114.79345703 209.9190979 C-114.87302454 209.03421062 -114.95259205 208.14932335 -115.03457069 207.23762131 C-115.91614613 196.53223146 -115.95535474 185.82301251 -115.96289062 175.08804321 C-115.96933804 172.89376748 -115.97606775 170.69949256 -115.98306274 168.50521851 C-115.99492126 163.95044965 -115.99875447 159.39575606 -115.99755859 154.8409729 C-115.99735368 149.01740728 -116.02488317 143.19432021 -116.05910301 137.37086868 C-116.08134802 132.85834538 -116.0853972 128.34593892 -116.08433914 123.83336639 C-116.08668992 121.6852424 -116.09548374 119.53711493 -116.11100388 117.38904572 C-116.13065644 114.39415963 -116.12483314 111.40033004 -116.11279297 108.40542603 C-116.12403198 107.53053528 -116.135271 106.65564453 -116.14685059 105.75424194 C-116.08159768 99.34864706 -114.69040693 93.86861526 -110.17963219 89.10716629 C-106.21259259 85.66499553 -102.46299835 83.61824427 -97.31835938 82.74038696 C-96.4952124 82.59230591 -95.67206543 82.44422485 -94.82397461 82.29165649 C-93.95458252 82.13680786 -93.08519043 81.98195923 -92.18945312 81.82241821 C-75.20547065 78.59333835 -60.68032001 72.07568218 -47.62695312 60.63491821 C-46.92699219 60.0303479 -46.22703125 59.42577759 -45.50585938 58.80288696 C-33.74007403 47.90864128 -27.34875878 32.67683165 -24.14550781 17.24111938 C-22.76907904 11.00564622 -20.43187779 6.63266248 -15.14245605 2.99735451 C-10.15337853 -0.01319615 -5.71402531 -0.06588492 0 0 Z M8.37304688 41.63491821 C6.29165202 44.8495589 4.4947405 48.19906913 2.68554688 51.57241821 C-13.63303773 80.91934843 -36.35773831 98.43854983 -66.43945312 112.32241821 C-72.55763537 115.36019163 -76.34181535 120.02300206 -78.97428894 126.30236816 C-80.43093096 131.50824662 -80.07206022 137.01260529 -80.06054688 142.37710571 C-80.06669479 143.73511149 -80.07370152 145.09311361 -80.08151245 146.45111084 C-80.09659295 150.06031406 -80.08916444 153.66909983 -80.0735817 157.27828979 C-80.06443763 159.51370661 -80.05995718 161.74909575 -80.0562439 163.98452759 C-80.00722945 185.1211707 -79.41538977 205.77342767 -75.62695312 226.63491821 C-75.27253756 228.79633575 -74.91836756 230.95779357 -74.56445312 233.11929321 C-66.14941487 281.61717723 -44.40413957 327.67983183 -14.62695312 366.63491821 C-13.95647949 367.52171265 -13.95647949 367.52171265 -13.27246094 368.42642212 C-6.97831789 376.73478157 -0.26430047 384.48554378 6.89550781 392.05581665 C8.35879342 393.61968501 9.7954595 395.20390328 11.22460938 396.79898071 C16.93639146 403.16662295 22.92655342 409.00456736 29.37304688 414.63491821 C30.11554688 415.32714478 30.85804688 416.01937134 31.62304688 416.73257446 C38.71607716 423.33436447 46.35215245 429.15667423 54.10986328 434.94546509 C55.59193731 436.05182456 57.0709104 437.16235315 58.54638672 438.27749634 C70.60576518 447.37746774 83.19245302 455.25976551 96.37304688 462.63491821 C97.15583008 463.07835571 97.93861328 463.52179321 98.74511719 463.97866821 C108.63491644 469.85099581 108.63491644 469.85099581 119.71289062 471.40835571 C126.37455112 469.47148526 132.36804567 466.03418024 138.37304688 462.63491821 C139.09540527 462.22854126 139.81776367 461.82216431 140.56201172 461.4034729 C158.87751179 451.02699541 176.14563432 439.04348446 192.37304688 425.63491821 C193.80970703 424.45929321 193.80970703 424.45929321 195.27539062 423.25991821 C208.14271086 412.62468414 220.46182667 401.28152135 231.37304688 388.63491821 C232.85121097 387.02982768 234.33040817 385.42568804 235.81054688 383.82241821 C241.01503646 378.02364435 245.74988543 371.89931032 250.37304688 365.63491821 C251.07518311 364.68552368 251.07518311 364.68552368 251.79150391 363.71694946 C295.52902712 304.17191619 314.4089562 236.34011783 314.72314453 163.06607056 C314.73655062 160.27114641 314.76457344 157.47694073 314.80517578 154.68228149 C314.86427234 150.60908115 314.88182163 146.53664973 314.89648438 142.46304321 C314.93048843 140.60488983 314.93048843 140.60488983 314.96517944 138.709198 C314.94452368 130.19099549 313.52561604 123.30120767 307.73149109 116.7902832 C303.28997207 112.51825813 297.7547523 110.21964643 292.18554688 107.75991821 C283.99808757 103.99809344 276.60265652 100.05712545 269.37304688 94.63491821 C268.55320312 94.03550415 267.73335938 93.43609009 266.88867188 92.81851196 C250.42894689 80.2640402 238.90237657 64.76368379 229.22460938 46.62319946 C225.96527891 41.36288763 221.65455282 37.09452896 215.7029686 35.06557083 C212.36035922 34.44773742 209.04355665 34.49045611 205.65679932 34.49447632 C204.87498409 34.4915052 204.09316886 34.48853407 203.28766227 34.48547292 C200.66539683 34.47679469 198.0431771 34.47527841 195.42089844 34.4737854 C193.54168602 34.4691566 191.66247454 34.46413185 189.78326416 34.45874023 C184.6756891 34.44561998 179.56812719 34.43917196 174.46053791 34.43472958 C171.26905706 34.43179816 168.07757981 34.42769321 164.88610077 34.4232254 C154.89935963 34.40955126 144.9126267 34.39988428 134.92587686 34.39602351 C123.40020197 34.39154327 111.87464571 34.37399653 100.34900689 34.34502292 C91.43846909 34.32340132 82.52796464 34.31331897 73.61740088 34.31198239 C68.29630203 34.31093468 62.97531469 34.30503404 57.65424347 34.28716278 C52.64737371 34.27067397 47.6406992 34.26853058 42.63381195 34.27730179 C40.79884823 34.27807173 38.96387399 34.27373505 37.12893677 34.26384354 C34.61813625 34.25110531 32.10802534 34.25701079 29.597229 34.26742554 C28.87619814 34.25936913 28.15516728 34.25131273 27.412287 34.24301219 C20.22275701 34.31245337 13.45815063 36.3811543 8.37304688 41.63491821 Z " fill="#DEE3E6" transform="translate(138.626953125,-0.634918212890625)"/>
<path d="M0 0 C2.45207871 2.24608886 4.79903944 4.57270477 7.13476562 6.94018555 C7.740625 7.54733398 8.34648437 8.15448242 8.97070312 8.7800293 C24.55364815 25.64094071 25.87414083 45.26459045 25.44726562 66.94018555 C25.42212574 69.1797437 25.39932273 71.41932935 25.37890625 73.65893555 C25.32442317 79.08663008 25.24125802 84.513275 25.13476562 89.94018555 C26.36743164 89.91698242 27.60009766 89.8937793 28.87011719 89.86987305 C30.50520225 89.85110593 32.14029389 89.83290674 33.77539062 89.81518555 C34.58572754 89.79842773 35.39606445 89.78166992 36.23095703 89.7644043 C42.82238978 89.71086982 47.89650073 90.67120588 53.13476562 94.94018555 C60.63894018 102.47589025 61.43465014 110.47735804 61.42529297 120.65795898 C61.43201019 121.71420471 61.43872742 122.77045044 61.44564819 123.85870361 C61.46459394 127.33903756 61.46855082 130.81917828 61.47070312 134.29956055 C61.47713385 136.72943195 61.48386242 139.15930257 61.49087524 141.58917236 C61.50283978 146.67982782 61.50655695 151.77041546 61.50537109 156.86108398 C61.50516806 163.36515922 61.53245877 169.86879678 61.56691551 176.3727684 C61.58921916 181.39156061 61.59320755 186.4102481 61.59215164 191.42908478 C61.59450281 193.82592526 61.60329883 196.22276884 61.61881638 198.61956024 C61.63854401 201.98162442 61.63261085 205.3427528 61.62060547 208.70483398 C61.63184448 209.68286987 61.6430835 210.66090576 61.65466309 211.6685791 C61.58588736 219.29764806 60.31723153 227.1601895 55.26752281 233.1580162 C46.31344842 241.92473169 35.06458812 241.38416137 23.39086914 241.36010742 C21.7013493 241.3674563 20.01183448 241.3760449 18.32232666 241.38577271 C13.75410722 241.40790901 9.18606857 241.41092343 4.61780286 241.40902519 C0.79584286 241.40890515 -3.0260793 241.41748291 -6.84802872 241.42580271 C-15.86819413 241.44500766 -24.88826701 241.44793089 -33.90844727 241.44116211 C-43.19657203 241.43452029 -52.48429979 241.45739804 -61.77234405 241.49447584 C-69.76414629 241.52521485 -77.75582106 241.53652841 -85.7476812 241.53263903 C-90.5132848 241.53057622 -95.2785792 241.53597852 -100.04412651 241.56053162 C-104.52674729 241.58286639 -109.008724 241.58086536 -113.49134827 241.5606041 C-115.13035652 241.55720614 -116.76940873 241.56223051 -118.40835762 241.57658768 C-128.81077854 241.66138103 -136.99970686 240.81872526 -145.30273438 233.9128418 C-145.81835938 233.28249023 -146.33398438 232.65213867 -146.86523438 232.00268555 C-147.40148437 231.37491211 -147.93773437 230.74713867 -148.49023438 230.1003418 C-152.37219871 224.0016876 -152.16183926 217.81092571 -152.15576172 210.8293457 C-152.16247894 209.71965927 -152.16919617 208.60997284 -152.17611694 207.46665955 C-152.19509002 203.8041433 -152.19902072 200.14181035 -152.20117188 196.47924805 C-152.20759986 193.92865931 -152.21432822 191.37807132 -152.22134399 188.82748413 C-152.23331476 183.4828694 -152.23711076 178.13832274 -152.23583984 172.79370117 C-152.23463875 166.63038487 -152.25574004 160.46741891 -152.28732717 154.30419123 C-152.31670622 148.3582855 -152.32381394 142.41248603 -152.32262039 136.46650314 C-152.32497773 133.94437605 -152.33380863 131.42224626 -152.34928513 128.90016556 C-152.36892212 125.36975422 -152.36311523 121.84024084 -152.35107422 118.30981445 C-152.36231323 117.272668 -152.37355225 116.23552155 -152.38513184 115.16694641 C-152.32089716 107.73997617 -150.84479665 102.34032222 -145.90039062 96.69799805 C-145.24941406 96.15916992 -144.5984375 95.6203418 -143.92773438 95.06518555 C-143.27933594 94.51088867 -142.6309375 93.9565918 -141.96289062 93.38549805 C-136.60345995 89.69278045 -131.84615042 89.68603889 -125.55273438 89.81518555 C-124.29879883 89.8287207 -124.29879883 89.8287207 -123.01953125 89.8425293 C-120.96797468 89.86597566 -118.91656661 89.90184289 -116.86523438 89.94018555 C-116.88618164 88.6555542 -116.90712891 87.37092285 -116.92871094 86.04736328 C-117.00195329 81.21105412 -117.04733584 76.37479231 -117.08496094 71.53808594 C-117.10488679 69.45792353 -117.13203758 67.37781571 -117.16699219 65.29785156 C-117.54733213 42.05796237 -113.62647404 22.35821361 -96.86523438 4.94018555 C-70.89327654 -20.46387234 -28.15609635 -24.72211315 0 0 Z " fill="#010302" transform="translate(301.865234375,92.059814453125)"/>
<path d="M0 0 C1.33572052 0.01078583 1.33572052 0.01078583 2.69842529 0.02178955 C3.63506012 0.0214975 4.57169495 0.02120544 5.53671265 0.02090454 C8.64263063 0.02230149 11.74831077 0.03787984 14.85418701 0.05352783 C17.00367095 0.05725666 19.15315658 0.06010425 21.30264282 0.06210327 C26.96786163 0.06974994 32.63297835 0.0894073 38.29815674 0.11151123 C44.07593403 0.13194742 49.85372777 0.14110022 55.63153076 0.15118408 C66.97403081 0.17265223 78.31642821 0.20784278 89.65887451 0.24884033 C89.65887451 9.15884033 89.65887451 18.06884033 89.65887451 27.24884033 C87.30762451 27.47571533 84.95637451 27.70259033 82.53387451 27.93634033 C64.56864908 30.01506816 48.17103203 38.43549145 36.17449951 52.07305908 C21.65325228 70.7119083 19.06469094 88.83024435 18.90887451 111.68634033 C18.88065233 113.78597361 18.85071643 115.88558459 18.81903076 117.98516846 C18.74591688 123.07301815 18.69589146 128.16060525 18.65887451 133.24884033 C16.84903076 133.28751221 16.84903076 133.28751221 15.00262451 133.32696533 C13.38800713 133.38328919 11.77342518 133.44063553 10.15887451 133.49884033 C9.36739014 133.51302002 8.57590576 133.52719971 7.76043701 133.54180908 C1.08436671 133.81541852 -4.25784573 135.58817228 -9.36456299 139.99493408 C-10.03358643 140.83218018 -10.03358643 140.83218018 -10.71612549 141.68634033 C-11.17760986 142.24192627 -11.63909424 142.79751221 -12.11456299 143.36993408 C-14.59635866 147.17166567 -15.59034922 150.6384556 -15.60855103 155.15539551 C-15.61708099 156.11689011 -15.62561096 157.0783847 -15.63439941 158.0690155 C-15.63349304 159.11223465 -15.63258667 160.1554538 -15.63165283 161.23028564 C-15.63837006 162.33821976 -15.64508728 163.44615387 -15.65200806 164.58766174 C-15.67100721 168.25080856 -15.67491345 171.9137723 -15.67706299 175.57696533 C-15.68349024 178.12658768 -15.69021854 180.67620928 -15.69723511 183.22583008 C-15.70921316 188.572225 -15.71300116 193.91855184 -15.71173096 199.26495361 C-15.71053104 205.4276614 -15.73160602 211.59001812 -15.76321828 217.75263715 C-15.79261989 223.6980034 -15.79970436 229.64326347 -15.79851151 235.58870697 C-15.80086744 238.11000755 -15.8096905 240.63131088 -15.82517624 243.152565 C-15.84484022 246.68527564 -15.83899525 250.21709087 -15.82696533 253.74981689 C-15.83820435 254.78493912 -15.84944336 255.82006134 -15.86102295 256.8865509 C-15.79874587 264.10811274 -14.66505558 270.60644657 -9.64966393 276.10235977 C-3.36455637 282.00146046 3.06250279 283.69633734 11.43988037 283.68121338 C12.30308427 283.69148717 13.16628817 283.70176096 14.05564976 283.71234608 C16.82841204 283.74205124 19.60081936 283.75174724 22.37371826 283.76055908 C24.094149 283.77603743 25.81456838 283.79283648 27.53497314 283.81097412 C33.88864837 283.86874636 40.24253481 283.901019 46.59637451 283.93634033 C60.80699951 284.03946533 75.01762451 284.14259033 89.65887451 284.24884033 C89.65887451 324.50884033 89.65887451 364.76884033 89.65887451 406.24884033 C66.97223417 401.71151226 44.32834907 381.22237329 26.65887451 367.24884033 C25.58210417 366.40892918 24.50528974 365.56907454 23.42840576 364.72930908 C8.06994205 352.50152187 -6.99525368 338.37346628 -19.18487549 322.95977783 C-21.39718896 320.17835474 -23.70721011 317.50207179 -26.02862549 314.81134033 C-59.40516435 274.61482758 -80.48916594 224.79848941 -89.21612549 173.56134033 C-89.4194751 172.36944092 -89.62282471 171.1775415 -89.83233643 169.94952393 C-92.05445759 156.04875035 -92.4984807 142.10047743 -92.57940674 128.04571533 C-92.58348227 127.37032967 -92.58755779 126.694944 -92.59175682 125.9990921 C-92.61229991 122.44774211 -92.6267538 118.8964275 -92.6362915 115.34503174 C-92.64750705 111.69339347 -92.68216473 108.04233946 -92.7214632 104.3909111 C-92.74755336 101.55819556 -92.75597469 98.72562451 -92.75957298 95.89279938 C-92.76677738 93.89410209 -92.79319427 91.89550369 -92.81996155 89.89697266 C-92.81703598 88.68761047 -92.81411041 87.47824829 -92.81109619 86.23223877 C-92.81696243 85.17019226 -92.82282867 84.10814575 -92.82887268 83.01391602 C-92.21979089 79.56098531 -91.02649498 78.42512039 -88.34112549 76.24884033 C-86.36505127 75.11138916 -86.36505127 75.11138916 -84.28643799 74.20587158 C-83.51356445 73.8590332 -82.74069092 73.51219482 -81.94439697 73.15484619 C-81.12656738 72.79398926 -80.30873779 72.43313232 -79.46612549 72.06134033 C-66.90756945 66.30917465 -55.85795643 59.2533336 -45.34112549 50.24884033 C-44.09395752 49.18536377 -44.09395752 49.18536377 -42.82159424 48.10040283 C-28.72176876 35.75493352 -17.91882739 20.89232771 -9.42706299 4.21759033 C-6.99413661 -0.19318267 -4.78996482 0.01624806 0 0 Z " fill="#49D093" transform="translate(166.34112548828125,48.75115966796875)"/>
<path d="M0 0 C0.69988617 -0.00709439 1.39977235 -0.01418877 2.12086719 -0.02149814 C4.45426847 -0.03902988 6.78599319 -0.02100038 9.11936951 -0.00291443 C10.79685726 -0.0080551 12.47433962 -0.0153375 14.15180969 -0.02459717 C18.69936953 -0.04309929 23.24634249 -0.03018081 27.79387784 -0.01050687 C32.55480196 0.0058881 37.31568917 -0.00293432 42.07662964 -0.00802612 C50.07030098 -0.01254569 58.06373821 0.00331536 66.05735779 0.03126526 C75.29834383 0.06332751 84.53890793 0.06329675 93.77992398 0.04605049 C102.67214279 0.03018673 111.56420694 0.03691728 120.45641899 0.0539875 C124.23983313 0.06085903 128.02312333 0.05982454 131.80653572 0.05244255 C136.26116863 0.04478114 140.71532127 0.05690092 145.16987228 0.08429146 C146.80450833 0.0911775 148.43918921 0.09127088 150.07382393 0.08407593 C152.3056111 0.0753845 154.53591496 0.09132934 156.76757812 0.11352539 C158.01618905 0.11633231 159.26479998 0.11913923 160.5512476 0.12203121 C164.4138884 0.72009679 166.06494646 1.9103323 168.82029724 4.62818909 C169.99612645 6.97984751 169.95351066 8.3889246 169.96746826 11.01107788 C169.97820122 12.39269859 169.97820122 12.39269859 169.989151 13.80223083 C169.9918399 14.8157663 169.99452881 15.82930176 169.99729919 16.87355042 C170.00387039 17.93870377 170.01044159 19.00385712 170.01721191 20.10128784 C170.0369753 23.63759933 170.04861378 27.1738683 170.05857849 30.71022034 C170.06265402 31.91572729 170.06672955 33.12123425 170.07092857 34.36327171 C170.09180144 40.74267278 170.10609839 47.12205225 170.11546326 53.5014801 C170.12653531 60.09930509 170.16094134 66.69679351 170.20063496 73.2944994 C170.22674651 78.36022582 170.23515021 83.42587136 170.23874474 88.49165916 C170.24362415 90.92416853 170.25527637 93.35667396 170.27378273 95.78911781 C170.29805915 99.19123336 170.29722987 102.59246902 170.29026794 105.99464417 C170.30948303 107.50583832 170.30948303 107.50583832 170.3290863 109.04756165 C170.29630111 113.43637994 170.25198872 115.92499253 167.91592407 119.73028564 C164.29316015 123.01124006 161.90979752 122.76074662 157.08364868 122.78208923 C156.03282064 122.78866261 156.03282064 122.78866261 154.96076375 122.79536879 C152.60168306 122.80877625 150.24263973 122.81493998 147.88352966 122.82106018 C146.19678579 122.82895957 144.51004361 122.83722841 142.82330322 122.84584045 C137.27414061 122.87207772 131.72497037 122.88736896 126.17576599 122.90162659 C124.26715401 122.90698541 122.35854207 122.91236292 120.44993019 122.91775894 C112.51231001 122.93938943 104.57469188 122.95812724 96.63704967 122.96938133 C85.25228466 122.98562773 73.86786057 123.01882028 62.48322409 123.07578218 C54.48317174 123.11444842 46.4832107 123.13401004 38.48306733 123.1393019 C33.70239533 123.14295968 28.92208679 123.15502619 24.14151573 123.18740463 C19.6442743 123.21742733 15.14761736 123.22381799 10.65029716 123.21202087 C8.9995023 123.21179966 7.34868077 123.22014458 5.69797897 123.23767471 C3.44391169 123.26030991 1.19197409 123.25210059 -1.06210327 123.2361908 C-2.95387409 123.24115602 -2.95387409 123.24115602 -4.8838625 123.24622154 C-9.12457999 122.45100672 -10.59741043 121.03372114 -13.17970276 117.62818909 C-13.81170177 115.277771 -13.81170177 115.277771 -13.8213501 112.80860901 C-13.83689438 111.86657623 -13.85243866 110.92454346 -13.86845398 109.95396423 C-13.85990387 108.93251312 -13.85135376 107.91106201 -13.84254456 106.85865784 C-13.85291245 105.77355927 -13.86328033 104.68846069 -13.8739624 103.57048035 C-13.90105746 99.98516476 -13.89136509 96.40107015 -13.87892151 92.81568909 C-13.88482887 90.32374225 -13.89207493 87.83179825 -13.90060425 85.33985901 C-13.91401122 79.44906477 -13.90089791 73.55870904 -13.87904912 67.66795254 C-13.86435459 62.97248276 -13.87780823 58.277681 -13.90699768 53.58229065 C-13.94682059 47.10542465 -13.95737383 40.6292383 -13.94365883 34.15226746 C-13.94217066 31.68348539 -13.94987906 29.21468019 -13.96690941 26.74595642 C-13.98684685 23.29575879 -13.96852278 19.84781366 -13.94020081 16.39772034 C-13.95391724 15.37626923 -13.96763367 14.35481812 -13.98176575 13.30241394 C-13.96629196 12.36038116 -13.95081818 11.41834839 -13.93487549 10.44776917 C-13.93391215 9.63294571 -13.93294882 8.81812225 -13.93195629 7.97860718 C-11.80815172 1.34277436 -6.26280257 0.00293993 0 0 Z " fill="#626974" transform="translate(178.17970275878906,195.37181091308594)"/>
<path d="M0 0 C1.17272284 -0.00445668 1.17272284 -0.00445668 2.36913705 -0.0090034 C4.99140248 -0.01768162 7.61362222 -0.01919791 10.23590088 -0.02069092 C12.1151133 -0.02531972 13.99432477 -0.03034447 15.87353516 -0.03573608 C20.98111021 -0.04885634 26.08867213 -0.05530435 31.19626141 -0.05974674 C34.38774225 -0.06267816 37.57921951 -0.06678311 40.77069855 -0.07125092 C50.75743968 -0.08492506 60.74417261 -0.09459204 70.73092246 -0.09845281 C82.25659735 -0.10293305 93.78215361 -0.12047978 105.30779243 -0.1494534 C114.21833023 -0.171075 123.12883467 -0.18115735 132.03939843 -0.18249393 C137.36049729 -0.18354164 142.68148462 -0.18944228 148.00255585 -0.20731354 C153.00942561 -0.22380235 158.01610011 -0.22594574 163.02298737 -0.21717453 C164.85795108 -0.21640458 166.69292533 -0.22074126 168.52786255 -0.23063278 C171.03866307 -0.243371 173.54877398 -0.23746552 176.05957031 -0.22705078 C176.78060117 -0.23510719 177.50163204 -0.24316359 178.24451232 -0.25146413 C184.61344658 -0.18994879 189.97799427 1.26366199 194.97125244 5.32794189 C198.19074724 9.24354368 200.70597588 13.40600639 203.23687744 17.79229736 C208.28404982 26.53303946 213.46763133 34.62879822 220.28375244 42.14044189 C220.74733154 42.6531665 221.21091064 43.16589111 221.6885376 43.69415283 C235.10119577 58.33333727 251.43368845 68.2894618 269.36578369 76.56231689 C276.78011061 79.98602408 281.4224572 84.17865056 284.63554382 91.83709717 C286.0551211 96.88142357 285.68598723 102.19550967 285.64703369 107.39434814 C285.6475322 108.68622543 285.6480307 109.97810272 285.64854431 111.30912781 C285.64845481 114.04688217 285.63809112 116.78434085 285.61993408 119.52203369 C285.59758132 122.96095123 285.5968343 126.39942939 285.60318375 129.83839893 C285.63140827 150.02006128 284.79408658 169.90430533 281.40875244 189.82794189 C281.23585693 190.86773193 281.06296143 191.90752197 280.88482666 192.9788208 C270.52419053 254.17514392 242.37792091 310.91219949 199.95953369 356.27716064 C198.1417483 358.2223237 196.34832133 360.1741745 194.57672119 362.15997314 C188.2048027 369.28226813 181.44978753 375.82255002 174.28375244 382.14044189 C173.75974854 382.60917725 173.23574463 383.0779126 172.69586182 383.56085205 C162.73949584 392.45476422 152.16617763 400.41666666 141.28375244 408.14044189 C140.64888916 408.5912915 140.01402588 409.04214111 139.35992432 409.50665283 C131.14366715 415.28328589 122.56539078 420.42878833 113.90875244 425.51544189 C112.89788574 426.11098877 111.88701904 426.70653564 110.84552002 427.32012939 C92.28039153 438.0993875 92.28039153 438.0993875 83.28375244 436.14044189 C77.70534934 433.89695369 72.5153132 431.09068732 67.28375244 428.14044189 C66.59861572 427.76065186 65.913479 427.38086182 65.20758057 426.98956299 C37.75337064 411.69754209 13.1954157 392.21664756 -9.71624756 370.82794189 C-10.75748779 369.85957397 -10.75748779 369.85957397 -11.81976318 368.87164307 C-15.83141246 365.08722368 -19.55019646 361.15981179 -23.1395874 356.97320557 C-25.20500818 354.57228983 -27.36811837 352.26816466 -29.52874756 349.95294189 C-34.97694029 343.96239514 -39.9224365 337.65659077 -44.71624756 331.14044189 C-45.18288818 330.5089624 -45.64952881 329.87748291 -46.13031006 329.22686768 C-76.74142114 287.55606038 -98.37567905 238.76473727 -105.41412354 187.34454346 C-105.63376701 185.74216663 -105.86017222 184.14071218 -106.09063721 182.53985596 C-108.57349197 164.99484676 -109.25094035 147.6412864 -109.21722412 129.95733643 C-109.21123336 126.31753763 -109.24243537 122.67902957 -109.282341 119.03948212 C-109.30829783 116.18246535 -109.31109057 113.32576158 -109.30744934 110.46864319 C-109.30991923 108.48461549 -109.33443917 106.50065333 -109.35968018 104.51678467 C-109.29368411 95.88787006 -107.94037581 88.93348317 -102.10258484 82.30944824 C-97.46507254 77.7997608 -91.48715709 75.47467626 -85.65374756 72.89044189 C-71.80786993 66.50508495 -60.75731682 58.69163436 -49.71624756 48.14044189 C-48.98148193 47.48044189 -48.24671631 46.82044189 -47.48968506 46.14044189 C-38.54393322 37.79528824 -31.88210764 27.37708385 -26.19940186 16.61358643 C-22.22169147 9.08231455 -18.58892739 3.41348973 -10.07082748 0.596241 C-6.72019182 -0.05237437 -3.39917444 -0.00403495 0 0 Z M-10.71624756 18.14044189 C-12.07431422 20.42919192 -13.25798096 22.62893875 -14.40374756 25.01544189 C-28.62039919 52.92396943 -52.04504512 72.85203242 -79.92718506 86.31622314 C-80.54174561 86.61351318 -81.15630615 86.91080322 -81.78948975 87.21710205 C-83.1555845 87.87176125 -84.52656877 88.51626141 -85.90081787 89.15362549 C-86.973479 89.66336914 -86.973479 89.66336914 -88.06781006 90.18341064 C-88.71830322 90.48658203 -89.36879639 90.78975342 -90.03900146 91.10211182 C-92.04481852 92.18319426 -92.04481852 92.18319426 -93.71624756 95.14044189 C-94.02079732 97.8203467 -94.02079732 97.8203467 -93.97503662 100.88336182 C-93.98134094 102.066978 -93.98764526 103.25059418 -93.99414062 104.47007751 C-93.99009216 105.75735245 -93.9860437 107.04462738 -93.98187256 108.37091064 C-93.98322287 109.7216041 -93.98516643 111.07229708 -93.9876709 112.42298889 C-93.99062608 115.27034073 -93.98632606 118.11756749 -93.97698975 120.96490479 C-93.96582031 124.53832685 -93.97221172 128.11144395 -93.98385239 131.68485451 C-94.04572768 153.94302499 -93.45981756 176.01899248 -88.96624756 197.89044189 C-88.8358609 198.54022003 -88.70547424 199.18999817 -88.57113647 199.85946655 C-86.2934433 211.18846803 -83.51121132 222.22430248 -79.71624756 233.14044189 C-79.24710938 234.50845947 -79.24710938 234.50845947 -78.76849365 235.90411377 C-65.29035725 274.74096933 -44.95866793 311.37404188 -16.98187256 341.66387939 C-15.09792893 343.72322467 -13.26943053 345.81263132 -11.44671631 347.92559814 C-7.72368023 352.1913073 -3.79275534 356.21215885 0.22125244 360.20294189 C0.88576416 360.8713208 1.55027588 361.53969971 2.23492432 362.22833252 C21.66896482 381.62467362 44.39766352 397.62170679 67.88043213 411.69512939 C70.09098041 413.02451235 72.28605447 414.37615928 74.47906494 415.73419189 C75.70475381 416.47522217 76.93125041 417.21491898 78.15875244 417.95294189 C79.18742432 418.57813721 80.21609619 419.20333252 81.27593994 419.84747314 C85.41053009 421.62480995 88.8105556 422.03075341 93.12506104 420.4776001 C95.15086013 419.53158275 97.08676283 418.48953775 99.03375244 417.39044189 C99.76473145 416.98922119 100.49571045 416.58800049 101.24884033 416.17462158 C120.9044226 405.2213042 139.5527511 392.4862118 156.48883057 377.66436768 C158.78644299 375.71364722 161.14647316 373.84536181 163.49859619 371.96075439 C169.31146031 367.21716596 174.63042777 362.09075462 179.90875244 356.76544189 C180.78531494 355.89661377 181.66187744 355.02778564 182.56500244 354.13262939 C188.56749805 348.11232223 193.98212628 341.77957585 199.28375244 335.14044189 C200.37983884 333.82315547 201.47966608 332.50896559 202.58453369 331.19903564 C226.50315881 302.57676411 244.77162679 268.57483949 256.28375244 233.14044189 C256.59151611 232.199104 256.89927979 231.25776611 257.21636963 230.28790283 C262.29047398 214.51417196 265.84544093 198.52800354 268.28375244 182.14044189 C268.4706665 180.95853271 268.65758057 179.77662354 268.85015869 178.55889893 C270.97654546 163.65914057 270.65839426 148.5391447 270.65435791 133.52227783 C270.65415197 129.52316626 270.68180485 125.52474353 270.71590233 121.52579689 C270.73809995 118.42370352 270.74219819 115.32178061 270.74113846 112.21961594 C270.74349164 110.7436211 270.75229929 109.26762137 270.76780319 107.79170609 C270.78738353 105.7415892 270.78166635 103.6930247 270.76959229 101.6428833 C270.77244232 100.48027985 270.77529236 99.31767639 270.77822876 98.11984253 C270.17937842 94.51155023 269.10547797 93.38457928 266.28375244 91.14044189 C264.32856384 89.96624689 264.32856384 89.96624689 262.22906494 89.09747314 C261.45619141 88.75063477 260.68331787 88.40379639 259.88702393 88.04644775 C259.06919434 87.68559082 258.25136475 87.32473389 257.40875244 86.95294189 C244.8501964 81.20077621 233.80058338 74.14493516 223.28375244 65.14044189 C222.45230713 64.43145752 221.62086182 63.72247314 220.76422119 62.99200439 C206.7666489 50.73606552 195.73104333 35.93152804 187.56500244 19.20684814 C186.00386589 16.68903951 184.85769287 15.64040625 182.28375244 14.14044189 C179.67499474 13.8498532 177.30645133 13.73088989 174.69917297 13.75276184 C173.93157526 13.7473763 173.16397755 13.74199077 172.37311929 13.73644203 C169.79897819 13.72212539 167.22534864 13.72927517 164.65118408 13.73638916 C162.80650925 13.73068752 160.96183795 13.72372406 159.11717224 13.71559143 C154.10478583 13.69762204 149.09257412 13.69883552 144.08016515 13.70453382 C139.89761541 13.70762023 135.7150995 13.70153931 131.53255457 13.69549507 C121.66647027 13.68143901 111.80047253 13.6830201 101.93438721 13.69439697 C91.75166847 13.7058794 81.56921306 13.69180284 71.38652903 13.6650005 C62.64757017 13.64285838 53.90869407 13.63620276 45.16970915 13.64207691 C39.9487337 13.64545124 34.72792707 13.64299985 29.50697517 13.62582588 C24.59771092 13.61038257 19.68883737 13.61428323 14.7795887 13.63313103 C12.97723466 13.63682417 11.17485184 13.63368739 9.37252426 13.62324524 C6.91300173 13.61008282 4.4547817 13.62153961 1.99531555 13.63923645 C1.28110996 13.62963144 0.56690436 13.62002644 -0.16894382 13.61013037 C-4.95489518 13.68104382 -7.36735332 14.74222566 -10.71624756 18.14044189 Z " fill="#020303" transform="translate(167.71624755859375,33.85955810546875)"/>
<path d="M0 0 C1.04658028 -0.00779995 2.09316055 -0.01559991 3.17145538 -0.02363622 C6.66609769 -0.04352397 10.15964716 -0.02780323 13.65429688 -0.01205444 C16.16463861 -0.01883194 18.67497538 -0.0277358 21.18530273 -0.03860474 C27.28844911 -0.05902392 33.39119314 -0.05605393 39.49434471 -0.04154153 C44.45597225 -0.03023357 49.41751366 -0.02872509 54.37915039 -0.03416061 C55.08624917 -0.03492678 55.79334794 -0.03569294 56.52187395 -0.03648233 C57.95848785 -0.03808101 59.39510173 -0.03970208 60.83171558 -0.04134528 C74.29188762 -0.05559116 87.75188919 -0.03922837 101.21203327 -0.01234345 C112.75276898 0.00999434 124.2932532 0.00611388 135.83398438 -0.01693726 C149.24712003 -0.04371587 162.66010642 -0.05421798 176.07326508 -0.03887594 C177.50449115 -0.03728325 178.93571724 -0.0357114 180.36694336 -0.03416061 C181.07106999 -0.03338924 181.77519662 -0.03261786 182.50066042 -0.03182311 C187.45433426 -0.02751227 192.40791314 -0.03477931 197.36157227 -0.04655838 C204.03315885 -0.06207424 210.70419804 -0.05097289 217.37576294 -0.0220871 C219.82348848 -0.01547866 222.27125401 -0.01736972 224.71896362 -0.02840042 C228.06187869 -0.04207588 231.40327528 -0.02491336 234.74609375 0 C235.71341682 -0.01115361 236.6807399 -0.02230722 237.67737579 -0.03379881 C244.09130077 0.05884038 248.43144494 1.46278542 253.37304688 5.63491821 C257.6913722 10.35468445 258.9013965 15.48367938 260.18554688 21.63491821 C262.85091364 34.35808781 268.61881464 45.96431869 277.37304688 55.63491821 C278.22576172 56.62491821 278.22576172 56.62491821 279.09570312 57.63491821 C292.18341379 71.86189881 311.92420911 80.00876818 330.74804688 82.57241821 C337.5500405 83.60632124 342.03704625 86.17597019 346.74804688 91.13491821 C350.43143242 96.80166521 350.6619475 101.47738358 350.63183594 108.06484985 C350.6370929 109.48079185 350.6370929 109.48079185 350.64245605 110.92533875 C350.65126038 114.04865879 350.64542163 117.17175205 350.63867188 120.29507446 C350.64002058 122.48204084 350.64196282 124.66900693 350.64447021 126.85597229 C350.64742112 131.45004111 350.64313107 136.04403225 350.63378906 140.63809204 C350.6224956 146.47086195 350.62888939 152.30344573 350.64093399 158.13620853 C350.64824036 162.66210777 350.6458232 167.18796461 350.64067841 171.71386528 C350.63936072 173.86042745 350.6409222 176.0069937 350.64563751 178.1535511 C350.66376873 188.74384692 350.51707542 199.30245492 349.66894531 209.8631897 C349.61663883 210.69269921 349.56433235 211.52220873 349.51044083 212.3768549 C349.12465562 216.43454822 348.85409137 218.12272335 345.98345947 221.179245 C343.37304688 222.63491821 343.37304688 222.63491821 340.31054688 222.69741821 C336.49465004 221.31720021 335.31038655 220.2115453 333.37304688 216.63491821 C332.86904321 212.97201837 333.14657826 209.41815337 333.6110754 205.76065922 C334.33114536 199.99280655 334.50994673 194.33346171 334.48657227 188.52529907 C334.48679131 187.07492249 334.48679131 187.07492249 334.48701477 185.59524536 C334.48632349 182.43006063 334.47856817 179.26493629 334.47070312 176.09976196 C334.46883615 173.89302096 334.46741357 171.68627953 334.46641541 169.47953796 C334.46261222 163.6944462 334.45280085 157.90937987 334.44171143 152.1242981 C334.43144989 146.21182601 334.42690765 140.29934978 334.421875 134.38687134 C334.41117648 122.80287584 334.39412665 111.21889915 334.37304688 99.63491821 C333.16140869 99.44300903 331.94977051 99.25109985 330.70141602 99.05337524 C329.08280801 98.79172277 327.4642391 98.52982835 325.84570312 98.26773071 C325.05055298 98.14244995 324.25540283 98.01716919 323.43615723 97.88809204 C298.92289206 93.88925206 275.63677322 80.41792806 260.43554688 60.69741821 C251.62623045 48.27182598 246.47940191 34.76520416 243.02148438 20.04116821 C242.60541311 17.70103024 242.60541311 17.70103024 241.37304688 16.63491821 C238.19214141 16.53015639 235.03274217 16.49160674 231.85121155 16.49447632 C230.83904727 16.4915052 229.82688299 16.48853407 228.78404707 16.48547292 C225.36456812 16.47674434 221.945124 16.47527418 218.52563477 16.4737854 C216.08541284 16.46916022 213.64519165 16.46413597 211.20497131 16.45874023 C204.55634661 16.44558656 197.90773565 16.43912943 191.25910115 16.43472958 C187.11103579 16.4319705 182.96297276 16.42773379 178.81490898 16.4232254 C167.33960268 16.41103074 155.86429827 16.40073154 144.38898563 16.39735031 C143.65405629 16.39713075 142.91912694 16.39691118 142.16192701 16.39668496 C141.42519893 16.39646668 140.68847085 16.3962484 139.92941767 16.39602351 C138.43642493 16.39558004 136.94343219 16.39513348 135.45043945 16.39468384 C134.33956594 16.39435169 134.33956594 16.39435169 133.20625054 16.39401284 C121.19929761 16.39006268 109.19240528 16.37260292 97.18547577 16.34932432 C84.87055689 16.32564045 72.55566845 16.31314983 60.24072641 16.31198239 C53.32129425 16.311064 46.40194107 16.30527058 39.48253059 16.28716278 C32.97782968 16.27020073 26.47325267 16.26848689 19.96852684 16.27730179 C17.5747144 16.2780765 15.18089413 16.27367292 12.78710175 16.26384354 C9.53184029 16.25125564 6.27712233 16.25692869 3.02186584 16.26742554 C2.06341847 16.25936913 1.1049711 16.25131273 0.11747986 16.24301219 C-1.18339139 16.25289696 -1.18339139 16.25289696 -2.51054287 16.26298141 C-3.6386383 16.26208578 -3.6386383 16.26208578 -4.78952354 16.26117206 C-7.04247083 16.49467442 -7.04247083 16.49467442 -8.62695312 19.63491821 C-9.12036653 21.6690001 -9.12036653 21.6690001 -9.43945312 23.94741821 C-13.81264524 46.94840573 -27.6237579 67.4406632 -46.75976562 80.82632446 C-60.51588543 89.56063186 -74.93186678 95.69384495 -91.02148438 98.24819946 C-91.85151978 98.38310791 -92.68155518 98.51801636 -93.53674316 98.65701294 C-95.56626434 98.98638108 -97.59653522 99.31112399 -99.62695312 99.63491821 C-99.65011444 112.97809322 -99.66788759 126.32126345 -99.6787653 139.66445446 C-99.68398581 145.86010129 -99.69106842 152.05573437 -99.70239258 158.25137329 C-99.71325092 164.229512 -99.71923624 170.20763748 -99.72183037 176.18578529 C-99.72367929 178.46755494 -99.7272897 180.74932385 -99.73268318 183.03108788 C-99.73993265 186.22481226 -99.7409424 189.41848185 -99.74047852 192.61221313 C-99.74407379 193.55736282 -99.74766907 194.50251251 -99.75137329 195.4763031 C-99.74476933 199.67279104 -99.64640125 203.53771203 -98.62695312 207.63491821 C-98.4920128 209.31907729 -98.40828418 211.00815238 -98.37695312 212.69741821 C-98.35117188 213.53401978 -98.32539062 214.37062134 -98.29882812 215.23257446 C-98.70494025 218.20589536 -99.52861175 219.50815686 -101.62695312 221.63491821 C-103.52929688 222.38491821 -103.52929688 222.38491821 -105.56445312 222.63491821 C-106.23347656 222.73804321 -106.9025 222.84116821 -107.59179688 222.94741821 C-110.75712481 222.46137937 -111.68210038 221.15785359 -113.62695312 218.63491821 C-114.42688681 215.74045786 -114.63841126 212.84484542 -114.85595703 209.8565979 C-114.96854072 208.53603456 -114.96854072 208.53603456 -115.08339882 207.18879318 C-115.915352 196.50111015 -115.95536949 185.80199086 -115.96289062 175.08804321 C-115.96933804 172.89376748 -115.97606775 170.69949256 -115.98306274 168.50521851 C-115.99492126 163.95044965 -115.99875447 159.39575606 -115.99755859 154.8409729 C-115.99735368 149.01740728 -116.02488317 143.19432021 -116.05910301 137.37086868 C-116.08134802 132.85834538 -116.0853972 128.34593892 -116.08433914 123.83336639 C-116.08668992 121.6852424 -116.09548374 119.53711493 -116.11100388 117.38904572 C-116.13065644 114.39415963 -116.12483314 111.40033004 -116.11279297 108.40542603 C-116.12403198 107.53053528 -116.135271 106.65564453 -116.14685059 105.75424194 C-116.08159768 99.34864706 -114.69040693 93.86861526 -110.17963219 89.10716629 C-106.21259259 85.66499553 -102.46299835 83.61824427 -97.31835938 82.74038696 C-96.4952124 82.59230591 -95.67206543 82.44422485 -94.82397461 82.29165649 C-93.95458252 82.13680786 -93.08519043 81.98195923 -92.18945312 81.82241821 C-75.20547065 78.59333835 -60.68032001 72.07568218 -47.62695312 60.63491821 C-46.92699219 60.0303479 -46.22703125 59.42577759 -45.50585938 58.80288696 C-33.74007403 47.90864128 -27.34875878 32.67683165 -24.14550781 17.24111938 C-22.76907904 11.00564622 -20.43187779 6.63266248 -15.14245605 2.99735451 C-10.15337853 -0.01319615 -5.71402531 -0.06588492 0 0 Z " fill="#020202" transform="translate(138.626953125,-0.634918212890625)"/>
<path d="M0 0 C2.0078125 0.453125 2.0078125 0.453125 3.875 1.75 C6.2939491 6.44732973 7.63784734 11.26614437 8.9375 16.375 C14.41460834 36.80277966 21.64087752 56.72770769 30.875 75.75 C31.26655273 76.57258301 31.65810547 77.39516602 32.06152344 78.24267578 C45.90574669 107.28653979 64.14558167 133.91161687 85.9140625 157.60546875 C87.69792734 159.55634883 89.41452794 161.54748048 91.125 163.5625 C98.69506992 172.24425851 107.06325842 180.34160986 115.875 187.75 C116.75671875 188.52085937 117.6384375 189.29171875 118.546875 190.0859375 C144.06941872 212.2827154 172.73360892 229.74306056 202.5 245.625 C203.45342285 246.14312256 204.4068457 246.66124512 205.38916016 247.19506836 C206.28425293 247.66436768 207.1793457 248.13366699 208.1015625 248.6171875 C208.88096191 249.03081543 209.66036133 249.44444336 210.46337891 249.87060547 C214.45313119 251.32546351 217.58953442 251.23966206 221.54956055 249.73120117 C222.44457275 249.25658447 223.33958496 248.78196777 224.26171875 248.29296875 C225.27242432 247.76340576 226.28312988 247.23384277 227.32446289 246.68823242 C228.39301514 246.11049072 229.46156738 245.53274902 230.5625 244.9375 C231.67810303 244.34364502 232.79370605 243.74979004 233.94311523 243.13793945 C237.26366305 241.35957572 240.5715455 239.55988768 243.875 237.75 C244.74479492 237.275625 245.61458984 236.80125 246.51074219 236.3125 C265.21029489 226.03348207 283.30320149 214.20573384 299.875 200.75 C300.82117188 199.99460937 301.76734375 199.23921875 302.7421875 198.4609375 C308.16773065 194.08743873 313.40663943 189.54774428 318.5546875 184.8515625 C320.56897731 183.02717206 322.61648614 181.25906198 324.6875 179.5 C333.3696631 171.9295773 341.46482051 163.56078485 348.875 154.75 C349.65746094 153.85667969 350.43992187 152.96335937 351.24609375 152.04296875 C380.04824326 118.9766049 402.05210958 79.93176521 415.98193359 38.40869141 C416.76712153 36.07115816 417.57405875 33.74328629 418.39453125 31.41796875 C420.11223281 26.46206244 421.7190448 21.53608462 422.921875 16.4296875 C423.09356201 15.70144775 423.26524902 14.97320801 423.44213867 14.22290039 C423.76219549 12.82704885 424.06808289 11.42783823 424.35668945 10.02514648 C425.29660133 5.83115793 426.39963136 3.34683679 429.875 0.75 C433.30682475 0.32854784 435.69047541 0.0787694 438.75 1.8125 C441.53154931 6.60294604 440.98582662 11.05884595 439.7578125 16.2421875 C439.18959715 18.37459308 438.6025094 20.50202928 438 22.625 C437.52071045 24.34432739 437.52071045 24.34432739 437.03173828 26.09838867 C428.84493454 54.79547656 417.35464889 83.17441572 401.875 108.75 C401.41802734 109.50893555 400.96105469 110.26787109 400.49023438 111.04980469 C390.75538904 127.10110244 380.0083121 142.41718886 367.875 156.75 C367.01439793 157.77979321 366.15388716 158.80966273 365.29345703 159.83959961 C358.54532041 167.8649673 351.47908948 175.46152712 344.03833008 182.84741211 C342.30245269 184.57248477 340.5776491 186.30811991 338.85351562 188.04492188 C332.16775569 194.73858074 325.30158978 200.8779399 317.875 206.75 C316.84715907 207.61304193 315.82374902 208.48144668 314.80859375 209.359375 C291.39968763 229.43461844 245.12894487 267.68583639 213.4140625 267.26953125 C207.0452631 266.33459712 201.79851345 263.13474529 196.24902344 260.04638672 C193.68319949 258.64526319 191.08692478 257.32011321 188.4765625 256.00390625 C158.94254488 241.05673514 131.80511804 222.50531791 106.875 200.75 C105.99199219 199.98042969 105.10898438 199.21085938 104.19921875 198.41796875 C97.50147314 192.41810691 91.10492653 186.10713287 84.72406006 179.77429199 C83.71683768 178.77511139 82.70813969 177.77741559 81.69781494 176.78137207 C74.95383504 170.12264504 68.77338886 163.17891335 62.875 155.75 C61.89855258 154.57607055 60.91866523 153.40498348 59.93359375 152.23828125 C46.95588205 136.62515563 35.84778845 119.31292322 25.92480469 101.61914062 C24.93553089 99.85777313 23.92544558 98.10814096 22.9140625 96.359375 C9.85761946 73.01765234 -11.21105301 32.25499531 -9.125 4.75 C-6.51162589 0.82993883 -4.6699405 -0.79268363 0 0 Z " fill="#010101" transform="translate(40.125,245.25)"/>
<path d="M0 0 C12.0573604 7.95001568 19.86503738 18.50336581 25.18457031 31.87939453 C28.58643004 48.88869314 27.18457031 66.53324542 27.18457031 83.87939453 C-10.10542969 83.87939453 -47.39542969 83.87939453 -85.81542969 83.87939453 C-85.81542969 25.34183295 -85.81542969 25.34183295 -70.25292969 8.62939453 C-51.48342377 -9.13868958 -22.39983415 -13.82668622 0 0 Z " fill="#34B69C" transform="translate(285.8154296875,98.12060546875)"/>
<path d="M0 0 C2.93847653 -0.107834 5.87301151 -0.18721916 8.8125 -0.25 C9.64587891 -0.28351562 10.47925781 -0.31703125 11.33789062 -0.3515625 C17.43724552 -0.4495441 17.43724552 -0.4495441 20 1.59765625 C21.25939359 4.62315257 21.72077492 7.44147972 22.1875 10.6875 C24.53241933 24.243383 31.29392873 36.46979951 40 47 C40.68707031 47.84949219 41.37414062 48.69898438 42.08203125 49.57421875 C58.09133744 68.41039342 82.34455022 79.66609069 106.6796875 82.4453125 C109.42407368 83.10137788 110.24998326 83.82287465 112 86 C112.28617704 89.10143948 112.38884538 92.00051408 112.35644531 95.10205078 C112.35848969 96.03412857 112.36053406 96.96620636 112.36264038 97.92652893 C112.36565477 101.01632134 112.34714313 104.10558322 112.328125 107.1953125 C112.32506683 109.34422677 112.32319115 111.49314301 112.32244873 113.64205933 C112.31784062 118.15305129 112.30340125 122.66386525 112.28125 127.17480469 C112.25306925 132.9414178 112.24204881 138.70789009 112.2375679 144.47456551 C112.23339677 148.9168131 112.22356361 153.35903256 112.21169281 157.80126572 C112.206015 159.92621513 112.20124821 162.05116719 112.19742584 164.17612076 C112.19050224 167.15798848 112.17683899 170.13974915 112.16113281 173.12158203 C112.16001495 173.99153305 112.15889709 174.86148407 112.15774536 175.75779724 C112.12423867 180.59419613 111.83066065 185.31377304 111.2329216 190.11417961 C110.37192117 197.01998035 110.37192117 197.01998035 112.3125 203.5 C114.03692993 205.23115403 114.03692993 205.23115403 117 206 C116.66347302 212.44043009 116.0140611 218.78499821 114.8125 225.125 C114.51279297 226.73761719 114.51279297 226.73761719 114.20703125 228.3828125 C113 231 113 231 110.01171875 232.2421875 C109.01785156 232.49226562 108.02398437 232.74234375 107 233 C104.81303316 235.18696684 104.55621881 236.06748298 103.84375 238.98828125 C103.63129639 239.82504395 103.41884277 240.66180664 103.19995117 241.52392578 C102.96896729 242.44415527 102.7379834 243.36438477 102.5 244.3125 C96.910508 265.56571299 89.59774776 286.22863961 80 306 C79.60844727 306.82258301 79.21689453 307.64516602 78.81347656 308.49267578 C64.50715823 338.50597132 45.48094307 365.5477802 23 390 C21.96359375 391.17369141 21.96359375 391.17369141 20.90625 392.37109375 C16.5603431 397.29173109 12.06741112 402.03552258 7.4375 406.6875 C6.91961914 407.20997314 6.40173828 407.73244629 5.86816406 408.27075195 C-0.81010342 414.92288345 -8.04447878 420.94537752 -15.3125 426.9375 C-16.04654053 427.54287598 -16.78058105 428.14825195 -17.53686523 428.77197266 C-23.20284676 433.41324879 -28.9850211 437.81679653 -35 442 C-35 439 -35 439 -32.4375 436.328125 C-31.29930521 435.29361635 -30.15294809 434.26804038 -29 433.25 C-28.40421143 432.71213867 -27.80842285 432.17427734 -27.19458008 431.62011719 C-24.055856 428.79513781 -20.88009124 426.01392669 -17.6875 423.25 C-11.59807061 417.9665245 -6.06857541 412.21410818 -0.82421875 406.09765625 C0.4196954 404.66728816 1.68934069 403.25899275 2.98046875 401.87109375 C10.25550843 394.03949365 16.64263525 385.57856712 23 377 C23.50966309 376.31518555 24.01932617 375.63037109 24.54443359 374.92480469 C33.26032513 363.13889727 40.76012065 350.73608354 48 338 C48.38639648 337.32791504 48.77279297 336.65583008 49.17089844 335.96337891 C61.58282773 314.25707063 71.04664884 290.49106376 77.38232422 266.32958984 C78.00780998 263.97054434 78.65929553 261.61994716 79.31640625 259.26953125 C81.95191879 249.72739396 83.95288244 240.25515534 85.421875 230.46484375 C86 227 86 227 87 225 C86.01 225.33 85.02 225.66 84 226 C84.93420602 216.9985357 86.23892138 208.05456686 87.5390625 199.09960938 C87.71179688 197.87693359 87.88453125 196.65425781 88.0625 195.39453125 C88.29646484 193.76801636 88.29646484 193.76801636 88.53515625 192.10864258 C90.36383203 177.28328057 90.28616058 162.34236356 90.35009766 147.43115234 C90.36350374 144.6362282 90.39152656 141.84202252 90.43212891 139.04736328 C90.49122546 134.97416294 90.50877475 130.90173152 90.5234375 126.828125 C90.55744156 124.96997162 90.55744156 124.96997162 90.59213257 123.07427979 C90.5697716 113.85287066 88.76332441 106.96630255 82.3203125 100.17578125 C78.02279981 97.35964647 73.5580057 95.28005776 68.875 93.1875 C60.67641149 89.39919156 53.2469426 85.43242395 46 80 C45.19175781 79.4121875 44.38351562 78.824375 43.55078125 78.21875 C27.89413693 66.31869183 12.21974543 49.62830542 5 31 C5.495 29.515 5.495 29.515 6 28 C5.58735616 25.88037376 5.58735616 25.88037376 4.78515625 23.61328125 C4.51123047 22.75669922 4.23730469 21.90011719 3.95507812 21.01757812 C3.36622093 19.23296716 2.77512276 17.44909387 2.18164062 15.66601562 C0.44062245 10.2064762 -0.32697083 5.7319989 0 0 Z " fill="#C9C9C9" transform="translate(362,15)"/>
<path d="M0 0 C24.42576395 -0.09339694 48.85150117 -0.16395649 73.27740765 -0.20724869 C84.61851148 -0.22788333 95.95950444 -0.25602125 107.30053711 -0.30175781 C117.18414613 -0.34159786 127.06767487 -0.36742625 136.95136195 -0.37635398 C142.1858478 -0.38157351 147.42010392 -0.39386017 152.65451622 -0.42292023 C157.58009324 -0.45004449 162.50534561 -0.45845101 167.43099022 -0.45243073 C169.23980981 -0.4535323 171.04864011 -0.46150395 172.85739517 -0.4768219 C175.32583694 -0.49670338 177.79305062 -0.49194644 180.26152039 -0.48101807 C180.97845446 -0.49266943 181.69538853 -0.5043208 182.43404788 -0.51632524 C187.23149381 -0.45885553 189.64492063 0.59084061 193 4 C194.35806666 6.28875002 195.54173341 8.48849685 196.6875 10.875 C212.32057977 41.56409954 240.46881601 64.65925197 272.36328125 77.11328125 C274 78 274 78 276 81 C276.25396729 83.85914612 276.25396729 83.85914612 276.25878906 87.38891602 C276.26404602 88.35569778 276.26404602 88.35569778 276.26940918 89.3420105 C276.27822761 91.47941806 276.27236681 93.61649509 276.265625 95.75390625 C276.26697408 97.2534949 276.26891663 98.75308312 276.27142334 100.25267029 C276.27437676 103.40766533 276.27007908 106.56254739 276.26074219 109.7175293 C276.24949271 113.70828253 276.25601163 117.6987651 276.26760674 121.68950844 C276.34659015 153.49005921 276.34659015 153.49005921 274 168 C273.80277344 169.26529541 273.60554688 170.53059082 273.40234375 171.83422852 C272.78267681 175.56930951 272.09844302 179.2836898 271.375 183 C271.24750366 183.65542786 271.12000732 184.31085571 270.98864746 184.98614502 C259.39647301 243.90447777 229.46459098 296.98484781 188 340 C187.43780762 340.58410645 186.87561523 341.16821289 186.29638672 341.77001953 C179.76720379 348.51546024 173.16956271 354.95349772 165.7890625 360.77734375 C163.13946445 362.88885816 160.5738764 365.07093807 158.01074219 367.28515625 C152.91916487 371.67697107 147.86235099 375.6665063 142 379 C143.5477446 375.27953207 145.82004196 372.97693626 148.69140625 370.18359375 C149.3876133 369.49874657 149.3876133 369.49874657 150.09788513 368.80006409 C152.06818511 366.86207999 154.04982088 364.93586467 156.03149414 363.00952148 C162.8490899 356.36582647 169.06558514 349.45690751 175 342 C175.93466331 340.89807325 176.87596194 339.80168485 177.828125 338.71484375 C205.83288687 306.59970554 226.55069623 268.2811985 240 228 C240.29390625 227.13020508 240.5878125 226.26041016 240.890625 225.36425781 C252.11342713 191.73555472 254.19426066 157.13084909 254.29516602 121.96459961 C254.30637597 118.47696819 254.34104289 114.98994934 254.38033772 111.50253773 C254.41277983 108.13322769 254.41726775 104.76398523 254.42578125 101.39453125 C254.45204338 99.53197441 254.45204338 99.53197441 254.47883606 97.63179016 C254.46184437 90.87918909 254.17291446 86.42827857 250 81 C247.51890283 79.1597644 247.51890283 79.1597644 244.625 78 C243.02591797 77.26136719 243.02591797 77.26136719 241.39453125 76.5078125 C240.27433594 76.01023437 239.15414062 75.51265625 238 75 C206.55002568 60.63350285 184.71617205 37.37052743 169.03051758 6.90673828 C167.91465847 4.7719087 167.91465847 4.7719087 166 2 C163.02710801 1.5341209 163.02710801 1.5341209 159.45748901 1.60127258 C158.77791047 1.59462576 158.09833193 1.58797893 157.3981601 1.58113068 C155.1101792 1.56240746 152.82271697 1.56511209 150.53466797 1.56762695 C148.89891821 1.55861544 147.26317524 1.54828973 145.62744141 1.53674316 C141.17727091 1.50907513 136.72722818 1.49987542 132.27698278 1.49388909 C127.6297632 1.48453082 122.98264003 1.45832962 118.33547974 1.43388367 C109.53115591 1.39014463 100.72685071 1.36164323 91.92245114 1.33856028 C81.90077478 1.3115482 71.87919506 1.26763432 61.85758758 1.22227156 C41.23844363 1.1293193 20.61927077 1.05768712 0 1 C0 0.67 0 0.34 0 0 Z " fill="#1E948D" transform="translate(162,48)"/>
<path d="M0 0 C0 29.7 0 59.4 0 90 C-18.48 90 -36.96 90 -56 90 C-56.0825 82.8225 -56.165 75.645 -56.25 68.25 C-56.28641602 66.00993164 -56.32283203 63.76986328 -56.36035156 61.46191406 C-56.4567582 51.36821686 -56.46297523 42.29921748 -52 33 C-51.48179687 31.86304687 -50.96359375 30.72609375 -50.4296875 29.5546875 C-42.38663353 15.69153417 -31.20315573 6.78594098 -16.375 1 C-12 0 -12 0 0 0 Z " fill="#49D093" transform="translate(256,91)"/>
<path d="M0 0 C22.2092364 -0.09340848 44.41844044 -0.16396213 66.62783337 -0.20724869 C76.93986258 -0.2278809 87.25176979 -0.25601412 97.5637207 -0.30175781 C106.55078869 -0.34160536 115.53776832 -0.36742802 124.52492219 -0.37635398 C129.28434166 -0.38157225 134.04350838 -0.39385079 138.80284691 -0.42292023 C143.28193041 -0.45005643 147.76065686 -0.45844864 152.23981476 -0.45243073 C153.8841553 -0.45353177 155.52850769 -0.46149646 157.17277718 -0.4768219 C159.41792584 -0.49672257 161.66172631 -0.49194006 163.90690613 -0.48101807 C165.16330997 -0.48470524 166.4197138 -0.48839241 167.71419048 -0.49219131 C171.59605542 0.08928494 173.23649136 1.26810827 176 4 C177.17582921 6.35165842 177.13321342 7.76073551 177.14717102 10.38288879 C177.15790398 11.76450951 177.15790398 11.76450951 177.16885376 13.17404175 C177.17154266 14.18757721 177.17423157 15.20111267 177.17700195 16.24536133 C177.18357315 17.31051468 177.19014435 18.37566803 177.19691467 19.47309875 C177.21667806 23.00941024 177.22831654 26.54567922 177.23828125 30.08203125 C177.24235678 31.2875382 177.2464323 32.49304516 177.25063133 33.73508263 C177.2715042 40.11448369 177.28580115 46.49386316 177.29516602 52.87329102 C177.30623807 59.471116 177.3406441 66.06860443 177.38033772 72.66631031 C177.40644927 77.73203673 177.41485297 82.79768227 177.41844749 87.86347008 C177.42332691 90.29597944 177.43497913 92.72848487 177.45348549 95.16092873 C177.4777619 98.56304427 177.47693263 101.96427993 177.4699707 105.36645508 C177.48918579 106.87764923 177.48918579 106.87764923 177.50878906 108.41937256 C177.47600386 112.80819086 177.43169148 115.29680344 175.09562683 119.10209656 C172.19365683 121.73026431 170.67946638 122.12450328 166.8671875 122.09765625 C166.06152344 122.09443359 165.25585938 122.09121094 164.42578125 122.08789062 C163.16314453 122.07532227 163.16314453 122.07532227 161.875 122.0625 C161.02550781 122.05798828 160.17601562 122.05347656 159.30078125 122.04882812 C157.20049091 122.03702874 155.1002367 122.01909306 153 122 C153.32498978 121.23067642 153.64997955 120.46135284 153.9848175 119.66871643 C155.32805994 114.81444087 155.27111365 110.3134117 155.24291992 105.30053711 C155.24576744 103.70193092 155.24576744 103.70193092 155.24867249 102.07102966 C155.25237017 98.55639231 155.24169035 95.04196267 155.23046875 91.52734375 C155.22927628 89.08167037 155.22882393 86.63599653 155.2290802 84.19032288 C155.22751708 79.06850308 155.2192401 73.94675335 155.20581055 68.82495117 C155.18881209 62.25876196 155.1849966 55.69264965 155.18575573 49.126441 C155.18548386 44.07787847 155.18000005 39.02933277 155.17275429 33.98077583 C155.16957177 31.55945526 155.16760119 29.13813278 155.16686058 26.71681023 C155.16469313 23.33452988 155.15594024 19.95233117 155.14526367 16.57006836 C155.14571686 15.56888977 155.14617004 14.56771118 155.14663696 13.53619385 C155.14023949 12.15055489 155.14023949 12.15055489 155.13371277 10.73692322 C155.13203692 9.93814727 155.13036108 9.13937132 155.12863445 8.31639004 C155.02870946 5.53062193 155.02870946 5.53062193 154 1 C103.18 1 52.36 1 0 1 C0 0.67 0 0.34 0 0 Z " fill="#4F5763" transform="translate(171,196)"/>
<path d="M0 0 C4.8692835 2.3805386 7.56118018 5.38274988 9.375 10.5 C10.32644948 16.48581809 9.79290962 21.37313558 6.375 26.5 C4.3125 28.875 4.3125 28.875 2.375 30.5 C1.715 30.5 1.055 30.5 0.375 30.5 C0.38547363 31.17579102 0.39594727 31.85158203 0.40673828 32.54785156 C0.44835976 35.61519642 0.47434573 38.68248178 0.5 41.75 C0.51675781 42.81347656 0.53351563 43.87695312 0.55078125 44.97265625 C0.55722656 45.99746094 0.56367188 47.02226562 0.5703125 48.078125 C0.58078613 49.02075195 0.59125977 49.96337891 0.60205078 50.93457031 C0.36035075 53.6655208 -0.12421793 55.21921031 -1.625 57.5 C-4.625 59.5 -4.625 59.5 -8.125 59.375 C-11.625 58.5 -11.625 58.5 -13.32543945 56.79785156 C-14.93817942 53.94624372 -14.97004443 52.12278422 -14.91796875 48.859375 C-14.90830078 47.78945313 -14.89863281 46.71953125 -14.88867188 45.6171875 C-14.86353516 44.50601563 -14.83839844 43.39484375 -14.8125 42.25 C-14.79219727 40.56003906 -14.79219727 40.56003906 -14.77148438 38.8359375 C-14.73615645 36.05680736 -14.6868252 33.27864637 -14.625 30.5 C-15.41737061 30.20359619 -16.20974121 29.90719238 -17.02612305 29.60180664 C-21.26496354 27.80472941 -22.8848652 24.64081058 -24.625 20.5 C-25.69578444 15.57439158 -25.05699131 11.65074618 -22.625 7.25 C-16.84269776 -0.91709356 -9.4438347 -3.48095064 0 0 Z " fill="#020202" transform="translate(263.625,233.5)"/>
<path d="M0 0 C3.19845671 1.38972246 5.06418136 2.97459224 7.375 5.5625 C20.38470565 18.88715197 37.4571285 24.54856308 55.16259766 28.48022461 C62.48868155 30.18083303 62.48868155 30.18083303 65.16796875 33.73828125 C67.13506132 39.08544838 66.32149035 45.38463527 66 51 C64.4620646 49.52323566 63.05955351 48.08008714 61.78564453 46.36694336 C57.52017971 40.64352735 52.30449733 38.36021 45.875 35.5625 C37.31557942 31.65285621 29.52446581 27.69963473 22 22 C21.17113281 21.39027344 20.34226562 20.78054687 19.48828125 20.15234375 C14.45600136 16.30505912 9.87600611 12.07027431 5.375 7.625 C4.57449219 6.83851074 4.57449219 6.83851074 3.7578125 6.03613281 C0 2.24618113 0 2.24618113 0 0 Z " fill="#DCE1E4" transform="translate(386,73)"/>
<path d="M0 0 C0.66 0 1.32 0 2 0 C3.40234375 1.79296875 3.40234375 1.79296875 4.9375 4.1875 C5.46472656 5.00476562 5.99195313 5.82203125 6.53515625 6.6640625 C8.05681922 9.09060772 9.56171004 11.52294507 11 14 C10.01 14.495 10.01 14.495 9 15 C7.49428254 12.87885041 5.99531321 10.75346385 4.5 8.625 C4.07074219 8.02171875 3.64148438 7.4184375 3.19921875 6.796875 C0 2.2265625 0 2.2265625 0 0 Z " fill="#CED2D4" transform="translate(375,58)"/>
<path d="M0 0 C0.66 0.66 1.32 1.32 2 2 C1.9765625 4.1640625 1.9765625 4.1640625 1.625 6.625 C1.51414062 7.44226563 1.40328125 8.25953125 1.2890625 9.1015625 C1.19367188 9.72804687 1.09828125 10.35453125 1 11 C0.34 11 -0.32 11 -1 11 C-1.125 3.375 -1.125 3.375 0 0 Z " fill="#D5D9DC" transform="translate(449,223)"/>
<path d="M0 0 C0.33 0.99 0.66 1.98 1 3 C-1.64 4.65 -4.28 6.3 -7 8 C-4.9957983 3.9915966 -3.50944037 2.58590343 0 0 Z " fill="#C0C1C1" transform="translate(333,449)"/>
</svg>
